<?xml version="1.0" encoding="us-ascii" standalone="no"?><svg xmlns="http://www.w3.org/2000/svg" xmlns:xlink="http://www.w3.org/1999/xlink" contentStyleType="text/css" height="1308.6px" preserveAspectRatio="none" style="width:1029px;height:1308px;background:#FFFFFF;" version="1.1" viewBox="0 0 1029 1308" width="1029.6px" zoomAndPan="magnify"><defs/><g><!--cluster app--><g id="cluster_app"><path d="M5.1,3.6082 L21.3,3.6082 A2.25,2.25 0 0 1 22.8,5.1082 L27,18.3809 L1023.9,18.3809 A1.5,1.5 0 0 1 1025.4,19.8809 L1025.4,1302.9082 A1.5,1.5 0 0 1 1023.9,1304.4082 L5.1,1304.4082 A1.5,1.5 0 0 1 3.6,1302.9082 L3.6,5.1082 A1.5,1.5 0 0 1 5.1,3.6082 " fill="#EAFAF1" style="stroke:#000000;stroke-width:0.8999999999999999;"/><line style="stroke:#000000;stroke-width:0.8999999999999999;" x1="3.6" x2="27" y1="18.3809" y2="18.3809"/><text fill="#000000" font-family="sans-serif" font-size="8.4" font-weight="bold" lengthAdjust="spacing" textLength="15.6" x="6" y="13.8727">app</text></g><!--cluster ui--><g id="cluster_ui"><rect fill="#FDEBD0" height="459" rx="1.5" ry="1.5" style="stroke:#181818;stroke-width:0.6;" width="755.1" x="251.1" y="826.2082"/><text fill="#000000" font-family="sans-serif" font-size="8.4" font-weight="bold" lengthAdjust="spacing" textLength="7.8" x="624.75" y="836.4727">ui</text></g><!--cluster components--><g id="cluster_components"><rect fill="#FDEBD0" height="251.4" rx="1.5" ry="1.5" style="stroke:#181818;stroke-width:0.6;" width="408.9" x="275.1" y="862.8082"/><text fill="#000000" font-family="sans-serif" font-size="8.4" font-weight="bold" lengthAdjust="spacing" textLength="52.2" x="453.45" y="873.0727">components</text></g><!--cluster dialogs--><g id="cluster_dialogs"><rect fill="#FDEBD0" height="110.4" rx="1.5" ry="1.5" style="stroke:#181818;stroke-width:0.6;" width="105.6" x="294.3" y="899.4082"/><text fill="#000000" font-family="sans-serif" font-size="8.4" font-weight="bold" lengthAdjust="spacing" textLength="30.6" x="331.8" y="909.6727">dialogs</text></g><!--cluster router--><g id="cluster_router"><rect fill="#FDEBD0" height="127.8" rx="1.5" ry="1.5" style="stroke:#181818;stroke-width:0.6;" width="89.4" x="302.4" y="1133.4082"/><text fill="#000000" font-family="sans-serif" font-size="8.4" font-weight="bold" lengthAdjust="spacing" textLength="26.4" x="333.9" y="1143.6727">router</text></g><!--cluster screens--><g id="cluster_screens"><rect fill="#FDEBD0" height="181.2" rx="1.5" ry="1.5" style="stroke:#181818;stroke-width:0.6;" width="253.2" x="729" y="862.8082"/><text fill="#000000" font-family="sans-serif" font-size="8.4" font-weight="bold" lengthAdjust="spacing" textLength="34.2" x="838.5" y="873.0727">screens</text></g><!--cluster theme--><g id="cluster_theme"><rect fill="#FDEBD0" height="131.4" rx="1.5" ry="1.5" style="stroke:#181818;stroke-width:0.6;" width="212.4" x="749.7" y="1068.0082"/><text fill="#000000" font-family="sans-serif" font-size="8.4" font-weight="bold" lengthAdjust="spacing" textLength="26.4" x="842.7" y="1078.2727">theme</text></g><!--cluster di--><g id="cluster_di"><rect fill="#FDEBD0" height="131.4" rx="1.5" ry="1.5" style="stroke:#181818;stroke-width:0.6;" width="369.9" x="32.7" y="637.2082"/><text fill="#000000" font-family="sans-serif" font-size="8.4" font-weight="bold" lengthAdjust="spacing" textLength="7.8" x="213.75" y="647.4727">di</text></g><!--cluster util--><g id="cluster_util"><rect fill="#FDEBD0" height="131.4" rx="1.5" ry="1.5" style="stroke:#181818;stroke-width:0.6;" width="120" x="22.8" y="1153.8082"/><text fill="#000000" font-family="sans-serif" font-size="8.4" font-weight="bold" lengthAdjust="spacing" textLength="13.2" x="76.2" y="1164.0727">util</text></g><!--cluster view_model--><g id="cluster_view_model"><rect fill="#FDEBD0" height="587.4" rx="1.5" ry="1.5" style="stroke:#181818;stroke-width:0.6;" width="547.8" x="162" y="30.6082"/><text fill="#000000" font-family="sans-serif" font-size="8.4" font-weight="bold" lengthAdjust="spacing" textLength="50.4" x="410.7" y="40.8727">view_model</text></g><!--cluster states--><g id="cluster_states"><rect fill="#FDEBD0" height="220.2" rx="1.5" ry="1.5" style="stroke:#181818;stroke-width:0.6;" width="452.1" x="238.5" y="62.4082"/><text fill="#000000" font-family="sans-serif" font-size="8.4" font-weight="bold" lengthAdjust="spacing" textLength="25.8" x="451.65" y="72.6727">states</text></g><!--class App--><g id="elem_App"><rect codeLine="158" fill="#F9E79F" height="39.9727" id="App" rx="1.5" ry="1.5" style="stroke:#181818;stroke-width:0.3;" width="57" x="54.3" y="785.1082"/><ellipse cx="70.59" cy="794.7082" fill="#ADD1B2" rx="6.6" ry="6.6" style="stroke:#181818;stroke-width:0.6;"/><path d="M72.2494,792.2332 Q72.3431,792.102 72.4556,792.0363 Q72.5681,791.9707 72.6994,791.9707 Q72.9244,791.9707 73.065,792.1301 Q73.2056,792.2801 73.2056,792.6457 L73.2056,793.5176 Q73.2056,793.8832 73.065,794.0426 Q72.9244,794.202 72.6994,794.202 Q72.4931,794.202 72.3713,794.0801 Q72.2494,793.9676 72.1838,793.6582 Q72.1556,793.4426 72.0431,793.3301 Q71.8463,793.1051 71.4806,792.9738 Q71.115,792.8426 70.74,792.8426 Q70.2806,792.8426 69.8963,793.0395 Q69.5213,793.2363 69.2213,793.6863 Q68.9306,794.1363 68.9306,794.7551 L68.9306,795.4113 Q68.9306,796.152 69.465,796.6488 Q69.9994,797.1363 70.9556,797.1363 Q71.5181,797.1363 71.9119,796.9863 Q72.1463,796.8926 72.3994,796.6301 Q72.5588,796.4707 72.6431,796.4238 Q72.7369,796.377 72.8588,796.377 Q73.0556,796.377 73.2056,796.5363 Q73.365,796.6863 73.365,796.8926 Q73.365,797.0988 73.1588,797.3426 Q72.8588,797.6895 72.3806,797.8863 Q71.7338,798.1582 70.9556,798.1582 Q70.0463,798.1582 69.3244,797.7832 Q68.7338,797.4832 68.3213,796.8457 Q67.9088,796.1988 67.9088,795.4301 L67.9088,794.7363 Q67.9088,793.9395 68.2744,793.2551 Q68.6494,792.5613 69.3056,792.1957 Q69.9619,791.8207 70.7025,791.8207 Q71.1431,791.8207 71.5275,791.9238 Q71.9213,792.0176 72.2494,792.2332 Z " fill="#000000"/><ellipse cx="83.61" cy="794.4082" fill="#84BE84" rx="1.8" ry="1.8" style="stroke:#038048;stroke-width:0.6;"/><text fill="#000000" font-family="sans-serif" font-size="8.4" lengthAdjust="spacing" textLength="15" x="87.21" y="798.1863">App</text><line style="stroke:#181818;stroke-width:0.3;" x1="54.9" x2="110.7" y1="804.3082" y2="804.3082"/><line style="stroke:#181818;stroke-width:0.3;" x1="54.9" x2="110.7" y1="809.1082" y2="809.1082"/><ellipse cx="60.9" cy="817.9945" fill="#84BE84" rx="1.8" ry="1.8" style="stroke:#038048;stroke-width:0.6;"/><text fill="#000000" font-family="sans-serif" font-size="8.4" lengthAdjust="spacing" textLength="41.4" x="66.3" y="820.5727">onCreate()</text></g><!--class MainActivity--><g id="elem_MainActivity"><rect codeLine="162" fill="#F9E79F" height="28.8" id="MainActivity" rx="1.5" ry="1.5" style="stroke:#181818;stroke-width:0.3;" width="70.2" x="312" y="783.0082"/><ellipse cx="321" cy="792.6082" fill="#ADD1B2" rx="6.6" ry="6.6" style="stroke:#181818;stroke-width:0.6;"/><path d="M322.6594,790.1332 Q322.7531,790.002 322.8656,789.9363 Q322.9781,789.8707 323.1094,789.8707 Q323.3344,789.8707 323.475,790.0301 Q323.6156,790.1801 323.6156,790.5457 L323.6156,791.4176 Q323.6156,791.7832 323.475,791.9426 Q323.3344,792.102 323.1094,792.102 Q322.9031,792.102 322.7813,791.9801 Q322.6594,791.8676 322.5938,791.5582 Q322.5656,791.3426 322.4531,791.2301 Q322.2562,791.0051 321.8906,790.8738 Q321.525,790.7426 321.15,790.7426 Q320.6906,790.7426 320.3063,790.9395 Q319.9313,791.1363 319.6312,791.5863 Q319.3406,792.0363 319.3406,792.6551 L319.3406,793.3113 Q319.3406,794.052 319.875,794.5488 Q320.4094,795.0363 321.3656,795.0363 Q321.9281,795.0363 322.3219,794.8863 Q322.5563,794.7926 322.8094,794.5301 Q322.9688,794.3707 323.0531,794.3238 Q323.1469,794.277 323.2688,794.277 Q323.4656,794.277 323.6156,794.4363 Q323.775,794.5863 323.775,794.7926 Q323.775,794.9988 323.5687,795.2426 Q323.2688,795.5895 322.7906,795.7863 Q322.1438,796.0582 321.3656,796.0582 Q320.4563,796.0582 319.7344,795.6832 Q319.1438,795.3832 318.7313,794.7457 Q318.3187,794.0988 318.3187,793.3301 L318.3187,792.6363 Q318.3187,791.8395 318.6844,791.1551 Q319.0594,790.4613 319.7156,790.0957 Q320.3719,789.7207 321.1125,789.7207 Q321.5531,789.7207 321.9375,789.8238 Q322.3313,789.9176 322.6594,790.1332 Z " fill="#000000"/><ellipse cx="332.4" cy="792.3082" fill="#84BE84" rx="1.8" ry="1.8" style="stroke:#038048;stroke-width:0.6;"/><text fill="#000000" font-family="sans-serif" font-size="8.4" lengthAdjust="spacing" textLength="44.4" x="336" y="796.0863">MainActivity</text><line style="stroke:#181818;stroke-width:0.3;" x1="312.6" x2="381.6" y1="802.2082" y2="802.2082"/><line style="stroke:#181818;stroke-width:0.3;" x1="312.6" x2="381.6" y1="807.0082" y2="807.0082"/></g><!--class PreviewComponents--><g id="elem_PreviewComponents"><rect codeLine="23" fill="#F9E79F" height="28.8" id="PreviewComponents" rx="1.5" ry="1.5" style="stroke:#181818;stroke-width:0.3;" width="103.2" x="295.5" y="1071.0082"/><ellipse cx="304.5" cy="1080.6082" fill="#ADD1B2" rx="6.6" ry="6.6" style="stroke:#181818;stroke-width:0.6;"/><path d="M303.8156,1081.0863 L303.8156,1082.5863 L306.4125,1082.5863 L306.4125,1082.0332 Q306.4125,1081.6676 306.5531,1081.5082 Q306.7031,1081.3488 306.9281,1081.3488 Q307.1531,1081.3488 307.2938,1081.5082 Q307.4344,1081.6676 307.4344,1082.0332 L307.4344,1083.6082 L302.6344,1083.6082 Q302.2594,1083.6082 302.1,1083.4676 Q301.95,1083.327 301.95,1083.0926 Q301.95,1082.8676 302.1094,1082.727 Q302.2688,1082.5863 302.6344,1082.5863 L302.7938,1082.5863 L302.7938,1078.5926 L302.6344,1078.5926 Q302.2594,1078.5926 302.1,1078.452 Q301.95,1078.3113 301.95,1078.077 Q301.95,1077.852 302.1,1077.7113 Q302.2594,1077.5707 302.6344,1077.5707 L307.2094,1077.5707 L307.2094,1079.127 Q307.2094,1079.4926 307.0687,1079.652 Q306.9375,1079.802 306.7031,1079.802 Q306.4781,1079.802 306.3375,1079.652 Q306.1969,1079.4926 306.1969,1079.127 L306.1969,1078.5926 L303.8156,1078.5926 L303.8156,1080.0645 L304.7063,1080.0645 Q304.7063,1079.6707 304.7813,1079.5582 Q304.9406,1079.3145 305.2219,1079.3145 Q305.4469,1079.3145 305.5875,1079.4738 Q305.7281,1079.6238 305.7281,1079.9895 L305.7281,1081.1707 Q305.7281,1081.4988 305.6531,1081.6113 Q305.4938,1081.8457 305.2219,1081.8457 Q304.9406,1081.8457 304.7813,1081.602 Q304.7063,1081.4895 304.7063,1081.0863 L303.8156,1081.0863 Z " fill="#000000"/><ellipse cx="315.9" cy="1080.3082" fill="#84BE84" rx="1.8" ry="1.8" style="stroke:#038048;stroke-width:0.6;"/><text fill="#000000" font-family="sans-serif" font-size="8.4" lengthAdjust="spacing" textLength="77.4" x="319.5" y="1084.0863">PreviewComponents</text><line style="stroke:#181818;stroke-width:0.3;" x1="296.1" x2="398.1" y1="1090.2082" y2="1090.2082"/><line style="stroke:#181818;stroke-width:0.3;" x1="296.1" x2="398.1" y1="1095.0082" y2="1095.0082"/></g><!--class RelationComponents--><g id="elem_RelationComponents"><rect codeLine="26" fill="#F9E79F" height="28.8" id="RelationComponents" rx="1.5" ry="1.5" style="stroke:#181818;stroke-width:0.3;" width="105" x="294.6" y="1021.2082"/><ellipse cx="303.6" cy="1030.8082" fill="#ADD1B2" rx="6.6" ry="6.6" style="stroke:#181818;stroke-width:0.6;"/><path d="M302.9156,1031.2863 L302.9156,1032.7863 L305.5125,1032.7863 L305.5125,1032.2332 Q305.5125,1031.8676 305.6531,1031.7082 Q305.8031,1031.5488 306.0281,1031.5488 Q306.2531,1031.5488 306.3938,1031.7082 Q306.5344,1031.8676 306.5344,1032.2332 L306.5344,1033.8082 L301.7344,1033.8082 Q301.3594,1033.8082 301.2,1033.6676 Q301.05,1033.527 301.05,1033.2926 Q301.05,1033.0676 301.2094,1032.927 Q301.3688,1032.7863 301.7344,1032.7863 L301.8938,1032.7863 L301.8938,1028.7926 L301.7344,1028.7926 Q301.3594,1028.7926 301.2,1028.652 Q301.05,1028.5113 301.05,1028.277 Q301.05,1028.052 301.2,1027.9113 Q301.3594,1027.7707 301.7344,1027.7707 L306.3094,1027.7707 L306.3094,1029.327 Q306.3094,1029.6926 306.1688,1029.852 Q306.0375,1030.002 305.8031,1030.002 Q305.5781,1030.002 305.4375,1029.852 Q305.2969,1029.6926 305.2969,1029.327 L305.2969,1028.7926 L302.9156,1028.7926 L302.9156,1030.2645 L303.8063,1030.2645 Q303.8063,1029.8707 303.8812,1029.7582 Q304.0406,1029.5145 304.3219,1029.5145 Q304.5469,1029.5145 304.6875,1029.6738 Q304.8281,1029.8238 304.8281,1030.1895 L304.8281,1031.3707 Q304.8281,1031.6988 304.7531,1031.8113 Q304.5938,1032.0457 304.3219,1032.0457 Q304.0406,1032.0457 303.8812,1031.802 Q303.8063,1031.6895 303.8063,1031.2863 L302.9156,1031.2863 Z " fill="#000000"/><ellipse cx="315" cy="1030.5082" fill="#84BE84" rx="1.8" ry="1.8" style="stroke:#038048;stroke-width:0.6;"/><text fill="#000000" font-family="sans-serif" font-size="8.4" lengthAdjust="spacing" textLength="79.2" x="318.6" y="1034.2863">RelationComponents</text><line style="stroke:#181818;stroke-width:0.3;" x1="295.2" x2="399" y1="1040.4082" y2="1040.4082"/><line style="stroke:#181818;stroke-width:0.3;" x1="295.2" x2="399" y1="1045.2082" y2="1045.2082"/></g><!--class ScaffoldComponents--><g id="elem_ScaffoldComponents"><rect codeLine="29" fill="#F9E79F" height="28.8" id="ScaffoldComponents" rx="1.5" ry="1.5" style="stroke:#181818;stroke-width:0.3;" width="104.4" x="565.2" y="1071.0082"/><ellipse cx="574.2" cy="1080.6082" fill="#ADD1B2" rx="6.6" ry="6.6" style="stroke:#181818;stroke-width:0.6;"/><path d="M573.5156,1081.0863 L573.5156,1082.5863 L576.1125,1082.5863 L576.1125,1082.0332 Q576.1125,1081.6676 576.2531,1081.5082 Q576.4031,1081.3488 576.6281,1081.3488 Q576.8531,1081.3488 576.9938,1081.5082 Q577.1344,1081.6676 577.1344,1082.0332 L577.1344,1083.6082 L572.3344,1083.6082 Q571.9594,1083.6082 571.8,1083.4676 Q571.65,1083.327 571.65,1083.0926 Q571.65,1082.8676 571.8094,1082.727 Q571.9688,1082.5863 572.3344,1082.5863 L572.4938,1082.5863 L572.4938,1078.5926 L572.3344,1078.5926 Q571.9594,1078.5926 571.8,1078.452 Q571.65,1078.3113 571.65,1078.077 Q571.65,1077.852 571.8,1077.7113 Q571.9594,1077.5707 572.3344,1077.5707 L576.9094,1077.5707 L576.9094,1079.127 Q576.9094,1079.4926 576.7688,1079.652 Q576.6375,1079.802 576.4031,1079.802 Q576.1781,1079.802 576.0375,1079.652 Q575.8969,1079.4926 575.8969,1079.127 L575.8969,1078.5926 L573.5156,1078.5926 L573.5156,1080.0645 L574.4063,1080.0645 Q574.4063,1079.6707 574.4812,1079.5582 Q574.6406,1079.3145 574.9219,1079.3145 Q575.1469,1079.3145 575.2875,1079.4738 Q575.4281,1079.6238 575.4281,1079.9895 L575.4281,1081.1707 Q575.4281,1081.4988 575.3531,1081.6113 Q575.1938,1081.8457 574.9219,1081.8457 Q574.6406,1081.8457 574.4812,1081.602 Q574.4063,1081.4895 574.4063,1081.0863 L573.5156,1081.0863 Z " fill="#000000"/><ellipse cx="585.6" cy="1080.3082" fill="#84BE84" rx="1.8" ry="1.8" style="stroke:#038048;stroke-width:0.6;"/><text fill="#000000" font-family="sans-serif" font-size="8.4" lengthAdjust="spacing" textLength="78.6" x="589.2" y="1084.0863">ScaffoldComponents</text><line style="stroke:#181818;stroke-width:0.3;" x1="565.8" x2="669" y1="1090.2082" y2="1090.2082"/><line style="stroke:#181818;stroke-width:0.3;" x1="565.8" x2="669" y1="1095.0082" y2="1095.0082"/></g><!--class CreationDialogs--><g id="elem_CreationDialogs"><rect codeLine="16" fill="#F9E79F" height="28.8" id="CreationDialogs" rx="1.5" ry="1.5" style="stroke:#181818;stroke-width:0.3;" width="86.4" x="303.9" y="921.6082"/><ellipse cx="312.9" cy="931.2082" fill="#ADD1B2" rx="6.6" ry="6.6" style="stroke:#181818;stroke-width:0.6;"/><path d="M312.2156,931.6863 L312.2156,933.1863 L314.8125,933.1863 L314.8125,932.6332 Q314.8125,932.2676 314.9531,932.1082 Q315.1031,931.9488 315.3281,931.9488 Q315.5531,931.9488 315.6937,932.1082 Q315.8344,932.2676 315.8344,932.6332 L315.8344,934.2082 L311.0344,934.2082 Q310.6594,934.2082 310.5,934.0676 Q310.35,933.927 310.35,933.6926 Q310.35,933.4676 310.5094,933.327 Q310.6688,933.1863 311.0344,933.1863 L311.1937,933.1863 L311.1937,929.1926 L311.0344,929.1926 Q310.6594,929.1926 310.5,929.052 Q310.35,928.9113 310.35,928.677 Q310.35,928.452 310.5,928.3113 Q310.6594,928.1707 311.0344,928.1707 L315.6094,928.1707 L315.6094,929.727 Q315.6094,930.0926 315.4688,930.252 Q315.3375,930.402 315.1031,930.402 Q314.8781,930.402 314.7375,930.252 Q314.5969,930.0926 314.5969,929.727 L314.5969,929.1926 L312.2156,929.1926 L312.2156,930.6645 L313.1063,930.6645 Q313.1063,930.2707 313.1813,930.1582 Q313.3406,929.9145 313.6219,929.9145 Q313.8469,929.9145 313.9875,930.0738 Q314.1281,930.2238 314.1281,930.5895 L314.1281,931.7707 Q314.1281,932.0988 314.0531,932.2113 Q313.8938,932.4457 313.6219,932.4457 Q313.3406,932.4457 313.1813,932.202 Q313.1063,932.0895 313.1063,931.6863 L312.2156,931.6863 Z " fill="#000000"/><ellipse cx="324.3" cy="930.9082" fill="#84BE84" rx="1.8" ry="1.8" style="stroke:#038048;stroke-width:0.6;"/><text fill="#000000" font-family="sans-serif" font-size="8.4" lengthAdjust="spacing" textLength="60.6" x="327.9" y="934.6863">CreationDialogs</text><line style="stroke:#181818;stroke-width:0.3;" x1="304.5" x2="389.7" y1="940.8082" y2="940.8082"/><line style="stroke:#181818;stroke-width:0.3;" x1="304.5" x2="389.7" y1="945.6082" y2="945.6082"/></g><!--class DeletionDialogs--><g id="elem_DeletionDialogs"><rect codeLine="19" fill="#F9E79F" height="28.8" id="DeletionDialogs" rx="1.5" ry="1.5" style="stroke:#181818;stroke-width:0.3;" width="85.2" x="304.5" y="971.4082"/><ellipse cx="313.5" cy="981.0082" fill="#ADD1B2" rx="6.6" ry="6.6" style="stroke:#181818;stroke-width:0.6;"/><path d="M312.8156,981.4863 L312.8156,982.9863 L315.4125,982.9863 L315.4125,982.4332 Q315.4125,982.0676 315.5531,981.9082 Q315.7031,981.7488 315.9281,981.7488 Q316.1531,981.7488 316.2938,981.9082 Q316.4344,982.0676 316.4344,982.4332 L316.4344,984.0082 L311.6344,984.0082 Q311.2594,984.0082 311.1,983.8676 Q310.95,983.727 310.95,983.4926 Q310.95,983.2676 311.1094,983.127 Q311.2688,982.9863 311.6344,982.9863 L311.7938,982.9863 L311.7938,978.9926 L311.6344,978.9926 Q311.2594,978.9926 311.1,978.852 Q310.95,978.7113 310.95,978.477 Q310.95,978.252 311.1,978.1113 Q311.2594,977.9707 311.6344,977.9707 L316.2094,977.9707 L316.2094,979.527 Q316.2094,979.8926 316.0687,980.052 Q315.9375,980.202 315.7031,980.202 Q315.4781,980.202 315.3375,980.052 Q315.1969,979.8926 315.1969,979.527 L315.1969,978.9926 L312.8156,978.9926 L312.8156,980.4645 L313.7063,980.4645 Q313.7063,980.0707 313.7813,979.9582 Q313.9406,979.7145 314.2219,979.7145 Q314.4469,979.7145 314.5875,979.8738 Q314.7281,980.0238 314.7281,980.3895 L314.7281,981.5707 Q314.7281,981.8988 314.6531,982.0113 Q314.4938,982.2457 314.2219,982.2457 Q313.9406,982.2457 313.7813,982.002 Q313.7063,981.8895 313.7063,981.4863 L312.8156,981.4863 Z " fill="#000000"/><ellipse cx="324.9" cy="980.7082" fill="#84BE84" rx="1.8" ry="1.8" style="stroke:#038048;stroke-width:0.6;"/><text fill="#000000" font-family="sans-serif" font-size="8.4" lengthAdjust="spacing" textLength="59.4" x="328.5" y="984.4863">DeletionDialogs</text><line style="stroke:#181818;stroke-width:0.3;" x1="305.1" x2="389.1" y1="990.6082" y2="990.6082"/><line style="stroke:#181818;stroke-width:0.3;" x1="305.1" x2="389.1" y1="995.4082" y2="995.4082"/></g><!--class MaiScreens--><g id="elem_MaiScreens"><rect codeLine="34" fill="#F9E79F" height="95.8359" id="MaiScreens" rx="1.5" ry="1.5" style="stroke:#181818;stroke-width:0.3;" width="70.2" x="312" y="1155.6082"/><ellipse cx="321" cy="1165.2082" fill="#EB937F" rx="6.6" ry="6.6" style="stroke:#181818;stroke-width:0.6;"/><path d="M320.3156,1165.6863 L320.3156,1167.1863 L322.9125,1167.1863 L322.9125,1166.6332 Q322.9125,1166.2676 323.0531,1166.1082 Q323.2031,1165.9488 323.4281,1165.9488 Q323.6531,1165.9488 323.7938,1166.1082 Q323.9344,1166.2676 323.9344,1166.6332 L323.9344,1168.2082 L319.1344,1168.2082 Q318.7594,1168.2082 318.6,1168.0676 Q318.45,1167.927 318.45,1167.6926 Q318.45,1167.4676 318.6094,1167.327 Q318.7688,1167.1863 319.1344,1167.1863 L319.2938,1167.1863 L319.2938,1163.1926 L319.1344,1163.1926 Q318.7594,1163.1926 318.6,1163.052 Q318.45,1162.9113 318.45,1162.677 Q318.45,1162.452 318.6,1162.3113 Q318.7594,1162.1707 319.1344,1162.1707 L323.7094,1162.1707 L323.7094,1163.727 Q323.7094,1164.0926 323.5687,1164.252 Q323.4375,1164.402 323.2031,1164.402 Q322.9781,1164.402 322.8375,1164.252 Q322.6969,1164.0926 322.6969,1163.727 L322.6969,1163.1926 L320.3156,1163.1926 L320.3156,1164.6645 L321.2063,1164.6645 Q321.2063,1164.2707 321.2813,1164.1582 Q321.4406,1163.9145 321.7219,1163.9145 Q321.9469,1163.9145 322.0875,1164.0738 Q322.2281,1164.2238 322.2281,1164.5895 L322.2281,1165.7707 Q322.2281,1166.0988 322.1531,1166.2113 Q321.9938,1166.4457 321.7219,1166.4457 Q321.4406,1166.4457 321.2813,1166.202 Q321.2063,1166.0895 321.2063,1165.6863 L320.3156,1165.6863 Z " fill="#000000"/><ellipse cx="332.4" cy="1164.9082" fill="#84BE84" rx="1.8" ry="1.8" style="stroke:#038048;stroke-width:0.6;"/><text fill="#000000" font-family="sans-serif" font-size="8.4" lengthAdjust="spacing" textLength="44.4" x="336" y="1168.6863">MaiScreens</text><line style="stroke:#181818;stroke-width:0.3;" x1="312.6" x2="381.6" y1="1174.8082" y2="1174.8082"/><ellipse cx="318.6" cy="1183.6945" fill="none" rx="1.8" ry="1.8" style="stroke:#038048;stroke-width:0.6;"/><text fill="#000000" font-family="sans-serif" font-size="8.4" lengthAdjust="spacing" textLength="21.6" x="324" y="1186.2727">Notes</text><ellipse cx="318.6" cy="1194.8672" fill="none" rx="1.8" ry="1.8" style="stroke:#038048;stroke-width:0.6;"/><text fill="#000000" font-family="sans-serif" font-size="8.4" lengthAdjust="spacing" textLength="39.6" x="324" y="1197.4453">Templates</text><ellipse cx="318.6" cy="1206.0398" fill="none" rx="1.8" ry="1.8" style="stroke:#038048;stroke-width:0.6;"/><text fill="#000000" font-family="sans-serif" font-size="8.4" lengthAdjust="spacing" textLength="30.6" x="324" y="1208.618">Settings</text><ellipse cx="318.6" cy="1217.2125" fill="none" rx="1.8" ry="1.8" style="stroke:#038048;stroke-width:0.6;"/><text fill="#000000" font-family="sans-serif" font-size="8.4" lengthAdjust="spacing" textLength="42" x="324" y="1219.7906">Information</text><ellipse cx="318.6" cy="1228.3852" fill="none" rx="1.8" ry="1.8" style="stroke:#038048;stroke-width:0.6;"/><text fill="#000000" font-family="sans-serif" font-size="8.4" lengthAdjust="spacing" textLength="43.2" x="324" y="1230.9633">CreateNote</text><ellipse cx="318.6" cy="1239.5578" fill="none" rx="1.8" ry="1.8" style="stroke:#038048;stroke-width:0.6;"/><text fill="#000000" font-family="sans-serif" font-size="8.4" lengthAdjust="spacing" textLength="24" x="324" y="1242.1359">Result</text><line style="stroke:#181818;stroke-width:0.3;" x1="312.6" x2="381.6" y1="1246.6441" y2="1246.6441"/></g><!--class CreateNoteScreen--><g id="elem_CreateNoteScreen"><rect codeLine="45" fill="#F9E79F" height="28.8" id="CreateNoteScreen" rx="1.5" ry="1.5" style="stroke:#181818;stroke-width:0.3;" width="96" x="743.4" y="989.4082"/><ellipse cx="752.4" cy="999.0082" fill="#ADD1B2" rx="6.6" ry="6.6" style="stroke:#181818;stroke-width:0.6;"/><path d="M751.7156,999.4863 L751.7156,1000.9863 L754.3125,1000.9863 L754.3125,1000.4332 Q754.3125,1000.0676 754.4531,999.9082 Q754.6031,999.7488 754.8281,999.7488 Q755.0531,999.7488 755.1938,999.9082 Q755.3344,1000.0676 755.3344,1000.4332 L755.3344,1002.0082 L750.5344,1002.0082 Q750.1594,1002.0082 750,1001.8676 Q749.85,1001.727 749.85,1001.4926 Q749.85,1001.2676 750.0094,1001.127 Q750.1687,1000.9863 750.5344,1000.9863 L750.6938,1000.9863 L750.6938,996.9926 L750.5344,996.9926 Q750.1594,996.9926 750,996.852 Q749.85,996.7113 749.85,996.477 Q749.85,996.252 750,996.1113 Q750.1594,995.9707 750.5344,995.9707 L755.1094,995.9707 L755.1094,997.527 Q755.1094,997.8926 754.9688,998.052 Q754.8375,998.202 754.6031,998.202 Q754.3781,998.202 754.2375,998.052 Q754.0969,997.8926 754.0969,997.527 L754.0969,996.9926 L751.7156,996.9926 L751.7156,998.4645 L752.6062,998.4645 Q752.6062,998.0707 752.6813,997.9582 Q752.8406,997.7145 753.1219,997.7145 Q753.3469,997.7145 753.4875,997.8738 Q753.6281,998.0238 753.6281,998.3895 L753.6281,999.5707 Q753.6281,999.8988 753.5531,1000.0113 Q753.3938,1000.2457 753.1219,1000.2457 Q752.8406,1000.2457 752.6813,1000.002 Q752.6062,999.8895 752.6062,999.4863 L751.7156,999.4863 Z " fill="#000000"/><ellipse cx="763.8" cy="998.7082" fill="#84BE84" rx="1.8" ry="1.8" style="stroke:#038048;stroke-width:0.6;"/><text fill="#000000" font-family="sans-serif" font-size="8.4" lengthAdjust="spacing" textLength="70.2" x="767.4" y="1002.4863">CreateNoteScreen</text><line style="stroke:#181818;stroke-width:0.3;" x1="744" x2="838.8" y1="1008.6082" y2="1008.6082"/><line style="stroke:#181818;stroke-width:0.3;" x1="744" x2="838.8" y1="1013.4082" y2="1013.4082"/></g><!--class InfoScreen--><g id="elem_InfoScreen"><rect codeLine="48" fill="#F9E79F" height="28.8" id="InfoScreen" rx="1.5" ry="1.5" style="stroke:#181818;stroke-width:0.3;" width="66.6" x="758.1" y="939.6082"/><ellipse cx="767.1" cy="949.2082" fill="#ADD1B2" rx="6.6" ry="6.6" style="stroke:#181818;stroke-width:0.6;"/><path d="M766.4156,949.6863 L766.4156,951.1863 L769.0125,951.1863 L769.0125,950.6332 Q769.0125,950.2676 769.1531,950.1082 Q769.3031,949.9488 769.5281,949.9488 Q769.7531,949.9488 769.8938,950.1082 Q770.0344,950.2676 770.0344,950.6332 L770.0344,952.2082 L765.2344,952.2082 Q764.8594,952.2082 764.7,952.0676 Q764.55,951.927 764.55,951.6926 Q764.55,951.4676 764.7094,951.327 Q764.8688,951.1863 765.2344,951.1863 L765.3938,951.1863 L765.3938,947.1926 L765.2344,947.1926 Q764.8594,947.1926 764.7,947.052 Q764.55,946.9113 764.55,946.677 Q764.55,946.452 764.7,946.3113 Q764.8594,946.1707 765.2344,946.1707 L769.8094,946.1707 L769.8094,947.727 Q769.8094,948.0926 769.6687,948.252 Q769.5375,948.402 769.3031,948.402 Q769.0781,948.402 768.9375,948.252 Q768.7969,948.0926 768.7969,947.727 L768.7969,947.1926 L766.4156,947.1926 L766.4156,948.6645 L767.3063,948.6645 Q767.3063,948.2707 767.3813,948.1582 Q767.5406,947.9145 767.8219,947.9145 Q768.0469,947.9145 768.1875,948.0738 Q768.3281,948.2238 768.3281,948.5895 L768.3281,949.7707 Q768.3281,950.0988 768.2531,950.2113 Q768.0938,950.4457 767.8219,950.4457 Q767.5406,950.4457 767.3813,950.202 Q767.3063,950.0895 767.3063,949.6863 L766.4156,949.6863 Z " fill="#000000"/><ellipse cx="778.5" cy="948.9082" fill="#84BE84" rx="1.8" ry="1.8" style="stroke:#038048;stroke-width:0.6;"/><text fill="#000000" font-family="sans-serif" font-size="8.4" lengthAdjust="spacing" textLength="40.8" x="782.1" y="952.6863">InfoScreen</text><line style="stroke:#181818;stroke-width:0.3;" x1="758.7" x2="824.1" y1="958.8082" y2="958.8082"/><line style="stroke:#181818;stroke-width:0.3;" x1="758.7" x2="824.1" y1="963.6082" y2="963.6082"/></g><!--class NotesScreen--><g id="elem_NotesScreen"><rect codeLine="51" fill="#F9E79F" height="28.8" id="NotesScreen" rx="1.5" ry="1.5" style="stroke:#181818;stroke-width:0.3;" width="74.4" x="754.2" y="889.8082"/><ellipse cx="763.2" cy="899.4082" fill="#ADD1B2" rx="6.6" ry="6.6" style="stroke:#181818;stroke-width:0.6;"/><path d="M762.5156,899.8863 L762.5156,901.3863 L765.1125,901.3863 L765.1125,900.8332 Q765.1125,900.4676 765.2531,900.3082 Q765.4031,900.1488 765.6281,900.1488 Q765.8531,900.1488 765.9938,900.3082 Q766.1344,900.4676 766.1344,900.8332 L766.1344,902.4082 L761.3344,902.4082 Q760.9594,902.4082 760.8,902.2676 Q760.65,902.127 760.65,901.8926 Q760.65,901.6676 760.8094,901.527 Q760.9688,901.3863 761.3344,901.3863 L761.4938,901.3863 L761.4938,897.3926 L761.3344,897.3926 Q760.9594,897.3926 760.8,897.252 Q760.65,897.1113 760.65,896.877 Q760.65,896.652 760.8,896.5113 Q760.9594,896.3707 761.3344,896.3707 L765.9094,896.3707 L765.9094,897.927 Q765.9094,898.2926 765.7688,898.452 Q765.6375,898.602 765.4031,898.602 Q765.1781,898.602 765.0375,898.452 Q764.8969,898.2926 764.8969,897.927 L764.8969,897.3926 L762.5156,897.3926 L762.5156,898.8645 L763.4063,898.8645 Q763.4063,898.4707 763.4812,898.3582 Q763.6406,898.1145 763.9219,898.1145 Q764.1469,898.1145 764.2875,898.2738 Q764.4281,898.4238 764.4281,898.7895 L764.4281,899.9707 Q764.4281,900.2988 764.3531,900.4113 Q764.1938,900.6457 763.9219,900.6457 Q763.6406,900.6457 763.4812,900.402 Q763.4063,900.2895 763.4063,899.8863 L762.5156,899.8863 Z " fill="#000000"/><ellipse cx="774.6" cy="899.1082" fill="#84BE84" rx="1.8" ry="1.8" style="stroke:#038048;stroke-width:0.6;"/><text fill="#000000" font-family="sans-serif" font-size="8.4" lengthAdjust="spacing" textLength="48.6" x="778.2" y="902.8863">NotesScreen</text><line style="stroke:#181818;stroke-width:0.3;" x1="754.8" x2="828" y1="909.0082" y2="909.0082"/><line style="stroke:#181818;stroke-width:0.3;" x1="754.8" x2="828" y1="913.8082" y2="913.8082"/></g><!--class ResultScreen--><g id="elem_ResultScreen"><rect codeLine="54" fill="#F9E79F" height="28.8" id="ResultScreen" rx="1.5" ry="1.5" style="stroke:#181818;stroke-width:0.3;" width="76.8" x="883.2" y="989.4082"/><ellipse cx="892.2" cy="999.0082" fill="#ADD1B2" rx="6.6" ry="6.6" style="stroke:#181818;stroke-width:0.6;"/><path d="M891.5156,999.4863 L891.5156,1000.9863 L894.1125,1000.9863 L894.1125,1000.4332 Q894.1125,1000.0676 894.2531,999.9082 Q894.4031,999.7488 894.6281,999.7488 Q894.8531,999.7488 894.9938,999.9082 Q895.1344,1000.0676 895.1344,1000.4332 L895.1344,1002.0082 L890.3344,1002.0082 Q889.9594,1002.0082 889.8,1001.8676 Q889.65,1001.727 889.65,1001.4926 Q889.65,1001.2676 889.8094,1001.127 Q889.9688,1000.9863 890.3344,1000.9863 L890.4938,1000.9863 L890.4938,996.9926 L890.3344,996.9926 Q889.9594,996.9926 889.8,996.852 Q889.65,996.7113 889.65,996.477 Q889.65,996.252 889.8,996.1113 Q889.9594,995.9707 890.3344,995.9707 L894.9094,995.9707 L894.9094,997.527 Q894.9094,997.8926 894.7688,998.052 Q894.6375,998.202 894.4031,998.202 Q894.1781,998.202 894.0375,998.052 Q893.8969,997.8926 893.8969,997.527 L893.8969,996.9926 L891.5156,996.9926 L891.5156,998.4645 L892.4063,998.4645 Q892.4063,998.0707 892.4812,997.9582 Q892.6406,997.7145 892.9219,997.7145 Q893.1469,997.7145 893.2875,997.8738 Q893.4281,998.0238 893.4281,998.3895 L893.4281,999.5707 Q893.4281,999.8988 893.3531,1000.0113 Q893.1938,1000.2457 892.9219,1000.2457 Q892.6406,1000.2457 892.4812,1000.002 Q892.4063,999.8895 892.4063,999.4863 L891.5156,999.4863 Z " fill="#000000"/><ellipse cx="903.6" cy="998.7082" fill="#84BE84" rx="1.8" ry="1.8" style="stroke:#038048;stroke-width:0.6;"/><text fill="#000000" font-family="sans-serif" font-size="8.4" lengthAdjust="spacing" textLength="51" x="907.2" y="1002.4863">ResultScreen</text><line style="stroke:#181818;stroke-width:0.3;" x1="883.8" x2="959.4" y1="1008.6082" y2="1008.6082"/><line style="stroke:#181818;stroke-width:0.3;" x1="883.8" x2="959.4" y1="1013.4082" y2="1013.4082"/></g><!--class SettingsScreen--><g id="elem_SettingsScreen"><rect codeLine="57" fill="#F9E79F" height="28.8" id="SettingsScreen" rx="1.5" ry="1.5" style="stroke:#181818;stroke-width:0.3;" width="83.4" x="879.9" y="939.6082"/><ellipse cx="888.9" cy="949.2082" fill="#ADD1B2" rx="6.6" ry="6.6" style="stroke:#181818;stroke-width:0.6;"/><path d="M888.2156,949.6863 L888.2156,951.1863 L890.8125,951.1863 L890.8125,950.6332 Q890.8125,950.2676 890.9531,950.1082 Q891.1031,949.9488 891.3281,949.9488 Q891.5531,949.9488 891.6938,950.1082 Q891.8344,950.2676 891.8344,950.6332 L891.8344,952.2082 L887.0344,952.2082 Q886.6594,952.2082 886.5,952.0676 Q886.35,951.927 886.35,951.6926 Q886.35,951.4676 886.5094,951.327 Q886.6687,951.1863 887.0344,951.1863 L887.1938,951.1863 L887.1938,947.1926 L887.0344,947.1926 Q886.6594,947.1926 886.5,947.052 Q886.35,946.9113 886.35,946.677 Q886.35,946.452 886.5,946.3113 Q886.6594,946.1707 887.0344,946.1707 L891.6094,946.1707 L891.6094,947.727 Q891.6094,948.0926 891.4688,948.252 Q891.3375,948.402 891.1031,948.402 Q890.8781,948.402 890.7375,948.252 Q890.5969,948.0926 890.5969,947.727 L890.5969,947.1926 L888.2156,947.1926 L888.2156,948.6645 L889.1062,948.6645 Q889.1062,948.2707 889.1813,948.1582 Q889.3406,947.9145 889.6219,947.9145 Q889.8469,947.9145 889.9875,948.0738 Q890.1281,948.2238 890.1281,948.5895 L890.1281,949.7707 Q890.1281,950.0988 890.0531,950.2113 Q889.8938,950.4457 889.6219,950.4457 Q889.3406,950.4457 889.1813,950.202 Q889.1062,950.0895 889.1062,949.6863 L888.2156,949.6863 Z " fill="#000000"/><ellipse cx="900.3" cy="948.9082" fill="#84BE84" rx="1.8" ry="1.8" style="stroke:#038048;stroke-width:0.6;"/><text fill="#000000" font-family="sans-serif" font-size="8.4" lengthAdjust="spacing" textLength="57.6" x="903.9" y="952.6863">SettingsScreen</text><line style="stroke:#181818;stroke-width:0.3;" x1="880.5" x2="962.7" y1="958.8082" y2="958.8082"/><line style="stroke:#181818;stroke-width:0.3;" x1="880.5" x2="962.7" y1="963.6082" y2="963.6082"/></g><!--class TemplatesScreen--><g id="elem_TemplatesScreen"><rect codeLine="60" fill="#F9E79F" height="28.8" id="TemplatesScreen" rx="1.5" ry="1.5" style="stroke:#181818;stroke-width:0.3;" width="92.4" x="875.4" y="889.8082"/><ellipse cx="884.4" cy="899.4082" fill="#ADD1B2" rx="6.6" ry="6.6" style="stroke:#181818;stroke-width:0.6;"/><path d="M883.7156,899.8863 L883.7156,901.3863 L886.3125,901.3863 L886.3125,900.8332 Q886.3125,900.4676 886.4531,900.3082 Q886.6031,900.1488 886.8281,900.1488 Q887.0531,900.1488 887.1938,900.3082 Q887.3344,900.4676 887.3344,900.8332 L887.3344,902.4082 L882.5344,902.4082 Q882.1594,902.4082 882,902.2676 Q881.85,902.127 881.85,901.8926 Q881.85,901.6676 882.0094,901.527 Q882.1687,901.3863 882.5344,901.3863 L882.6938,901.3863 L882.6938,897.3926 L882.5344,897.3926 Q882.1594,897.3926 882,897.252 Q881.85,897.1113 881.85,896.877 Q881.85,896.652 882,896.5113 Q882.1594,896.3707 882.5344,896.3707 L887.1094,896.3707 L887.1094,897.927 Q887.1094,898.2926 886.9688,898.452 Q886.8375,898.602 886.6031,898.602 Q886.3781,898.602 886.2375,898.452 Q886.0969,898.2926 886.0969,897.927 L886.0969,897.3926 L883.7156,897.3926 L883.7156,898.8645 L884.6062,898.8645 Q884.6062,898.4707 884.6813,898.3582 Q884.8406,898.1145 885.1219,898.1145 Q885.3469,898.1145 885.4875,898.2738 Q885.6281,898.4238 885.6281,898.7895 L885.6281,899.9707 Q885.6281,900.2988 885.5531,900.4113 Q885.3938,900.6457 885.1219,900.6457 Q884.8406,900.6457 884.6813,900.402 Q884.6062,900.2895 884.6062,899.8863 L883.7156,899.8863 Z " fill="#000000"/><ellipse cx="895.8" cy="899.1082" fill="#84BE84" rx="1.8" ry="1.8" style="stroke:#038048;stroke-width:0.6;"/><text fill="#000000" font-family="sans-serif" font-size="8.4" lengthAdjust="spacing" textLength="66.6" x="899.4" y="902.8863">TemplatesScreen</text><line style="stroke:#181818;stroke-width:0.3;" x1="876" x2="967.2" y1="909.0082" y2="909.0082"/><line style="stroke:#181818;stroke-width:0.3;" x1="876" x2="967.2" y1="913.8082" y2="913.8082"/></g><!--class Color--><g id="elem_Color"><rect codeLine="65" fill="#F9E79F" height="28.8" id="Color" rx="1.5" ry="1.5" style="stroke:#181818;stroke-width:0.3;" width="46.2" x="768.3" y="1156.2082"/><ellipse cx="777.3" cy="1165.8082" fill="#ADD1B2" rx="6.6" ry="6.6" style="stroke:#181818;stroke-width:0.6;"/><path d="M776.6156,1166.2863 L776.6156,1167.7863 L779.2125,1167.7863 L779.2125,1167.2332 Q779.2125,1166.8676 779.3531,1166.7082 Q779.5031,1166.5488 779.7281,1166.5488 Q779.9531,1166.5488 780.0938,1166.7082 Q780.2344,1166.8676 780.2344,1167.2332 L780.2344,1168.8082 L775.4344,1168.8082 Q775.0594,1168.8082 774.9,1168.6676 Q774.75,1168.527 774.75,1168.2926 Q774.75,1168.0676 774.9094,1167.927 Q775.0688,1167.7863 775.4344,1167.7863 L775.5938,1167.7863 L775.5938,1163.7926 L775.4344,1163.7926 Q775.0594,1163.7926 774.9,1163.652 Q774.75,1163.5113 774.75,1163.277 Q774.75,1163.052 774.9,1162.9113 Q775.0594,1162.7707 775.4344,1162.7707 L780.0094,1162.7707 L780.0094,1164.327 Q780.0094,1164.6926 779.8688,1164.852 Q779.7375,1165.002 779.5031,1165.002 Q779.2781,1165.002 779.1375,1164.852 Q778.9969,1164.6926 778.9969,1164.327 L778.9969,1163.7926 L776.6156,1163.7926 L776.6156,1165.2645 L777.5063,1165.2645 Q777.5063,1164.8707 777.5813,1164.7582 Q777.7406,1164.5145 778.0219,1164.5145 Q778.2469,1164.5145 778.3875,1164.6738 Q778.5281,1164.8238 778.5281,1165.1895 L778.5281,1166.3707 Q778.5281,1166.6988 778.4531,1166.8113 Q778.2937,1167.0457 778.0219,1167.0457 Q777.7406,1167.0457 777.5813,1166.802 Q777.5063,1166.6895 777.5063,1166.2863 L776.6156,1166.2863 Z " fill="#000000"/><ellipse cx="788.7" cy="1165.5082" fill="#84BE84" rx="1.8" ry="1.8" style="stroke:#038048;stroke-width:0.6;"/><text fill="#000000" font-family="sans-serif" font-size="8.4" lengthAdjust="spacing" textLength="20.4" x="792.3" y="1169.2863">Color</text><line style="stroke:#181818;stroke-width:0.3;" x1="768.9" x2="813.9" y1="1175.4082" y2="1175.4082"/><line style="stroke:#181818;stroke-width:0.3;" x1="768.9" x2="813.9" y1="1180.2082" y2="1180.2082"/></g><!--class Shapes--><g id="elem_Shapes"><rect codeLine="68" fill="#F9E79F" height="28.8" id="Shapes" rx="1.5" ry="1.5" style="stroke:#181818;stroke-width:0.3;" width="54.6" x="764.1" y="1106.4082"/><ellipse cx="773.1" cy="1116.0082" fill="#ADD1B2" rx="6.6" ry="6.6" style="stroke:#181818;stroke-width:0.6;"/><path d="M772.4156,1116.4863 L772.4156,1117.9863 L775.0125,1117.9863 L775.0125,1117.4332 Q775.0125,1117.0676 775.1531,1116.9082 Q775.3031,1116.7488 775.5281,1116.7488 Q775.7531,1116.7488 775.8938,1116.9082 Q776.0344,1117.0676 776.0344,1117.4332 L776.0344,1119.0082 L771.2344,1119.0082 Q770.8594,1119.0082 770.7,1118.8676 Q770.55,1118.727 770.55,1118.4926 Q770.55,1118.2676 770.7094,1118.127 Q770.8688,1117.9863 771.2344,1117.9863 L771.3938,1117.9863 L771.3938,1113.9926 L771.2344,1113.9926 Q770.8594,1113.9926 770.7,1113.852 Q770.55,1113.7113 770.55,1113.477 Q770.55,1113.252 770.7,1113.1113 Q770.8594,1112.9707 771.2344,1112.9707 L775.8094,1112.9707 L775.8094,1114.527 Q775.8094,1114.8926 775.6687,1115.052 Q775.5375,1115.202 775.3031,1115.202 Q775.0781,1115.202 774.9375,1115.052 Q774.7969,1114.8926 774.7969,1114.527 L774.7969,1113.9926 L772.4156,1113.9926 L772.4156,1115.4645 L773.3063,1115.4645 Q773.3063,1115.0707 773.3813,1114.9582 Q773.5406,1114.7145 773.8219,1114.7145 Q774.0469,1114.7145 774.1875,1114.8738 Q774.3281,1115.0238 774.3281,1115.3895 L774.3281,1116.5707 Q774.3281,1116.8988 774.2531,1117.0113 Q774.0938,1117.2457 773.8219,1117.2457 Q773.5406,1117.2457 773.3813,1117.002 Q773.3063,1116.8895 773.3063,1116.4863 L772.4156,1116.4863 Z " fill="#000000"/><ellipse cx="784.5" cy="1115.7082" fill="#84BE84" rx="1.8" ry="1.8" style="stroke:#038048;stroke-width:0.6;"/><text fill="#000000" font-family="sans-serif" font-size="8.4" lengthAdjust="spacing" textLength="28.8" x="788.1" y="1119.4863">Shapes</text><line style="stroke:#181818;stroke-width:0.3;" x1="764.7" x2="818.1" y1="1125.6082" y2="1125.6082"/><line style="stroke:#181818;stroke-width:0.3;" x1="764.7" x2="818.1" y1="1130.4082" y2="1130.4082"/></g><!--class Theme--><g id="elem_Theme"><rect codeLine="71" fill="#F9E79F" height="28.8" id="Theme" rx="1.5" ry="1.5" style="stroke:#181818;stroke-width:0.3;" width="52.2" x="895.5" y="1156.2082"/><ellipse cx="904.5" cy="1165.8082" fill="#ADD1B2" rx="6.6" ry="6.6" style="stroke:#181818;stroke-width:0.6;"/><path d="M903.8156,1166.2863 L903.8156,1167.7863 L906.4125,1167.7863 L906.4125,1167.2332 Q906.4125,1166.8676 906.5531,1166.7082 Q906.7031,1166.5488 906.9281,1166.5488 Q907.1531,1166.5488 907.2937,1166.7082 Q907.4344,1166.8676 907.4344,1167.2332 L907.4344,1168.8082 L902.6344,1168.8082 Q902.2594,1168.8082 902.1,1168.6676 Q901.95,1168.527 901.95,1168.2926 Q901.95,1168.0676 902.1094,1167.927 Q902.2688,1167.7863 902.6344,1167.7863 L902.7937,1167.7863 L902.7937,1163.7926 L902.6344,1163.7926 Q902.2594,1163.7926 902.1,1163.652 Q901.95,1163.5113 901.95,1163.277 Q901.95,1163.052 902.1,1162.9113 Q902.2594,1162.7707 902.6344,1162.7707 L907.2094,1162.7707 L907.2094,1164.327 Q907.2094,1164.6926 907.0688,1164.852 Q906.9375,1165.002 906.7031,1165.002 Q906.4781,1165.002 906.3375,1164.852 Q906.1969,1164.6926 906.1969,1164.327 L906.1969,1163.7926 L903.8156,1163.7926 L903.8156,1165.2645 L904.7063,1165.2645 Q904.7063,1164.8707 904.7813,1164.7582 Q904.9406,1164.5145 905.2219,1164.5145 Q905.4469,1164.5145 905.5875,1164.6738 Q905.7281,1164.8238 905.7281,1165.1895 L905.7281,1166.3707 Q905.7281,1166.6988 905.6531,1166.8113 Q905.4938,1167.0457 905.2219,1167.0457 Q904.9406,1167.0457 904.7813,1166.802 Q904.7063,1166.6895 904.7063,1166.2863 L903.8156,1166.2863 Z " fill="#000000"/><ellipse cx="915.9" cy="1165.5082" fill="#84BE84" rx="1.8" ry="1.8" style="stroke:#038048;stroke-width:0.6;"/><text fill="#000000" font-family="sans-serif" font-size="8.4" lengthAdjust="spacing" textLength="26.4" x="919.5" y="1169.2863">Theme</text><line style="stroke:#181818;stroke-width:0.3;" x1="896.1" x2="947.1" y1="1175.4082" y2="1175.4082"/><line style="stroke:#181818;stroke-width:0.3;" x1="896.1" x2="947.1" y1="1180.2082" y2="1180.2082"/></g><!--class Type--><g id="elem_Type"><rect codeLine="74" fill="#F9E79F" height="28.8" id="Type" rx="1.5" ry="1.5" style="stroke:#181818;stroke-width:0.3;" width="45" x="899.1" y="1106.4082"/><ellipse cx="908.1" cy="1116.0082" fill="#ADD1B2" rx="6.6" ry="6.6" style="stroke:#181818;stroke-width:0.6;"/><path d="M907.4156,1116.4863 L907.4156,1117.9863 L910.0125,1117.9863 L910.0125,1117.4332 Q910.0125,1117.0676 910.1531,1116.9082 Q910.3031,1116.7488 910.5281,1116.7488 Q910.7531,1116.7488 910.8938,1116.9082 Q911.0344,1117.0676 911.0344,1117.4332 L911.0344,1119.0082 L906.2344,1119.0082 Q905.8594,1119.0082 905.7,1118.8676 Q905.55,1118.727 905.55,1118.4926 Q905.55,1118.2676 905.7094,1118.127 Q905.8688,1117.9863 906.2344,1117.9863 L906.3938,1117.9863 L906.3938,1113.9926 L906.2344,1113.9926 Q905.8594,1113.9926 905.7,1113.852 Q905.55,1113.7113 905.55,1113.477 Q905.55,1113.252 905.7,1113.1113 Q905.8594,1112.9707 906.2344,1112.9707 L910.8094,1112.9707 L910.8094,1114.527 Q910.8094,1114.8926 910.6687,1115.052 Q910.5375,1115.202 910.3031,1115.202 Q910.0781,1115.202 909.9375,1115.052 Q909.7969,1114.8926 909.7969,1114.527 L909.7969,1113.9926 L907.4156,1113.9926 L907.4156,1115.4645 L908.3063,1115.4645 Q908.3063,1115.0707 908.3813,1114.9582 Q908.5406,1114.7145 908.8219,1114.7145 Q909.0469,1114.7145 909.1875,1114.8738 Q909.3281,1115.0238 909.3281,1115.3895 L909.3281,1116.5707 Q909.3281,1116.8988 909.2531,1117.0113 Q909.0938,1117.2457 908.8219,1117.2457 Q908.5406,1117.2457 908.3813,1117.002 Q908.3063,1116.8895 908.3063,1116.4863 L907.4156,1116.4863 Z " fill="#000000"/><ellipse cx="919.5" cy="1115.7082" fill="#84BE84" rx="1.8" ry="1.8" style="stroke:#038048;stroke-width:0.6;"/><text fill="#000000" font-family="sans-serif" font-size="8.4" lengthAdjust="spacing" textLength="19.2" x="923.1" y="1119.4863">Type</text><line style="stroke:#181818;stroke-width:0.3;" x1="899.7" x2="943.5" y1="1125.6082" y2="1125.6082"/><line style="stroke:#181818;stroke-width:0.3;" x1="899.7" x2="943.5" y1="1130.4082" y2="1130.4082"/></g><!--class AppModule--><g id="elem_AppModule"><rect codeLine="80" fill="#F9E79F" height="28.8" id="AppModule" rx="1.5" ry="1.5" style="stroke:#181818;stroke-width:0.3;" width="68.4" x="48.6" y="714.0082"/><ellipse cx="57.6" cy="723.6082" fill="#ADD1B2" rx="6.6" ry="6.6" style="stroke:#181818;stroke-width:0.6;"/><path d="M56.9156,724.0863 L56.9156,725.5863 L59.5125,725.5863 L59.5125,725.0332 Q59.5125,724.6676 59.6531,724.5082 Q59.8031,724.3488 60.0281,724.3488 Q60.2531,724.3488 60.3938,724.5082 Q60.5344,724.6676 60.5344,725.0332 L60.5344,726.6082 L55.7344,726.6082 Q55.3594,726.6082 55.2,726.4676 Q55.05,726.327 55.05,726.0926 Q55.05,725.8676 55.2094,725.727 Q55.3688,725.5863 55.7344,725.5863 L55.8938,725.5863 L55.8938,721.5926 L55.7344,721.5926 Q55.3594,721.5926 55.2,721.452 Q55.05,721.3113 55.05,721.077 Q55.05,720.852 55.2,720.7113 Q55.3594,720.5707 55.7344,720.5707 L60.3094,720.5707 L60.3094,722.127 Q60.3094,722.4926 60.1687,722.652 Q60.0375,722.802 59.8031,722.802 Q59.5781,722.802 59.4375,722.652 Q59.2969,722.4926 59.2969,722.127 L59.2969,721.5926 L56.9156,721.5926 L56.9156,723.0645 L57.8063,723.0645 Q57.8063,722.6707 57.8812,722.5582 Q58.0406,722.3145 58.3219,722.3145 Q58.5469,722.3145 58.6875,722.4738 Q58.8281,722.6238 58.8281,722.9895 L58.8281,724.1707 Q58.8281,724.4988 58.7531,724.6113 Q58.5938,724.8457 58.3219,724.8457 Q58.0406,724.8457 57.8812,724.602 Q57.8063,724.4895 57.8063,724.0863 L56.9156,724.0863 Z " fill="#000000"/><ellipse cx="69" cy="723.3082" fill="#84BE84" rx="1.8" ry="1.8" style="stroke:#038048;stroke-width:0.6;"/><text fill="#000000" font-family="sans-serif" font-size="8.4" lengthAdjust="spacing" textLength="42.6" x="72.6" y="727.0863">AppModule</text><line style="stroke:#181818;stroke-width:0.3;" x1="49.2" x2="116.4" y1="733.2082" y2="733.2082"/><line style="stroke:#181818;stroke-width:0.3;" x1="49.2" x2="116.4" y1="738.0082" y2="738.0082"/></g><!--class DataModule--><g id="elem_DataModule"><rect codeLine="82" fill="#F9E79F" height="28.8" id="DataModule" rx="1.5" ry="1.5" style="stroke:#181818;stroke-width:0.3;" width="71.4" x="47.1" y="664.2082"/><ellipse cx="56.1" cy="673.8082" fill="#ADD1B2" rx="6.6" ry="6.6" style="stroke:#181818;stroke-width:0.6;"/><path d="M55.4156,674.2863 L55.4156,675.7863 L58.0125,675.7863 L58.0125,675.2332 Q58.0125,674.8676 58.1531,674.7082 Q58.3031,674.5488 58.5281,674.5488 Q58.7531,674.5488 58.8938,674.7082 Q59.0344,674.8676 59.0344,675.2332 L59.0344,676.8082 L54.2344,676.8082 Q53.8594,676.8082 53.7,676.6676 Q53.55,676.527 53.55,676.2926 Q53.55,676.0676 53.7094,675.927 Q53.8688,675.7863 54.2344,675.7863 L54.3938,675.7863 L54.3938,671.7926 L54.2344,671.7926 Q53.8594,671.7926 53.7,671.652 Q53.55,671.5113 53.55,671.277 Q53.55,671.052 53.7,670.9113 Q53.8594,670.7707 54.2344,670.7707 L58.8094,670.7707 L58.8094,672.327 Q58.8094,672.6926 58.6687,672.852 Q58.5375,673.002 58.3031,673.002 Q58.0781,673.002 57.9375,672.852 Q57.7969,672.6926 57.7969,672.327 L57.7969,671.7926 L55.4156,671.7926 L55.4156,673.2645 L56.3063,673.2645 Q56.3063,672.8707 56.3813,672.7582 Q56.5406,672.5145 56.8219,672.5145 Q57.0469,672.5145 57.1875,672.6738 Q57.3281,672.8238 57.3281,673.1895 L57.3281,674.3707 Q57.3281,674.6988 57.2531,674.8113 Q57.0938,675.0457 56.8219,675.0457 Q56.5406,675.0457 56.3813,674.802 Q56.3063,674.6895 56.3063,674.2863 L55.4156,674.2863 Z " fill="#000000"/><ellipse cx="67.5" cy="673.5082" fill="#84BE84" rx="1.8" ry="1.8" style="stroke:#038048;stroke-width:0.6;"/><text fill="#000000" font-family="sans-serif" font-size="8.4" lengthAdjust="spacing" textLength="45.6" x="71.1" y="677.2863">DataModule</text><line style="stroke:#181818;stroke-width:0.3;" x1="47.7" x2="117.9" y1="683.4082" y2="683.4082"/><line style="stroke:#181818;stroke-width:0.3;" x1="47.7" x2="117.9" y1="688.2082" y2="688.2082"/></g><!--class DomainModule--><g id="elem_DomainModule"><rect codeLine="84" fill="#F9E79F" height="28.8" id="DomainModule" rx="1.5" ry="1.5" style="stroke:#181818;stroke-width:0.3;" width="82.2" x="306" y="714.0082"/><ellipse cx="315" cy="723.6082" fill="#ADD1B2" rx="6.6" ry="6.6" style="stroke:#181818;stroke-width:0.6;"/><path d="M314.3156,724.0863 L314.3156,725.5863 L316.9125,725.5863 L316.9125,725.0332 Q316.9125,724.6676 317.0531,724.5082 Q317.2031,724.3488 317.4281,724.3488 Q317.6531,724.3488 317.7938,724.5082 Q317.9344,724.6676 317.9344,725.0332 L317.9344,726.6082 L313.1344,726.6082 Q312.7594,726.6082 312.6,726.4676 Q312.45,726.327 312.45,726.0926 Q312.45,725.8676 312.6094,725.727 Q312.7688,725.5863 313.1344,725.5863 L313.2938,725.5863 L313.2938,721.5926 L313.1344,721.5926 Q312.7594,721.5926 312.6,721.452 Q312.45,721.3113 312.45,721.077 Q312.45,720.852 312.6,720.7113 Q312.7594,720.5707 313.1344,720.5707 L317.7094,720.5707 L317.7094,722.127 Q317.7094,722.4926 317.5687,722.652 Q317.4375,722.802 317.2031,722.802 Q316.9781,722.802 316.8375,722.652 Q316.6969,722.4926 316.6969,722.127 L316.6969,721.5926 L314.3156,721.5926 L314.3156,723.0645 L315.2063,723.0645 Q315.2063,722.6707 315.2813,722.5582 Q315.4406,722.3145 315.7219,722.3145 Q315.9469,722.3145 316.0875,722.4738 Q316.2281,722.6238 316.2281,722.9895 L316.2281,724.1707 Q316.2281,724.4988 316.1531,724.6113 Q315.9938,724.8457 315.7219,724.8457 Q315.4406,724.8457 315.2813,724.602 Q315.2063,724.4895 315.2063,724.0863 L314.3156,724.0863 Z " fill="#000000"/><ellipse cx="326.4" cy="723.3082" fill="#84BE84" rx="1.8" ry="1.8" style="stroke:#038048;stroke-width:0.6;"/><text fill="#000000" font-family="sans-serif" font-size="8.4" lengthAdjust="spacing" textLength="56.4" x="330" y="727.0863">DomainModule</text><line style="stroke:#181818;stroke-width:0.3;" x1="306.6" x2="387.6" y1="733.2082" y2="733.2082"/><line style="stroke:#181818;stroke-width:0.3;" x1="306.6" x2="387.6" y1="738.0082" y2="738.0082"/></g><!--class LazyScrollbar--><g id="elem_LazyScrollbar"><rect codeLine="90" fill="#F9E79F" height="28.8" id="LazyScrollbar" rx="1.5" ry="1.5" style="stroke:#181818;stroke-width:0.3;" width="76.8" x="44.4" y="1180.8082"/><ellipse cx="53.4" cy="1190.4082" fill="#ADD1B2" rx="6.6" ry="6.6" style="stroke:#181818;stroke-width:0.6;"/><path d="M52.7156,1190.8863 L52.7156,1192.3863 L55.3125,1192.3863 L55.3125,1191.8332 Q55.3125,1191.4676 55.4531,1191.3082 Q55.6031,1191.1488 55.8281,1191.1488 Q56.0531,1191.1488 56.1938,1191.3082 Q56.3344,1191.4676 56.3344,1191.8332 L56.3344,1193.4082 L51.5344,1193.4082 Q51.1594,1193.4082 51,1193.2676 Q50.85,1193.127 50.85,1192.8926 Q50.85,1192.6676 51.0094,1192.527 Q51.1687,1192.3863 51.5344,1192.3863 L51.6938,1192.3863 L51.6938,1188.3926 L51.5344,1188.3926 Q51.1594,1188.3926 51,1188.252 Q50.85,1188.1113 50.85,1187.877 Q50.85,1187.652 51,1187.5113 Q51.1594,1187.3707 51.5344,1187.3707 L56.1094,1187.3707 L56.1094,1188.927 Q56.1094,1189.2926 55.9688,1189.452 Q55.8375,1189.602 55.6031,1189.602 Q55.3781,1189.602 55.2375,1189.452 Q55.0969,1189.2926 55.0969,1188.927 L55.0969,1188.3926 L52.7156,1188.3926 L52.7156,1189.8645 L53.6062,1189.8645 Q53.6062,1189.4707 53.6813,1189.3582 Q53.8406,1189.1145 54.1219,1189.1145 Q54.3469,1189.1145 54.4875,1189.2738 Q54.6281,1189.4238 54.6281,1189.7895 L54.6281,1190.9707 Q54.6281,1191.2988 54.5531,1191.4113 Q54.3938,1191.6457 54.1219,1191.6457 Q53.8406,1191.6457 53.6813,1191.402 Q53.6062,1191.2895 53.6062,1190.8863 L52.7156,1190.8863 Z " fill="#000000"/><ellipse cx="64.8" cy="1190.1082" fill="#84BE84" rx="1.8" ry="1.8" style="stroke:#038048;stroke-width:0.6;"/><text fill="#000000" font-family="sans-serif" font-size="8.4" lengthAdjust="spacing" textLength="51" x="68.4" y="1193.8863">LazyScrollbar</text><line style="stroke:#181818;stroke-width:0.3;" x1="45" x2="120.6" y1="1200.0082" y2="1200.0082"/><line style="stroke:#181818;stroke-width:0.3;" x1="45" x2="120.6" y1="1204.8082" y2="1204.8082"/></g><!--class SupportHtmlTags--><g id="elem_SupportHtmlTags"><rect codeLine="93" fill="#F9E79F" height="28.8" id="SupportHtmlTags" rx="1.5" ry="1.5" style="stroke:#181818;stroke-width:0.3;" width="91.2" x="37.2" y="1230.6082"/><ellipse cx="46.2" cy="1240.2082" fill="#ADD1B2" rx="6.6" ry="6.6" style="stroke:#181818;stroke-width:0.6;"/><path d="M45.5156,1240.6863 L45.5156,1242.1863 L48.1125,1242.1863 L48.1125,1241.6332 Q48.1125,1241.2676 48.2531,1241.1082 Q48.4031,1240.9488 48.6281,1240.9488 Q48.8531,1240.9488 48.9938,1241.1082 Q49.1344,1241.2676 49.1344,1241.6332 L49.1344,1243.2082 L44.3344,1243.2082 Q43.9594,1243.2082 43.8,1243.0676 Q43.65,1242.927 43.65,1242.6926 Q43.65,1242.4676 43.8094,1242.327 Q43.9688,1242.1863 44.3344,1242.1863 L44.4938,1242.1863 L44.4938,1238.1926 L44.3344,1238.1926 Q43.9594,1238.1926 43.8,1238.052 Q43.65,1237.9113 43.65,1237.677 Q43.65,1237.452 43.8,1237.3113 Q43.9594,1237.1707 44.3344,1237.1707 L48.9094,1237.1707 L48.9094,1238.727 Q48.9094,1239.0926 48.7688,1239.252 Q48.6375,1239.402 48.4031,1239.402 Q48.1781,1239.402 48.0375,1239.252 Q47.8969,1239.0926 47.8969,1238.727 L47.8969,1238.1926 L45.5156,1238.1926 L45.5156,1239.6645 L46.4063,1239.6645 Q46.4063,1239.2707 46.4812,1239.1582 Q46.6406,1238.9145 46.9219,1238.9145 Q47.1469,1238.9145 47.2875,1239.0738 Q47.4281,1239.2238 47.4281,1239.5895 L47.4281,1240.7707 Q47.4281,1241.0988 47.3531,1241.2113 Q47.1938,1241.4457 46.9219,1241.4457 Q46.6406,1241.4457 46.4812,1241.202 Q46.4063,1241.0895 46.4063,1240.6863 L45.5156,1240.6863 Z " fill="#000000"/><ellipse cx="57.6" cy="1239.9082" fill="#84BE84" rx="1.8" ry="1.8" style="stroke:#038048;stroke-width:0.6;"/><text fill="#000000" font-family="sans-serif" font-size="8.4" lengthAdjust="spacing" textLength="65.4" x="61.2" y="1243.6863">SupportHtmlTags</text><line style="stroke:#181818;stroke-width:0.3;" x1="37.8" x2="127.8" y1="1249.8082" y2="1249.8082"/><line style="stroke:#181818;stroke-width:0.3;" x1="37.8" x2="127.8" y1="1254.6082" y2="1254.6082"/></g><!--class Controller--><g id="elem_Controller"><rect codeLine="119" fill="#F9E79F" height="69.8672" id="Controller" rx="1.5" ry="1.5" style="stroke:#181818;stroke-width:0.3;" width="104.4" x="565.2" y="418.8082"/><ellipse cx="574.2" cy="432.1828" fill="#ADD1B2" rx="6.6" ry="6.6" style="stroke:#181818;stroke-width:0.6;"/><path d="M575.8594,429.7078 Q575.9531,429.5766 576.0656,429.5109 Q576.1781,429.4453 576.3094,429.4453 Q576.5344,429.4453 576.675,429.6047 Q576.8156,429.7547 576.8156,430.1203 L576.8156,430.9922 Q576.8156,431.3578 576.675,431.5172 Q576.5344,431.6766 576.3094,431.6766 Q576.1031,431.6766 575.9812,431.5547 Q575.8594,431.4422 575.7937,431.1328 Q575.7656,430.9172 575.6531,430.8047 Q575.4563,430.5797 575.0906,430.4484 Q574.725,430.3172 574.35,430.3172 Q573.8906,430.3172 573.5063,430.5141 Q573.1313,430.7109 572.8313,431.1609 Q572.5406,431.6109 572.5406,432.2297 L572.5406,432.8859 Q572.5406,433.6266 573.075,434.1234 Q573.6094,434.6109 574.5656,434.6109 Q575.1281,434.6109 575.5219,434.4609 Q575.7563,434.3672 576.0094,434.1047 Q576.1687,433.9453 576.2531,433.8984 Q576.3469,433.8516 576.4688,433.8516 Q576.6656,433.8516 576.8156,434.0109 Q576.975,434.1609 576.975,434.3672 Q576.975,434.5734 576.7688,434.8172 Q576.4688,435.1641 575.9906,435.3609 Q575.3438,435.6328 574.5656,435.6328 Q573.6563,435.6328 572.9344,435.2578 Q572.3438,434.9578 571.9313,434.3203 Q571.5188,433.6734 571.5188,432.9047 L571.5188,432.2109 Q571.5188,431.4141 571.8844,430.7297 Q572.2594,430.0359 572.9156,429.6703 Q573.5719,429.2953 574.3125,429.2953 Q574.7531,429.2953 575.1375,429.3984 Q575.5313,429.4922 575.8594,429.7078 Z " fill="#000000"/><text fill="#000000" font-family="sans-serif" font-size="7.2" font-style="italic" lengthAdjust="spacing" textLength="87.6" x="581.4" y="429.5777">&#171;Creator, Loader, Deleter&#187;</text><ellipse cx="606.3" cy="436.6711" fill="#84BE84" rx="1.8" ry="1.8" style="stroke:#038048;stroke-width:0.6;"/><text fill="#000000" font-family="sans-serif" font-size="8.4" lengthAdjust="spacing" textLength="37.2" x="609.9" y="440.4492">Controller</text><line style="stroke:#181818;stroke-width:0.3;" x1="565.8" x2="669" y1="445.5574" y2="445.5574"/><ellipse cx="571.8" cy="454.4437" fill="none" rx="1.8" ry="1.8" style="stroke:#038048;stroke-width:0.6;"/><text fill="#000000" font-family="sans-serif" font-size="8.4" lengthAdjust="spacing" textLength="63" x="577.2" y="457.0219">creator : Creator</text><ellipse cx="571.8" cy="465.6164" fill="none" rx="1.8" ry="1.8" style="stroke:#038048;stroke-width:0.6;"/><text fill="#000000" font-family="sans-serif" font-size="8.4" lengthAdjust="spacing" textLength="58.2" x="577.2" y="468.1945">loader : Loader</text><ellipse cx="571.8" cy="476.7891" fill="none" rx="1.8" ry="1.8" style="stroke:#038048;stroke-width:0.6;"/><text fill="#000000" font-family="sans-serif" font-size="8.4" lengthAdjust="spacing" textLength="61.2" x="577.2" y="479.3672">deleter : Deleter</text><line style="stroke:#181818;stroke-width:0.3;" x1="565.8" x2="669" y1="483.8754" y2="483.8754"/></g><!--class MaiViewModel--><g id="elem_MaiViewModel"><rect codeLine="125" fill="#F9E79F" height="309.7711" id="MaiViewModel" rx="1.5" ry="1.5" style="stroke:#181818;stroke-width:0.3;" width="351" x="171.6" y="298.8082"/><ellipse cx="314.55" cy="308.4082" fill="#ADD1B2" rx="6.6" ry="6.6" style="stroke:#181818;stroke-width:0.6;"/><path d="M316.2094,305.9332 Q316.3031,305.802 316.4156,305.7363 Q316.5281,305.6707 316.6594,305.6707 Q316.8844,305.6707 317.025,305.8301 Q317.1656,305.9801 317.1656,306.3457 L317.1656,307.2176 Q317.1656,307.5832 317.025,307.7426 Q316.8844,307.902 316.6594,307.902 Q316.4531,307.902 316.3313,307.7801 Q316.2094,307.6676 316.1438,307.3582 Q316.1156,307.1426 316.0031,307.0301 Q315.8063,306.8051 315.4406,306.6738 Q315.075,306.5426 314.7,306.5426 Q314.2406,306.5426 313.8563,306.7395 Q313.4813,306.9363 313.1813,307.3863 Q312.8906,307.8363 312.8906,308.4551 L312.8906,309.1113 Q312.8906,309.852 313.425,310.3488 Q313.9594,310.8363 314.9156,310.8363 Q315.4781,310.8363 315.8719,310.6863 Q316.1063,310.5926 316.3594,310.3301 Q316.5188,310.1707 316.6031,310.1238 Q316.6969,310.077 316.8187,310.077 Q317.0156,310.077 317.1656,310.2363 Q317.325,310.3863 317.325,310.5926 Q317.325,310.7988 317.1188,311.0426 Q316.8187,311.3895 316.3406,311.5863 Q315.6937,311.8582 314.9156,311.8582 Q314.0062,311.8582 313.2844,311.4832 Q312.6937,311.1832 312.2813,310.5457 Q311.8688,309.8988 311.8688,309.1301 L311.8688,308.4363 Q311.8688,307.6395 312.2344,306.9551 Q312.6094,306.2613 313.2656,305.8957 Q313.9219,305.5207 314.6625,305.5207 Q315.1031,305.5207 315.4875,305.6238 Q315.8812,305.7176 316.2094,305.9332 Z " fill="#000000"/><ellipse cx="329.85" cy="308.1082" fill="#84BE84" rx="1.8" ry="1.8" style="stroke:#038048;stroke-width:0.6;"/><text fill="#000000" font-family="sans-serif" font-size="8.4" lengthAdjust="spacing" textLength="53.4" x="333.45" y="311.8863">MaiViewModel</text><line style="stroke:#181818;stroke-width:0.3;" x1="172.2" x2="522" y1="318.0082" y2="318.0082"/><rect fill="none" height="3.6" style="stroke:#C82930;stroke-width:0.6;" width="3.6" x="176.4" y="325.0945"/><text fill="#000000" font-family="sans-serif" font-size="8.4" lengthAdjust="spacing" textLength="265.8" x="183.6" y="329.4727">noteController : Controller&lt;NotesCreator, NotesLoader, NotesDeleter&gt;</text><rect fill="none" height="3.6" style="stroke:#C82930;stroke-width:0.6;" width="3.6" x="176.4" y="336.2672"/><text fill="#000000" font-family="sans-serif" font-size="8.4" lengthAdjust="spacing" textLength="335.4" x="183.6" y="340.6453">templateController : Controller&lt;TemplatesCreator, TemplatesLoader, TemplatesDeleter&gt;</text><line style="stroke:#181818;stroke-width:0.6;" x1="172.2" x2="522" y1="345.1535" y2="345.1535"/><rect fill="none" height="3.6" style="stroke:#C82930;stroke-width:0.6;" width="3.6" x="176.4" y="352.2398"/><text fill="#000000" font-family="sans-serif" font-size="8.4" lengthAdjust="spacing" textLength="172.8" x="183.6" y="356.618">_uiStateFlow : MutableStateFlow&lt;MaiUiState&gt;</text><ellipse cx="178.2" cy="365.2125" fill="none" rx="1.8" ry="1.8" style="stroke:#038048;stroke-width:0.6;"/><text fill="#000000" font-family="sans-serif" font-size="8.4" lengthAdjust="spacing" textLength="138" x="183.6" y="367.7906">uiStateFlow : StateFlow&lt;MaiUiState&gt;</text><line style="stroke:#181818;stroke-width:0.6;" x1="172.2" x2="522" y1="372.2988" y2="372.2988"/><rect fill="none" height="3.6" style="stroke:#C82930;stroke-width:0.6;" width="3.6" x="176.4" y="379.3852"/><text fill="#000000" font-family="sans-serif" font-size="8.4" lengthAdjust="spacing" textLength="226.2" x="183.6" y="383.7633">_creationNoteState : MutableStateFlow&lt;CreationNoteState&gt;</text><ellipse cx="178.2" cy="392.3578" fill="none" rx="1.8" ry="1.8" style="stroke:#038048;stroke-width:0.6;"/><text fill="#000000" font-family="sans-serif" font-size="8.4" lengthAdjust="spacing" textLength="191.4" x="183.6" y="394.9359">creationNoteState : StateFlow&lt;CreationNoteState&gt;</text><line style="stroke:#181818;stroke-width:0.6;" x1="172.2" x2="522" y1="399.4441" y2="399.4441"/><text fill="#000000" font-family="sans-serif" font-size="8.4" lengthAdjust="spacing" textLength="231" x="175.2" y="410.9086">_maiResultNoteStateFlow : MutableStateFlow&lt;MaiNoteState&gt;</text><text fill="#000000" font-family="sans-serif" font-size="8.4" lengthAdjust="spacing" textLength="196.2" x="175.2" y="422.0813">maiResultNoteStateFlow : StateFlow&lt;MaiNoteState&gt;</text><line style="stroke:#181818;stroke-width:0.6;" x1="172.2" x2="522" y1="426.5895" y2="426.5895"/><line style="stroke:#181818;stroke-width:0.6;" x1="172.2" x2="522" y1="427.7895" y2="427.7895"/><ellipse cx="178.2" cy="435.4758" fill="#84BE84" rx="1.8" ry="1.8" style="stroke:#038048;stroke-width:0.6;"/><text fill="#000000" font-family="sans-serif" font-size="8.4" lengthAdjust="spacing" textLength="100.8" x="183.6" y="438.0539">createTemplate(Template)</text><rect fill="#F24D5C" height="3.6" style="stroke:#C82930;stroke-width:0.6;" width="3.6" x="176.4" y="444.8484"/><text fill="#000000" font-family="sans-serif" font-size="8.4" lengthAdjust="spacing" textLength="72" x="183.6" y="449.2266">updateTemplates()</text><rect fill="#F24D5C" height="3.6" style="stroke:#C82930;stroke-width:0.6;" width="3.6" x="176.4" y="456.0211"/><text fill="#000000" font-family="sans-serif" font-size="8.4" lengthAdjust="spacing" textLength="54" x="183.6" y="460.3992">updateNotes()</text><rect fill="#F24D5C" height="3.6" style="stroke:#C82930;stroke-width:0.6;" width="3.6" x="176.4" y="467.1937"/><text fill="#000000" font-family="sans-serif" font-size="8.4" lengthAdjust="spacing" textLength="50.4" x="183.6" y="471.5719">updateData()</text><ellipse cx="178.2" cy="480.1664" fill="#84BE84" rx="1.8" ry="1.8" style="stroke:#038048;stroke-width:0.6;"/><text fill="#000000" font-family="sans-serif" font-size="8.4" lengthAdjust="spacing" textLength="64.2" x="183.6" y="482.7445">deleteNote(Note)</text><ellipse cx="178.2" cy="491.3391" fill="#84BE84" rx="1.8" ry="1.8" style="stroke:#038048;stroke-width:0.6;"/><text fill="#000000" font-family="sans-serif" font-size="8.4" lengthAdjust="spacing" textLength="100.2" x="183.6" y="493.9172">deleteTemplate(Template)</text><ellipse cx="178.2" cy="502.5117" fill="#84BE84" rx="1.8" ry="1.8" style="stroke:#038048;stroke-width:0.6;"/><text fill="#000000" font-family="sans-serif" font-size="8.4" lengthAdjust="spacing" textLength="60" x="183.6" y="505.0898">deleteAllNotes()</text><ellipse cx="178.2" cy="513.6844" fill="#84BE84" rx="1.8" ry="1.8" style="stroke:#038048;stroke-width:0.6;"/><text fill="#000000" font-family="sans-serif" font-size="8.4" lengthAdjust="spacing" textLength="97.8" x="183.6" y="516.2625">deleteUnusedTemplates()</text><ellipse cx="178.2" cy="524.857" fill="#84BE84" rx="1.8" ry="1.8" style="stroke:#038048;stroke-width:0.6;"/><text fill="#000000" font-family="sans-serif" font-size="8.4" lengthAdjust="spacing" textLength="51.6" x="183.6" y="527.4352">clearAllData()</text><line style="stroke:#181818;stroke-width:0.6;" x1="172.2" x2="522" y1="531.9434" y2="531.9434"/><ellipse cx="178.2" cy="540.8297" fill="#84BE84" rx="1.8" ry="1.8" style="stroke:#038048;stroke-width:0.6;"/><text fill="#000000" font-family="sans-serif" font-size="8.4" lengthAdjust="spacing" textLength="129" x="183.6" y="543.4078">postNoteFromCreationNoteState()</text><ellipse cx="178.2" cy="552.0023" fill="#84BE84" rx="1.8" ry="1.8" style="stroke:#038048;stroke-width:0.6;"/><text fill="#000000" font-family="sans-serif" font-size="8.4" lengthAdjust="spacing" textLength="227.4" x="183.6" y="554.5805">createNewCreationNoteState(String, Template, List&lt;String&gt;)</text><ellipse cx="178.2" cy="563.175" fill="#84BE84" rx="1.8" ry="1.8" style="stroke:#038048;stroke-width:0.6;"/><text fill="#000000" font-family="sans-serif" font-size="8.4" lengthAdjust="spacing" textLength="152.4" x="183.6" y="565.7531">updateMatrixByIndex(Int, Int, Int, Double)</text><ellipse cx="178.2" cy="574.3477" fill="#84BE84" rx="1.8" ry="1.8" style="stroke:#038048;stroke-width:0.6;"/><text fill="#000000" font-family="sans-serif" font-size="8.4" lengthAdjust="spacing" textLength="109.8" x="183.6" y="576.9258">swapValuesMatrix(Int, Int, Int)</text><ellipse cx="178.2" cy="585.5203" fill="#84BE84" rx="1.8" ry="1.8" style="stroke:#038048;stroke-width:0.6;"/><text fill="#000000" font-family="sans-serif" font-size="8.4" lengthAdjust="spacing" textLength="93" x="183.6" y="588.0984">dropCreationNoteState()</text><line style="stroke:#181818;stroke-width:0.6;" x1="172.2" x2="522" y1="592.6066" y2="592.6066"/><ellipse cx="178.2" cy="601.493" fill="#84BE84" rx="1.8" ry="1.8" style="stroke:#038048;stroke-width:0.6;"/><text fill="#000000" font-family="sans-serif" font-size="8.4" lengthAdjust="spacing" textLength="129.6" x="183.6" y="604.0711">setNewCurrentMaiNoteState(Note)</text></g><!--class CreationNoteState--><g id="elem_CreationNoteState"><rect codeLine="99" fill="#F9E79F" height="73.4906" id="CreationNoteState" rx="1.5" ry="1.5" style="stroke:#181818;stroke-width:0.3;" width="127.8" x="283.2" y="183.6082"/><ellipse cx="306.78" cy="193.2082" fill="#ADD1B2" rx="6.6" ry="6.6" style="stroke:#181818;stroke-width:0.6;"/><path d="M308.4394,190.7332 Q308.5331,190.602 308.6456,190.5363 Q308.7581,190.4707 308.8894,190.4707 Q309.1144,190.4707 309.255,190.6301 Q309.3956,190.7801 309.3956,191.1457 L309.3956,192.0176 Q309.3956,192.3832 309.255,192.5426 Q309.1144,192.702 308.8894,192.702 Q308.6831,192.702 308.5613,192.5801 Q308.4394,192.4676 308.3738,192.1582 Q308.3456,191.9426 308.2331,191.8301 Q308.0362,191.6051 307.6706,191.4738 Q307.305,191.3426 306.93,191.3426 Q306.4706,191.3426 306.0863,191.5395 Q305.7113,191.7363 305.4113,192.1863 Q305.1206,192.6363 305.1206,193.2551 L305.1206,193.9113 Q305.1206,194.652 305.655,195.1488 Q306.1894,195.6363 307.1456,195.6363 Q307.7081,195.6363 308.1019,195.4863 Q308.3362,195.3926 308.5894,195.1301 Q308.7488,194.9707 308.8331,194.9238 Q308.9269,194.877 309.0488,194.877 Q309.2456,194.877 309.3956,195.0363 Q309.555,195.1863 309.555,195.3926 Q309.555,195.5988 309.3487,195.8426 Q309.0488,196.1895 308.5706,196.3863 Q307.9238,196.6582 307.1456,196.6582 Q306.2363,196.6582 305.5144,196.2832 Q304.9238,195.9832 304.5113,195.3457 Q304.0988,194.6988 304.0988,193.9301 L304.0988,193.2363 Q304.0988,192.4395 304.4644,191.7551 Q304.8394,191.0613 305.4956,190.6957 Q306.1519,190.3207 306.8925,190.3207 Q307.3331,190.3207 307.7175,190.4238 Q308.1113,190.5176 308.4394,190.7332 Z " fill="#000000"/><ellipse cx="321.42" cy="192.9082" fill="#84BE84" rx="1.8" ry="1.8" style="stroke:#038048;stroke-width:0.6;"/><text fill="#000000" font-family="sans-serif" font-size="8.4" lengthAdjust="spacing" textLength="69.6" x="325.02" y="196.6863">CreationNoteState</text><line style="stroke:#181818;stroke-width:0.3;" x1="283.8" x2="410.4" y1="202.8082" y2="202.8082"/><ellipse cx="289.8" cy="211.6945" fill="none" rx="1.8" ry="1.8" style="stroke:#038048;stroke-width:0.6;"/><text fill="#000000" font-family="sans-serif" font-size="8.4" lengthAdjust="spacing" textLength="67.8" x="295.2" y="214.2727">noteName : String</text><ellipse cx="289.8" cy="222.8672" fill="none" rx="1.8" ry="1.8" style="stroke:#038048;stroke-width:0.6;"/><text fill="#000000" font-family="sans-serif" font-size="8.4" lengthAdjust="spacing" textLength="75" x="295.2" y="225.4453">template : Template</text><ellipse cx="289.8" cy="234.0398" fill="none" rx="1.8" ry="1.8" style="stroke:#038048;stroke-width:0.6;"/><text fill="#000000" font-family="sans-serif" font-size="8.4" lengthAdjust="spacing" textLength="96" x="295.2" y="236.618">alternatives : List&lt;String&gt;</text><ellipse cx="289.8" cy="245.2125" fill="none" rx="1.8" ry="1.8" style="stroke:#038048;stroke-width:0.6;"/><text fill="#000000" font-family="sans-serif" font-size="8.4" lengthAdjust="spacing" textLength="112.2" x="295.2" y="247.7906">relationMatrices : List&lt;Matrix&gt;</text><line style="stroke:#181818;stroke-width:0.3;" x1="283.8" x2="410.4" y1="252.2988" y2="252.2988"/></g><!--class MaiNoteState--><g id="elem_MaiNoteState"><rect codeLine="106" fill="#F9E79F" height="73.4906" id="MaiNoteState" rx="1.5" ry="1.5" style="stroke:#181818;stroke-width:0.3;" width="188.4" x="252.9" y="89.4082"/><ellipse cx="316.05" cy="99.0082" fill="#ADD1B2" rx="6.6" ry="6.6" style="stroke:#181818;stroke-width:0.6;"/><path d="M317.7094,96.5332 Q317.8031,96.402 317.9156,96.3363 Q318.0281,96.2707 318.1594,96.2707 Q318.3844,96.2707 318.525,96.4301 Q318.6656,96.5801 318.6656,96.9457 L318.6656,97.8176 Q318.6656,98.1832 318.525,98.3426 Q318.3844,98.502 318.1594,98.502 Q317.9531,98.502 317.8313,98.3801 Q317.7094,98.2676 317.6438,97.9582 Q317.6156,97.7426 317.5031,97.6301 Q317.3063,97.4051 316.9406,97.2738 Q316.575,97.1426 316.2,97.1426 Q315.7406,97.1426 315.3563,97.3395 Q314.9813,97.5363 314.6813,97.9863 Q314.3906,98.4363 314.3906,99.0551 L314.3906,99.7113 Q314.3906,100.452 314.925,100.9488 Q315.4594,101.4363 316.4156,101.4363 Q316.9781,101.4363 317.3719,101.2863 Q317.6063,101.1926 317.8594,100.9301 Q318.0188,100.7707 318.1031,100.7238 Q318.1969,100.677 318.3187,100.677 Q318.5156,100.677 318.6656,100.8363 Q318.825,100.9863 318.825,101.1926 Q318.825,101.3988 318.6188,101.6426 Q318.3187,101.9895 317.8406,102.1863 Q317.1937,102.4582 316.4156,102.4582 Q315.5062,102.4582 314.7844,102.0832 Q314.1937,101.7832 313.7813,101.1457 Q313.3688,100.4988 313.3688,99.7301 L313.3688,99.0363 Q313.3688,98.2395 313.7344,97.5551 Q314.1094,96.8613 314.7656,96.4957 Q315.4219,96.1207 316.1625,96.1207 Q316.6031,96.1207 316.9875,96.2238 Q317.3812,96.3176 317.7094,96.5332 Z " fill="#000000"/><ellipse cx="331.35" cy="98.7082" fill="#84BE84" rx="1.8" ry="1.8" style="stroke:#038048;stroke-width:0.6;"/><text fill="#000000" font-family="sans-serif" font-size="8.4" lengthAdjust="spacing" textLength="50.4" x="334.95" y="102.4863">MaiNoteState</text><line style="stroke:#181818;stroke-width:0.3;" x1="253.5" x2="440.7" y1="108.6082" y2="108.6082"/><ellipse cx="259.5" cy="117.4945" fill="none" rx="1.8" ry="1.8" style="stroke:#038048;stroke-width:0.6;"/><text fill="#000000" font-family="sans-serif" font-size="8.4" lengthAdjust="spacing" textLength="132" x="264.9" y="120.0727">inputParameters : InputParameters</text><ellipse cx="259.5" cy="128.6672" fill="none" rx="1.8" ry="1.8" style="stroke:#038048;stroke-width:0.6;"/><text fill="#000000" font-family="sans-serif" font-size="8.4" lengthAdjust="spacing" textLength="102.6" x="264.9" y="131.2453">finalWeights : FinalWeights</text><ellipse cx="259.5" cy="139.8398" fill="none" rx="1.8" ry="1.8" style="stroke:#038048;stroke-width:0.6;"/><text fill="#000000" font-family="sans-serif" font-size="8.4" lengthAdjust="spacing" textLength="100.2" x="264.9" y="142.418">crOfCriteriaMatrix : Double</text><ellipse cx="259.5" cy="151.0125" fill="none" rx="1.8" ry="1.8" style="stroke:#038048;stroke-width:0.6;"/><text fill="#000000" font-family="sans-serif" font-size="8.4" lengthAdjust="spacing" textLength="172.8" x="264.9" y="153.5906">crsOfEachAlternativesMatrices : List&lt;Double&gt;</text><line style="stroke:#181818;stroke-width:0.3;" x1="253.5" x2="440.7" y1="158.0988" y2="158.0988"/></g><!--class MaiUiState--><g id="elem_MaiUiState"><rect codeLine="113" fill="#F9E79F" height="51.1453" id="MaiUiState" rx="1.5" ry="1.5" style="stroke:#181818;stroke-width:0.3;" width="117.6" x="558.6" y="194.7082"/><ellipse cx="591.45" cy="204.3082" fill="#ADD1B2" rx="6.6" ry="6.6" style="stroke:#181818;stroke-width:0.6;"/><path d="M593.1094,201.8332 Q593.2031,201.702 593.3156,201.6363 Q593.4281,201.5707 593.5594,201.5707 Q593.7844,201.5707 593.925,201.7301 Q594.0656,201.8801 594.0656,202.2457 L594.0656,203.1176 Q594.0656,203.4832 593.925,203.6426 Q593.7844,203.802 593.5594,203.802 Q593.3531,203.802 593.2312,203.6801 Q593.1094,203.5676 593.0437,203.2582 Q593.0156,203.0426 592.9031,202.9301 Q592.7063,202.7051 592.3406,202.5738 Q591.975,202.4426 591.6,202.4426 Q591.1406,202.4426 590.7563,202.6395 Q590.3813,202.8363 590.0813,203.2863 Q589.7906,203.7363 589.7906,204.3551 L589.7906,205.0113 Q589.7906,205.752 590.325,206.2488 Q590.8594,206.7363 591.8156,206.7363 Q592.3781,206.7363 592.7719,206.5863 Q593.0063,206.4926 593.2594,206.2301 Q593.4187,206.0707 593.5031,206.0238 Q593.5969,205.977 593.7188,205.977 Q593.9156,205.977 594.0656,206.1363 Q594.225,206.2863 594.225,206.4926 Q594.225,206.6988 594.0188,206.9426 Q593.7188,207.2895 593.2406,207.4863 Q592.5938,207.7582 591.8156,207.7582 Q590.9063,207.7582 590.1844,207.3832 Q589.5938,207.0832 589.1813,206.4457 Q588.7688,205.7988 588.7688,205.0301 L588.7688,204.3363 Q588.7688,203.5395 589.1344,202.8551 Q589.5094,202.1613 590.1656,201.7957 Q590.8219,201.4207 591.5625,201.4207 Q592.0031,201.4207 592.3875,201.5238 Q592.7813,201.6176 593.1094,201.8332 Z " fill="#000000"/><ellipse cx="606.75" cy="204.0082" fill="#84BE84" rx="1.8" ry="1.8" style="stroke:#038048;stroke-width:0.6;"/><text fill="#000000" font-family="sans-serif" font-size="8.4" lengthAdjust="spacing" textLength="40.2" x="610.35" y="207.7863">MaiUiState</text><line style="stroke:#181818;stroke-width:0.3;" x1="559.2" x2="675.6" y1="213.9082" y2="213.9082"/><ellipse cx="565.2" cy="222.7945" fill="none" rx="1.8" ry="1.8" style="stroke:#038048;stroke-width:0.6;"/><text fill="#000000" font-family="sans-serif" font-size="8.4" lengthAdjust="spacing" textLength="102" x="570.6" y="225.3727">templates : List&lt;Template&gt;</text><ellipse cx="565.2" cy="233.9672" fill="none" rx="1.8" ry="1.8" style="stroke:#038048;stroke-width:0.6;"/><text fill="#000000" font-family="sans-serif" font-size="8.4" lengthAdjust="spacing" textLength="68.4" x="570.6" y="236.5453">notes : List&lt;Note&gt;</text><line style="stroke:#181818;stroke-width:0.3;" x1="559.2" x2="675.6" y1="241.0535" y2="241.0535"/></g><!--reverse link theme to screens--><g id="link_theme_screens"><path codeLine="166" d="M791.4,1064.2411 C791.4,1064.081 791.4,1067.2808 791.4,1067.1201 C791.4,1066.7986 791.4,1066.4758 791.4,1066.152 C791.4,1064.8567 791.4,1063.5448 791.4,1062.2332 C791.4,1056.987 791.4,1051.746 791.4,1047.5926 C791.4,1046.5543 791.4,1045.584 791.4,1044.6985 C791.4,1044.4771 791.4,1044.2611 791.4,1044.0506 " fill="none" id="theme-backto-screens" style="stroke:#181818;stroke-width:0.6;stroke-dasharray:7.0,7.0;"/><polygon fill="#181818" points="791.4,1067.8411,793.8,1062.4411,791.4,1064.8411,789,1062.4411,791.4,1067.8411" style="stroke:#181818;stroke-width:0.6;"/></g><!--link components to theme--><g id="link_components_theme"><path codeLine="167" d="M684.2934,1085.4082 C684.5679,1085.4082 684.8465,1085.4082 685.1293,1085.4082 C685.6949,1085.4082 686.2769,1085.4082 686.8745,1085.4082 C688.0697,1085.4082 689.3273,1085.4082 690.6408,1085.4082 C701.1486,1085.4082 715.2311,1085.4082 729.5302,1085.4082 C733.105,1085.4082 736.6933,1085.4082 740.2427,1085.4082 C742.0174,1085.4082 743.7824,1085.4082 745.531,1085.4082 C746.4054,1085.4082 747.2756,1085.4082 748.141,1085.4082 C748.5737,1085.4082 745.4051,1085.4082 745.8353,1085.4082 " fill="none" id="components-to-theme" style="stroke:#181818;stroke-width:0.6;stroke-dasharray:7.0,7.0;"/><polygon fill="#181818" points="749.4353,1085.4082,744.0353,1083.0082,746.4353,1085.4082,744.0353,1087.8082,749.4353,1085.4082" style="stroke:#181818;stroke-width:0.6;"/></g><!--reverse link App to MainActivity--><g id="link_App_MainActivity"><path codeLine="168" d="M114.936,794.0062 C163.59,794.0062 258.858,794.0062 311.79,794.0062 " fill="none" id="App-backto-MainActivity" style="stroke:#181818;stroke-width:0.6;stroke-dasharray:7.0,7.0;"/><polygon fill="#181818" points="111.336,794.0062,116.736,796.4062,114.336,794.0062,116.736,791.6062,111.336,794.0062" style="stroke:#181818;stroke-width:0.6;"/></g><!--link App to di--><g id="link_App_di"><path codeLine="169" d="M82.8,784.9942 C82.8,780.2332 82.8,775.4362 82.8,771.6135 C82.8,770.6578 82.8,769.763 82.8,768.9448 C82.8,768.8426 82.8,772.3415 82.8,772.2417 " fill="none" id="App-to-di" style="stroke:#181818;stroke-width:0.6;stroke-dasharray:7.0,7.0;"/><polygon fill="#181818" points="82.8,768.6417,80.4,774.0417,82.8,771.6417,85.2,774.0417,82.8,768.6417" style="stroke:#181818;stroke-width:0.6;"/></g><!--reverse link util to ui--><g id="link_util_ui"><path codeLine="170" d="M146.9448,1280.4082 C147.7932,1280.4082 146.3154,1280.4082 147.1745,1280.4082 C154.047,1280.4082 161.2549,1280.4082 168.6861,1280.4082 C183.5484,1280.4082 199.3042,1280.4082 215.058,1280.4082 C222.9349,1280.4082 230.8112,1280.4082 238.5751,1280.4082 C242.4571,1280.4082 246.3109,1280.4082 250.1227,1280.4082 C250.3609,1280.4082 250.599,1280.4082 250.8369,1280.4082 " fill="none" id="util-backto-ui" style="stroke:#181818;stroke-width:0.6;stroke-dasharray:7.0,7.0;"/><polygon fill="#181818" points="143.3448,1280.4082,148.7448,1282.8082,146.3448,1280.4082,148.7448,1278.0082,143.3448,1280.4082" style="stroke:#181818;stroke-width:0.6;"/></g><!--reverse link di to MainActivity--><g id="link_di_MainActivity"><path codeLine="171" d="M347.4,772.2586 C347.4,775.9096 347.4,778.4122 347.4,782.9662 " fill="none" id="di-backto-MainActivity" style="stroke:#181818;stroke-width:0.6;stroke-dasharray:7.0,7.0;"/><polygon fill="#181818" points="347.4,768.6586,345,774.0586,347.4,771.6586,349.8,774.0586,347.4,768.6586" style="stroke:#181818;stroke-width:0.6;"/></g><!--reverse link di to MaiViewModel--><g id="link_di_MaiViewModel"><path codeLine="172" d="M213,632.9896 C213,624.046 213,617.7022 213,608.5702 " fill="none" id="di-backto-MaiViewModel" style="stroke:#181818;stroke-width:0.6;stroke-dasharray:7.0,7.0;"/><polygon fill="#181818" points="213,636.5896,215.4,631.1896,213,633.5896,210.6,631.1896,213,636.5896" style="stroke:#181818;stroke-width:0.6;"/></g><!--reverse link ui to MainActivity--><g id="link_ui_MainActivity"><path codeLine="173" d="M461.4,822.5756 C461.4,820.7515 461.4,819.813 461.4,818.1621 C461.4,804.9551 461.4,797.4082 461.4,797.4082 C461.4,797.4082 415.908,797.4082 382.326,797.4082 " fill="none" id="ui-backto-MainActivity" style="stroke:#181818;stroke-width:0.6;stroke-dasharray:7.0,7.0;"/><polygon fill="#181818" points="461.4,826.1756,463.8,820.7756,461.4,823.1756,459,820.7756,461.4,826.1756" style="stroke:#181818;stroke-width:0.6;"/></g><!--reverse link MaiViewModel to Controller--><g id="link_MaiViewModel_Controller"><path codeLine="174" d="M529.872,453.6082 C545.022,453.6082 552.228,453.6082 565.02,453.6082 " fill="none" id="MaiViewModel-backto-Controller" style="stroke:#181818;stroke-width:0.6;"/><polygon fill="none" points="522.672,453.6082,526.272,456.0082,529.872,453.6082,526.272,451.2082,522.672,453.6082" style="stroke:#181818;stroke-width:0.6;"/></g><!--reverse link MaiViewModel to states--><g id="link_MaiViewModel_states"><path codeLine="175" d="M347.4,291.4642 C347.4,285.4912 347.4,287.7352 347.4,284.1555 C347.4,283.708 347.4,283.282 347.4,282.8783 C347.4,282.8278 347.4,282.7777 347.4,282.7279 C347.4,282.703 347.4,282.6782 347.4,282.6535 " fill="none" id="MaiViewModel-backto-states" style="stroke:#181818;stroke-width:0.6;"/><polygon fill="none" points="347.4,298.6642,349.8,295.0642,347.4,291.4642,345,295.0642,347.4,298.6642" style="stroke:#181818;stroke-width:0.6;"/></g><!--link MainActivity to MaiScreens--><g id="link_MainActivity_MaiScreens"><path codeLine="176" d="M311.826,802.9102 C285.408,802.9102 253.8,802.9102 253.8,802.9102 C253.8,802.9102 253.8,1168.2082 253.8,1168.2082 C253.8,1168.2082 281.808,1168.2082 308.226,1168.2082 " fill="none" id="MainActivity-to-MaiScreens" style="stroke:#181818;stroke-width:0.6;stroke-dasharray:7.0,7.0;"/><polygon fill="#181818" points="311.826,1168.2082,306.426,1165.8082,308.826,1168.2082,306.426,1170.6082,311.826,1168.2082" style="stroke:#181818;stroke-width:0.6;"/></g><!--SRC=[bLTBRziu4BxhLn3OInQ9Y-rU5YrS0uuTOmF4RP2atMF0I6ER24KA59aq6_I_TqZgJSeF7soJyyqtJmqf3XjDj2IARNUQP4n1gfaKIVdCH44LpGbd0lHR0KGglPCTWMQQmwLK6QWxQKIsa4g08X__YcCUTYnz5b2MvEyuO26vLEI9q_GvwI1kSKstS8a_M-NjMDmVL_FLVFMn0xn3rwdOyX2wMbvTBhjkBJWjon3swUgVJwiaARn5Gek2l2UgfYM6uP9KdtOxbNaX1GXTTiHzICOebzkXt7xEKO_fDx9GG6tYbwF8NyceyX8u75BUGrNJt2fuOV2w68jdHEqEk7FzLBtxb6usacTxz28CRLAnT1hxxNr8RdAofkm-LG0YclAlKaCPRZz0Nc0aCT4zQCt4DYAv5XkfSXT_A7H51MikbDr1QRW-9Tuo6b6lWPmj7_bnDR3kdu9tgJj5mOTvYaQTwrDqcjADAEtDgzv13cDPTPFXEBztj80ZM_yXOd8CQaVlU3mTpUwuwMZKHFEYMClCy2xRhm2rf9eU0vCvPI82Z3jaDECHbsxe_szOCSdv4rKXJI-xfYZm0FfNv_o1zaRSI0xi97lCPGOyEhHBRTjbMFNKdWlDB7OFayN5XeX0uLUALVnCxhN2XWqXkkfAXDGD6e8eno4cqDuBklEPtB1IJptXB0IhQjIkAIBILi6jVyxszfEF3IVZth3mX3JwrXwIW7vP0zVzdL1bmmJb_u6zG5ZyghCCmQdwjbaeXaoCUgzHPIdD4uSOkFoskQBfRjv9qZ1shtnaxD_PQEHrjHhYkcQpUF4RdCtdxF30gPjB2cqx7jHqwXfDgWjo8obUW2xyGGvgDWiQqoFHPANJ5tEdRnroV_h2p9FQFFj_Uxp35Ft01sSzU6xiPsA3RhsthhIXk7EX2SUjwfZSeWwiprYdV8or6UiDSxDJipSRSGkJ_lBH-Fglk7n5KskZAVPEipLjEwJFSqxwYeSr0ijfC5GYzeF9CukqmO3aQEs1IuyumVtftE3tf6M4SvJZ6EKlNoBHGLtHi_hFd_qeJ95rKELPLEoQBYwo9zn0KZqYLkdCVaMb1_ogK7FEOxOhwNTXIiZ6VCTd4AX2XeYBW-AT5x9qELyfcGTr3tZztH2lzW7I7pNjStJHEu46F3w1VcnVlbsB37wUNGjzGTelFuq7UkKhBNvGRghXFL0QPah9ub14msoKe6rqHYcyBdGRRb3EtbsX6dbpzvRNKE5xZCjMPR6FHMennnVa5tibUQy02F5NoEc73wg-fRTRflE2c5XZkDSZSfkeEiDxM-9kIXPXM8BNk03RxZLpEZ4HN6UaJYP6zXMgoyzamWU2pdiJCl8-vMy0]--></g></svg>