<?xml version="1.0" encoding="us-ascii" standalone="no"?><svg xmlns="http://www.w3.org/2000/svg" xmlns:xlink="http://www.w3.org/1999/xlink" contentStyleType="text/css" height="1018px" preserveAspectRatio="none" style="width:1124px;height:1018px;background:#FFFFFF;" version="1.1" viewBox="0 0 1124 1018" width="1124px" zoomAndPan="magnify"><defs/><g><!--cluster data--><g id="cluster_data"><path d="M8.5,6.0137 L39.5,6.0137 A3.75,3.75 0 0 1 42,8.5137 L49,30.6348 L1114.5,30.6348 A2.5,2.5 0 0 1 1117,33.1348 L1117,1008.5137 A2.5,2.5 0 0 1 1114.5,1011.0137 L8.5,1011.0137 A2.5,2.5 0 0 1 6,1008.5137 L6,8.5137 A2.5,2.5 0 0 1 8.5,6.0137 " fill="#EAFAF1" style="stroke:#000000;stroke-width:1.5;"/><line style="stroke:#000000;stroke-width:1.5;" x1="6" x2="49" y1="30.6348" y2="30.6348"/><text fill="#000000" font-family="sans-serif" font-size="14" font-weight="bold" lengthAdjust="spacing" textLength="30" x="10" y="23.1211">data</text></g><!--cluster model--><g id="cluster_model"><rect fill="#FDEBD0" height="225" rx="2.5" ry="2.5" style="stroke:#181818;stroke-width:1.0;" width="719.5" x="30" y="51.0137"/><text fill="#000000" font-family="sans-serif" font-size="14" font-weight="bold" lengthAdjust="spacing" textLength="43" x="368.25" y="68.1211">model</text></g><!--cluster repository--><g id="cluster_repository"><rect fill="#FDEBD0" height="151" rx="2.5" ry="2.5" style="stroke:#181818;stroke-width:1.0;" width="643.5" x="86" y="588.0137"/><text fill="#000000" font-family="sans-serif" font-size="14" font-weight="bold" lengthAdjust="spacing" textLength="72" x="371.75" y="605.1211">repository</text></g><!--cluster dao--><g id="cluster_dao"><rect fill="#FDEBD0" height="248" rx="2.5" ry="2.5" style="stroke:#181818;stroke-width:1.0;" width="670" x="415" y="308.0137"/><text fill="#000000" font-family="sans-serif" font-size="14" font-weight="bold" lengthAdjust="spacing" textLength="26" x="737" y="325.1211">dao</text></g><!--class AppDatabase--><g id="elem_AppDatabase"><rect codeLine="67" fill="#F9E79F" height="116.4453" id="AppDatabase" rx="2.5" ry="2.5" style="stroke:#181818;stroke-width:0.5;" width="238" x="493" y="758.0137"/><ellipse cx="558.75" cy="780.3047" fill="#A9DCDF" rx="11" ry="11" style="stroke:#181818;stroke-width:1.0;"/><path d="M560.9375,782.0703 L556.7969,782.0703 L556.375,783.1016 L556.7969,783.1016 Q557.4063,783.1016 557.6719,783.3359 Q557.9375,783.5703 557.9375,783.9609 Q557.9375,784.3359 557.6719,784.5703 Q557.4063,784.8047 556.7969,784.8047 L554.5,784.8047 Q553.8906,784.8047 553.6406,784.5703 Q553.375,784.3359 553.375,783.9453 Q553.375,783.5703 553.6563,783.3359 Q553.9219,783.0859 554.5469,783.1016 L557.2188,776.4453 L556.1094,776.4453 Q555.5,776.4453 555.2344,776.2109 Q554.9688,775.9766 554.9688,775.5859 Q554.9688,775.2109 555.2344,774.9766 Q555.5,774.7422 556.1094,774.7422 L559.7813,774.7422 L563.1719,783.1016 Q563.7656,783.1016 563.9531,783.2422 Q564.3438,783.5078 564.3438,783.9609 Q564.3438,784.3359 564.0781,784.5703 Q563.8281,784.8047 563.2188,784.8047 L560.9219,784.8047 Q560.3125,784.8047 560.0469,784.5703 Q559.7813,784.3359 559.7813,783.9453 Q559.7813,783.5703 560.0469,783.3359 Q560.3125,783.1016 560.9219,783.1016 L561.3438,783.1016 L560.9375,782.0703 Z M560.2188,780.3672 L558.8594,776.9922 L557.4844,780.3672 L560.2188,780.3672 Z " fill="#000000"/><text fill="#000000" font-family="sans-serif" font-size="12" font-style="italic" lengthAdjust="spacing" textLength="102" x="577.25" y="775.9629">&#171;RoomDatabase&#187;</text><ellipse cx="584.75" cy="787.7852" fill="#84BE84" rx="3" ry="3" style="stroke:#038048;stroke-width:1.0;"/><text fill="#000000" font-family="sans-serif" font-size="14" font-style="italic" lengthAdjust="spacing" textLength="86" x="590.75" y="794.082">AppDatabase</text><line style="stroke:#181818;stroke-width:0.5;" x1="494" x2="730" y1="802.5957" y2="802.5957"/><ellipse cx="504" cy="817.4063" fill="#84BE84" rx="3" ry="3" style="stroke:#038048;stroke-width:1.0;"/><text fill="#000000" font-family="sans-serif" font-size="14" lengthAdjust="spacing" textLength="152" x="513" y="821.7031">getNoteDao() : NoteDao</text><ellipse cx="504" cy="836.0273" fill="#84BE84" rx="3" ry="3" style="stroke:#038048;stroke-width:1.0;"/><text fill="#000000" font-family="sans-serif" font-size="14" lengthAdjust="spacing" textLength="212" x="513" y="840.3242">getTemplateDao() : TemplateDao</text><line style="stroke:#181818;stroke-width:1.0;" x1="494" x2="730" y1="847.8379" y2="847.8379"/><line style="stroke:#181818;stroke-width:1.0;" x1="494" x2="730" y1="849.8379" y2="849.8379"/><text fill="#000000" font-family="sans-serif" font-size="14" lengthAdjust="spacing" text-decoration="underline" textLength="226" x="499" y="866.9453">APP_DATABASE_NAME = "mai_db"</text></g><!--class Converters--><g id="elem_Converters"><rect codeLine="74" fill="#F9E79F" height="85.2422" id="Converters" rx="2.5" ry="2.5" style="stroke:#181818;stroke-width:0.5;" width="263" x="480.5" y="909.5137"/><ellipse cx="567.25" cy="925.5137" fill="#ADD1B2" rx="11" ry="11" style="stroke:#181818;stroke-width:1.0;"/><path d="M570.0156,921.3887 Q570.1719,921.1699 570.3594,921.0605 Q570.5469,920.9512 570.7656,920.9512 Q571.1406,920.9512 571.375,921.2168 Q571.6094,921.4668 571.6094,922.0762 L571.6094,923.5293 Q571.6094,924.1387 571.375,924.4043 Q571.1406,924.6699 570.7656,924.6699 Q570.4219,924.6699 570.2188,924.4668 Q570.0156,924.2793 569.9063,923.7637 Q569.8594,923.4043 569.6719,923.2168 Q569.3438,922.8418 568.7344,922.623 Q568.125,922.4043 567.5,922.4043 Q566.7344,922.4043 566.0938,922.7324 Q565.4688,923.0605 564.9688,923.8105 Q564.4844,924.5605 564.4844,925.5918 L564.4844,926.6855 Q564.4844,927.9199 565.375,928.748 Q566.2656,929.5605 567.8594,929.5605 Q568.7969,929.5605 569.4531,929.3105 Q569.8438,929.1543 570.2656,928.7168 Q570.5313,928.4512 570.6719,928.373 Q570.8281,928.2949 571.0313,928.2949 Q571.3594,928.2949 571.6094,928.5605 Q571.875,928.8105 571.875,929.1543 Q571.875,929.498 571.5313,929.9043 Q571.0313,930.4824 570.2344,930.8105 Q569.1563,931.2637 567.8594,931.2637 Q566.3438,931.2637 565.1406,930.6387 Q564.1563,930.1387 563.4688,929.0762 Q562.7813,927.998 562.7813,926.7168 L562.7813,925.5605 Q562.7813,924.2324 563.3906,923.0918 Q564.0156,921.9355 565.1094,921.3262 Q566.2031,920.7012 567.4375,920.7012 Q568.1719,920.7012 568.8125,920.873 Q569.4688,921.0293 570.0156,921.3887 Z " fill="#000000"/><ellipse cx="592.75" cy="925.0137" fill="#84BE84" rx="3" ry="3" style="stroke:#038048;stroke-width:1.0;"/><text fill="#000000" font-family="sans-serif" font-size="14" lengthAdjust="spacing" textLength="70" x="598.75" y="931.3105">Converters</text><line style="stroke:#181818;stroke-width:0.5;" x1="481.5" x2="742.5" y1="941.5137" y2="941.5137"/><line style="stroke:#181818;stroke-width:0.5;" x1="481.5" x2="742.5" y1="949.5137" y2="949.5137"/><ellipse cx="491.5" cy="964.3242" fill="#84BE84" rx="3" ry="3" style="stroke:#038048;stroke-width:1.0;"/><text fill="#000000" font-family="sans-serif" font-size="14" lengthAdjust="spacing" textLength="237" x="500.5" y="968.6211">stringListToJson(List&lt;String&gt;) : String</text><ellipse cx="491.5" cy="982.9453" fill="#84BE84" rx="3" ry="3" style="stroke:#038048;stroke-width:1.0;"/><text fill="#000000" font-family="sans-serif" font-size="14" lengthAdjust="spacing" textLength="236" x="500.5" y="987.2422">jsonToListString(String) : List&lt;String&gt;</text></g><!--class DataNote--><g id="elem_DataNote"><rect codeLine="17" fill="#F9E79F" height="172.3086" id="DataNote" rx="2.5" ry="2.5" style="stroke:#181818;stroke-width:0.5;" width="243" x="490.5" y="88.0137"/><ellipse cx="562.75" cy="110.3047" fill="#ADD1B2" rx="11" ry="11" style="stroke:#181818;stroke-width:1.0;"/><path d="M565.5156,106.1797 Q565.6719,105.9609 565.8594,105.8516 Q566.0469,105.7422 566.2656,105.7422 Q566.6406,105.7422 566.875,106.0078 Q567.1094,106.2578 567.1094,106.8672 L567.1094,108.3203 Q567.1094,108.9297 566.875,109.1953 Q566.6406,109.4609 566.2656,109.4609 Q565.9219,109.4609 565.7188,109.2578 Q565.5156,109.0703 565.4063,108.5547 Q565.3594,108.1953 565.1719,108.0078 Q564.8438,107.6328 564.2344,107.4141 Q563.625,107.1953 563,107.1953 Q562.2344,107.1953 561.5938,107.5234 Q560.9688,107.8516 560.4688,108.6016 Q559.9844,109.3516 559.9844,110.3828 L559.9844,111.4766 Q559.9844,112.7109 560.875,113.5391 Q561.7656,114.3516 563.3594,114.3516 Q564.2969,114.3516 564.9531,114.1016 Q565.3438,113.9453 565.7656,113.5078 Q566.0313,113.2422 566.1719,113.1641 Q566.3281,113.0859 566.5313,113.0859 Q566.8594,113.0859 567.1094,113.3516 Q567.375,113.6016 567.375,113.9453 Q567.375,114.2891 567.0313,114.6953 Q566.5313,115.2734 565.7344,115.6016 Q564.6563,116.0547 563.3594,116.0547 Q561.8438,116.0547 560.6406,115.4297 Q559.6563,114.9297 558.9688,113.8672 Q558.2813,112.7891 558.2813,111.5078 L558.2813,110.3516 Q558.2813,109.0234 558.8906,107.8828 Q559.5156,106.7266 560.6094,106.1172 Q561.7031,105.4922 562.9375,105.4922 Q563.6719,105.4922 564.3125,105.6641 Q564.9688,105.8203 565.5156,106.1797 Z " fill="#000000"/><text fill="#000000" font-family="sans-serif" font-size="12" font-style="italic" lengthAdjust="spacing" textLength="94" x="581.25" y="105.9629">&#171;analog of Note&#187;</text><ellipse cx="598.25" cy="117.7852" fill="#84BE84" rx="3" ry="3" style="stroke:#038048;stroke-width:1.0;"/><text fill="#000000" font-family="sans-serif" font-size="14" lengthAdjust="spacing" textLength="59" x="604.25" y="124.082">DataNote</text><line style="stroke:#181818;stroke-width:0.5;" x1="491.5" x2="732.5" y1="132.5957" y2="132.5957"/><ellipse cx="501.5" cy="147.4063" fill="none" rx="3" ry="3" style="stroke:#038048;stroke-width:1.0;"/><text fill="#000000" font-family="sans-serif" font-size="14" lengthAdjust="spacing" textLength="55" x="510.5" y="151.7031">id : Long</text><ellipse cx="501.5" cy="166.0273" fill="none" rx="3" ry="3" style="stroke:#038048;stroke-width:1.0;"/><text fill="#000000" font-family="sans-serif" font-size="14" lengthAdjust="spacing" textLength="84" x="510.5" y="170.3242">name : String</text><ellipse cx="501.5" cy="184.6484" fill="none" rx="3" ry="3" style="stroke:#038048;stroke-width:1.0;"/><text fill="#000000" font-family="sans-serif" font-size="14" lengthAdjust="spacing" textLength="156" x="510.5" y="188.9453">candidates : List&lt;String&gt;</text><ellipse cx="501.5" cy="203.2695" fill="none" rx="3" ry="3" style="stroke:#038048;stroke-width:1.0;"/><text fill="#000000" font-family="sans-serif" font-size="14" lengthAdjust="spacing" textLength="87" x="510.5" y="207.5664">report : String</text><line style="stroke:#181818;stroke-width:1.0;stroke-dasharray:1.0,2.0;" x1="491.5" x2="732.5" y1="215.0801" y2="215.0801"/><ellipse cx="501.5" cy="229.8906" fill="#84BE84" rx="3" ry="3" style="stroke:#038048;stroke-width:1.0;"/><text fill="#000000" font-family="sans-serif" font-size="14" lengthAdjust="spacing" textLength="185" x="510.5" y="234.1875">Note.toDataNote() : DataNote</text><ellipse cx="501.5" cy="248.5117" fill="#84BE84" rx="3" ry="3" style="stroke:#038048;stroke-width:1.0;"/><text fill="#000000" font-family="sans-serif" font-size="14" lengthAdjust="spacing" textLength="217" x="510.5" y="252.8086">BaseNote.toDataNote() : DataNote</text></g><!--class DataTemplate--><g id="elem_DataTemplate"><rect codeLine="27" fill="#F9E79F" height="172.3086" id="DataTemplate" rx="2.5" ry="2.5" style="stroke:#181818;stroke-width:0.5;" width="333" x="46" y="88.0137"/><ellipse cx="150.25" cy="110.3047" fill="#ADD1B2" rx="11" ry="11" style="stroke:#181818;stroke-width:1.0;"/><path d="M153.0156,106.1797 Q153.1719,105.9609 153.3594,105.8516 Q153.5469,105.7422 153.7656,105.7422 Q154.1406,105.7422 154.375,106.0078 Q154.6094,106.2578 154.6094,106.8672 L154.6094,108.3203 Q154.6094,108.9297 154.375,109.1953 Q154.1406,109.4609 153.7656,109.4609 Q153.4219,109.4609 153.2188,109.2578 Q153.0156,109.0703 152.9063,108.5547 Q152.8594,108.1953 152.6719,108.0078 Q152.3438,107.6328 151.7344,107.4141 Q151.125,107.1953 150.5,107.1953 Q149.7344,107.1953 149.0938,107.5234 Q148.4688,107.8516 147.9688,108.6016 Q147.4844,109.3516 147.4844,110.3828 L147.4844,111.4766 Q147.4844,112.7109 148.375,113.5391 Q149.2656,114.3516 150.8594,114.3516 Q151.7969,114.3516 152.4531,114.1016 Q152.8438,113.9453 153.2656,113.5078 Q153.5313,113.2422 153.6719,113.1641 Q153.8281,113.0859 154.0313,113.0859 Q154.3594,113.0859 154.6094,113.3516 Q154.875,113.6016 154.875,113.9453 Q154.875,114.2891 154.5313,114.6953 Q154.0313,115.2734 153.2344,115.6016 Q152.1563,116.0547 150.8594,116.0547 Q149.3438,116.0547 148.1406,115.4297 Q147.1563,114.9297 146.4688,113.8672 Q145.7813,112.7891 145.7813,111.5078 L145.7813,110.3516 Q145.7813,109.0234 146.3906,107.8828 Q147.0156,106.7266 148.1094,106.1172 Q149.2031,105.4922 150.4375,105.4922 Q151.1719,105.4922 151.8125,105.6641 Q152.4688,105.8203 153.0156,106.1797 Z " fill="#000000"/><text fill="#000000" font-family="sans-serif" font-size="12" font-style="italic" lengthAdjust="spacing" textLength="120" x="168.75" y="105.9629">&#171;analog of Template&#187;</text><ellipse cx="183.75" cy="117.7852" fill="#84BE84" rx="3" ry="3" style="stroke:#038048;stroke-width:1.0;"/><text fill="#000000" font-family="sans-serif" font-size="14" lengthAdjust="spacing" textLength="89" x="189.75" y="124.082">DataTemplate</text><line style="stroke:#181818;stroke-width:0.5;" x1="47" x2="378" y1="132.5957" y2="132.5957"/><ellipse cx="57" cy="147.4063" fill="none" rx="3" ry="3" style="stroke:#038048;stroke-width:1.0;"/><text fill="#000000" font-family="sans-serif" font-size="14" lengthAdjust="spacing" textLength="55" x="66" y="151.7031">id : Long</text><ellipse cx="57" cy="166.0273" fill="none" rx="3" ry="3" style="stroke:#038048;stroke-width:1.0;"/><text fill="#000000" font-family="sans-serif" font-size="14" lengthAdjust="spacing" textLength="84" x="66" y="170.3242">name : String</text><ellipse cx="57" cy="184.6484" fill="none" rx="3" ry="3" style="stroke:#038048;stroke-width:1.0;"/><text fill="#000000" font-family="sans-serif" font-size="14" lengthAdjust="spacing" textLength="130" x="66" y="188.9453">criteria : List&lt;String&gt;</text><line style="stroke:#181818;stroke-width:1.0;stroke-dasharray:1.0,2.0;" x1="47" x2="378" y1="196.459" y2="196.459"/><ellipse cx="57" cy="211.2695" fill="#84BE84" rx="3" ry="3" style="stroke:#038048;stroke-width:1.0;"/><text fill="#000000" font-family="sans-serif" font-size="14" lengthAdjust="spacing" textLength="275" x="66" y="215.5664">Template.toDataTemplate() : DataTemplate</text><ellipse cx="57" cy="229.8906" fill="#84BE84" rx="3" ry="3" style="stroke:#038048;stroke-width:1.0;"/><text fill="#000000" font-family="sans-serif" font-size="14" lengthAdjust="spacing" textLength="307" x="66" y="234.1875">BaseTemplate.toDataTemplate() : DataTemplate</text><ellipse cx="57" cy="248.5117" fill="#84BE84" rx="3" ry="3" style="stroke:#038048;stroke-width:1.0;"/><text fill="#000000" font-family="sans-serif" font-size="14" lengthAdjust="spacing" textLength="245" x="66" y="252.8086">DataTemplate.toTemplate() : Template</text></g><!--class RoomTemplateRepository--><g id="elem_RoomTemplateRepository"><rect codeLine="39" fill="#F9E79F" height="79.2031" id="RoomTemplateRepository" rx="2.5" ry="2.5" style="stroke:#181818;stroke-width:0.5;" width="221" x="102" y="630.5137"/><ellipse cx="117" cy="652.8047" fill="#ADD1B2" rx="11" ry="11" style="stroke:#181818;stroke-width:1.0;"/><path d="M119.7656,648.6797 Q119.9219,648.4609 120.1094,648.3516 Q120.2969,648.2422 120.5156,648.2422 Q120.8906,648.2422 121.125,648.5078 Q121.3594,648.7578 121.3594,649.3672 L121.3594,650.8203 Q121.3594,651.4297 121.125,651.6953 Q120.8906,651.9609 120.5156,651.9609 Q120.1719,651.9609 119.9688,651.7578 Q119.7656,651.5703 119.6563,651.0547 Q119.6094,650.6953 119.4219,650.5078 Q119.0938,650.1328 118.4844,649.9141 Q117.875,649.6953 117.25,649.6953 Q116.4844,649.6953 115.8438,650.0234 Q115.2188,650.3516 114.7188,651.1016 Q114.2344,651.8516 114.2344,652.8828 L114.2344,653.9766 Q114.2344,655.2109 115.125,656.0391 Q116.0156,656.8516 117.6094,656.8516 Q118.5469,656.8516 119.2031,656.6016 Q119.5938,656.4453 120.0156,656.0078 Q120.2813,655.7422 120.4219,655.6641 Q120.5781,655.5859 120.7813,655.5859 Q121.1094,655.5859 121.3594,655.8516 Q121.625,656.1016 121.625,656.4453 Q121.625,656.7891 121.2813,657.1953 Q120.7813,657.7734 119.9844,658.1016 Q118.9063,658.5547 117.6094,658.5547 Q116.0938,658.5547 114.8906,657.9297 Q113.9063,657.4297 113.2188,656.3672 Q112.5313,655.2891 112.5313,654.0078 L112.5313,652.8516 Q112.5313,651.5234 113.1406,650.3828 Q113.7656,649.2266 114.8594,648.6172 Q115.9531,647.9922 117.1875,647.9922 Q117.9219,647.9922 118.5625,648.1641 Q119.2188,648.3203 119.7656,648.6797 Z " fill="#000000"/><text fill="#000000" font-family="sans-serif" font-size="12" font-style="italic" lengthAdjust="spacing" textLength="193" x="129" y="648.4629">&#171;implements TemplateRepository&#187;</text><ellipse cx="143" cy="660.2852" fill="#84BE84" rx="3" ry="3" style="stroke:#038048;stroke-width:1.0;"/><text fill="#000000" font-family="sans-serif" font-size="14" lengthAdjust="spacing" textLength="164" x="149" y="666.582">RoomTemplateRepository</text><line style="stroke:#181818;stroke-width:0.5;" x1="103" x2="322" y1="675.0957" y2="675.0957"/><rect fill="none" height="6" style="stroke:#C82930;stroke-width:1.0;" width="6" x="110" y="686.9063"/><text fill="#000000" font-family="sans-serif" font-size="14" lengthAdjust="spacing" textLength="177" x="122" y="694.2031">templateDao : TemplateDao</text><line style="stroke:#181818;stroke-width:0.5;" x1="103" x2="322" y1="701.7168" y2="701.7168"/></g><!--class RoomNoteRepository--><g id="elem_RoomNoteRepository"><rect codeLine="43" fill="#F9E79F" height="97.8242" id="RoomNoteRepository" rx="2.5" ry="2.5" style="stroke:#181818;stroke-width:0.5;" width="203" x="510.5" y="625.0137"/><ellipse cx="529.1" cy="647.3047" fill="#ADD1B2" rx="11" ry="11" style="stroke:#181818;stroke-width:1.0;"/><path d="M531.8656,643.1797 Q532.0219,642.9609 532.2094,642.8516 Q532.3969,642.7422 532.6156,642.7422 Q532.9906,642.7422 533.225,643.0078 Q533.4594,643.2578 533.4594,643.8672 L533.4594,645.3203 Q533.4594,645.9297 533.225,646.1953 Q532.9906,646.4609 532.6156,646.4609 Q532.2719,646.4609 532.0688,646.2578 Q531.8656,646.0703 531.7563,645.5547 Q531.7094,645.1953 531.5219,645.0078 Q531.1938,644.6328 530.5844,644.4141 Q529.975,644.1953 529.35,644.1953 Q528.5844,644.1953 527.9438,644.5234 Q527.3188,644.8516 526.8188,645.6016 Q526.3344,646.3516 526.3344,647.3828 L526.3344,648.4766 Q526.3344,649.7109 527.225,650.5391 Q528.1156,651.3516 529.7094,651.3516 Q530.6469,651.3516 531.3031,651.1016 Q531.6938,650.9453 532.1156,650.5078 Q532.3813,650.2422 532.5219,650.1641 Q532.6781,650.0859 532.8813,650.0859 Q533.2094,650.0859 533.4594,650.3516 Q533.725,650.6016 533.725,650.9453 Q533.725,651.2891 533.3813,651.6953 Q532.8813,652.2734 532.0844,652.6016 Q531.0063,653.0547 529.7094,653.0547 Q528.1938,653.0547 526.9906,652.4297 Q526.0063,651.9297 525.3188,650.8672 Q524.6313,649.7891 524.6313,648.5078 L524.6313,647.3516 Q524.6313,646.0234 525.2406,644.8828 Q525.8656,643.7266 526.9594,643.1172 Q528.0531,642.4922 529.2875,642.4922 Q530.0219,642.4922 530.6625,642.6641 Q531.3188,642.8203 531.8656,643.1797 Z " fill="#000000"/><text fill="#000000" font-family="sans-serif" font-size="12" font-style="italic" lengthAdjust="spacing" textLength="167" x="541.9" y="642.9629">&#171;implements NoteRepository&#187;</text><ellipse cx="557.9" cy="654.7852" fill="#84BE84" rx="3" ry="3" style="stroke:#038048;stroke-width:1.0;"/><text fill="#000000" font-family="sans-serif" font-size="14" lengthAdjust="spacing" textLength="134" x="563.9" y="661.082">RoomNoteRepository</text><line style="stroke:#181818;stroke-width:0.5;" x1="511.5" x2="712.5" y1="669.5957" y2="669.5957"/><rect fill="none" height="6" style="stroke:#C82930;stroke-width:1.0;" width="6" x="518.5" y="681.4063"/><text fill="#000000" font-family="sans-serif" font-size="14" lengthAdjust="spacing" textLength="121" x="530.5" y="688.7031">noteDao : NoteDao</text><rect fill="none" height="6" style="stroke:#C82930;stroke-width:1.0;" width="6" x="518.5" y="700.0273"/><text fill="#000000" font-family="sans-serif" font-size="14" lengthAdjust="spacing" textLength="177" x="530.5" y="707.3242">templateDao : TemplateDao</text><line style="stroke:#181818;stroke-width:0.5;" x1="511.5" x2="712.5" y1="714.8379" y2="714.8379"/></g><!--class NoteDao--><g id="elem_NoteDao"><rect codeLine="50" fill="#F9E79F" height="122.4844" id="NoteDao" rx="2.5" ry="2.5" style="stroke:#181818;stroke-width:0.5;" width="216" x="845" y="372.0137"/><ellipse cx="915.25" cy="388.0137" fill="#B4A7E5" rx="11" ry="11" style="stroke:#181818;stroke-width:1.0;"/><path d="M916.2031,384.6543 L916.2031,391.3105 L917.9219,391.3105 Q918.5313,391.3105 918.7969,391.5449 Q919.0625,391.7793 919.0625,392.1699 Q919.0625,392.5449 918.7969,392.7793 Q918.5313,393.0137 917.9219,393.0137 L912.7813,393.0137 Q912.1719,393.0137 911.9063,392.7793 Q911.6406,392.5449 911.6406,392.1543 Q911.6406,391.7793 911.9063,391.5449 Q912.1719,391.3105 912.7813,391.3105 L914.5,391.3105 L914.5,384.6543 L912.7813,384.6543 Q912.1719,384.6543 911.9063,384.4199 Q911.6406,384.1855 911.6406,383.7949 Q911.6406,383.4199 911.9063,383.1855 Q912.1719,382.9512 912.7813,382.9512 L917.9219,382.9512 Q918.5313,382.9512 918.7969,383.1855 Q919.0625,383.4199 919.0625,383.7949 Q919.0625,384.1855 918.7969,384.4199 Q918.5313,384.6543 917.9219,384.6543 L916.2031,384.6543 Z " fill="#000000"/><ellipse cx="940.75" cy="387.5137" fill="#84BE84" rx="3" ry="3" style="stroke:#038048;stroke-width:1.0;"/><text fill="#000000" font-family="sans-serif" font-size="14" font-style="italic" lengthAdjust="spacing" textLength="56" x="946.75" y="393.8105">NoteDao</text><line style="stroke:#181818;stroke-width:0.5;" x1="846" x2="1060" y1="404.0137" y2="404.0137"/><line style="stroke:#181818;stroke-width:0.5;" x1="846" x2="1060" y1="412.0137" y2="412.0137"/><ellipse cx="856" cy="426.8242" fill="#84BE84" rx="3" ry="3" style="stroke:#038048;stroke-width:1.0;"/><text fill="#000000" font-family="sans-serif" font-size="14" lengthAdjust="spacing" textLength="177" x="865" y="431.1211">insertNote(DataNote) : Long</text><ellipse cx="856" cy="445.4453" fill="#84BE84" rx="3" ry="3" style="stroke:#038048;stroke-width:1.0;"/><text fill="#000000" font-family="sans-serif" font-size="14" lengthAdjust="spacing" textLength="190" x="865" y="449.7422">getAllNotes() : List&lt;DataNote&gt;</text><ellipse cx="856" cy="464.0664" fill="#84BE84" rx="3" ry="3" style="stroke:#038048;stroke-width:1.0;"/><text fill="#000000" font-family="sans-serif" font-size="14" lengthAdjust="spacing" textLength="164" x="865" y="468.3633">deleteNote(DataNote) : Int</text><ellipse cx="856" cy="482.6875" fill="#84BE84" rx="3" ry="3" style="stroke:#038048;stroke-width:1.0;"/><text fill="#000000" font-family="sans-serif" font-size="14" lengthAdjust="spacing" textLength="100" x="865" y="486.9844">deleteAllNotes()</text></g><!--class TemplateDao--><g id="elem_TemplateDao"><rect codeLine="57" fill="#F9E79F" height="159.7266" id="TemplateDao" rx="2.5" ry="2.5" style="stroke:#181818;stroke-width:0.5;" width="346" x="439" y="353.0137"/><ellipse cx="559.75" cy="369.0137" fill="#B4A7E5" rx="11" ry="11" style="stroke:#181818;stroke-width:1.0;"/><path d="M560.7031,365.6543 L560.7031,372.3105 L562.4219,372.3105 Q563.0313,372.3105 563.2969,372.5449 Q563.5625,372.7793 563.5625,373.1699 Q563.5625,373.5449 563.2969,373.7793 Q563.0313,374.0137 562.4219,374.0137 L557.2813,374.0137 Q556.6719,374.0137 556.4063,373.7793 Q556.1406,373.5449 556.1406,373.1543 Q556.1406,372.7793 556.4063,372.5449 Q556.6719,372.3105 557.2813,372.3105 L559,372.3105 L559,365.6543 L557.2813,365.6543 Q556.6719,365.6543 556.4063,365.4199 Q556.1406,365.1855 556.1406,364.7949 Q556.1406,364.4199 556.4063,364.1855 Q556.6719,363.9512 557.2813,363.9512 L562.4219,363.9512 Q563.0313,363.9512 563.2969,364.1855 Q563.5625,364.4199 563.5625,364.7949 Q563.5625,365.1855 563.2969,365.4199 Q563.0313,365.6543 562.4219,365.6543 L560.7031,365.6543 Z " fill="#000000"/><ellipse cx="585.25" cy="368.5137" fill="#84BE84" rx="3" ry="3" style="stroke:#038048;stroke-width:1.0;"/><text fill="#000000" font-family="sans-serif" font-size="14" font-style="italic" lengthAdjust="spacing" textLength="85" x="591.25" y="374.8105">TemplateDao</text><line style="stroke:#181818;stroke-width:0.5;" x1="440" x2="784" y1="385.0137" y2="385.0137"/><line style="stroke:#181818;stroke-width:0.5;" x1="440" x2="784" y1="393.0137" y2="393.0137"/><ellipse cx="450" cy="407.8242" fill="#84BE84" rx="3" ry="3" style="stroke:#038048;stroke-width:1.0;"/><text fill="#000000" font-family="sans-serif" font-size="14" lengthAdjust="spacing" textLength="237" x="459" y="412.1211">insertTemplate(DataTemplate) : Long</text><ellipse cx="450" cy="426.4453" fill="#84BE84" rx="3" ry="3" style="stroke:#038048;stroke-width:1.0;"/><text fill="#000000" font-family="sans-serif" font-size="14" lengthAdjust="spacing" textLength="320" x="459" y="430.7422">insertTemplates(List&lt;DataTemplate&gt;) : List&lt;Long&gt;</text><ellipse cx="450" cy="445.0664" fill="#84BE84" rx="3" ry="3" style="stroke:#038048;stroke-width:1.0;"/><text fill="#000000" font-family="sans-serif" font-size="14" lengthAdjust="spacing" textLength="250" x="459" y="449.3633">getAllTemplates() : List&lt;DataTemplate&gt;</text><ellipse cx="450" cy="463.6875" fill="#84BE84" rx="3" ry="3" style="stroke:#038048;stroke-width:1.0;"/><text fill="#000000" font-family="sans-serif" font-size="14" lengthAdjust="spacing" textLength="224" x="459" y="467.9844">deleteTemplate(DataTemplate) : Int</text><ellipse cx="450" cy="482.3086" fill="#84BE84" rx="3" ry="3" style="stroke:#038048;stroke-width:1.0;"/><text fill="#000000" font-family="sans-serif" font-size="14" lengthAdjust="spacing" textLength="259" x="459" y="486.6055">getTemplateById(Long) : (DataTemplate)</text><ellipse cx="450" cy="500.9297" fill="#84BE84" rx="3" ry="3" style="stroke:#038048;stroke-width:1.0;"/><text fill="#000000" font-family="sans-serif" font-size="14" lengthAdjust="spacing" textLength="163" x="459" y="505.2266">deleteUnusedTemplates()</text></g><!--link TemplateDao to NoteDao--><!--link DataTemplate to DataNote--><!--link RoomTemplateRepository to RoomNoteRepository--><!--link Converters to AppDatabase--><g id="link_Converters_AppDatabase"><path codeLine="84" d="M612,909.3537 C612,898.2937 612,892.1837 612,880.4637 " fill="none" id="Converters-to-AppDatabase" style="stroke:#181818;stroke-width:1.0;stroke-dasharray:7.0,7.0;"/><polygon fill="#181818" points="612,874.4637,608,883.4637,612,879.4637,616,883.4637,612,874.4637" style="stroke:#181818;stroke-width:1.0;"/></g><!--link dao to AppDatabase--><g id="link_dao_AppDatabase"><path codeLine="85" d="M502,556.0756 C502,556.3479 502,556.6266 502,556.9116 C502,558.0514 502,559.2912 502,560.6254 C502,563.2937 502,566.3398 502,569.7187 C502,583.2343 502,602.0762 502,623.3812 C502,665.9912 502,706.4537 502,745.8637 " fill="none" id="dao-to-AppDatabase" style="stroke:#181818;stroke-width:1.0;"/><polygon fill="none" points="502,757.8637,506,751.8637,502,745.8637,498,751.8637,502,757.8637" style="stroke:#181818;stroke-width:1.0;"/></g><!--reverse link RoomNoteRepository to NoteDao--><g id="link_RoomNoteRepository_NoteDao"><path codeLine="86" d="M725.85,674.0137 C826.33,674.0137 953,674.0137 953,674.0137 C953,674.0137 953,565.5337 953,494.1437 " fill="none" id="RoomNoteRepository-backto-NoteDao" style="stroke:#181818;stroke-width:1.0;"/><polygon fill="none" points="713.85,674.0137,719.85,678.0137,725.85,674.0137,719.85,670.0137,713.85,674.0137" style="stroke:#181818;stroke-width:1.0;"/></g><!--reverse link RoomNoteRepository to TemplateDao--><g id="link_RoomNoteRepository_TemplateDao"><path codeLine="87" d="M664,612.9537 C664,580.8837 664,550.2537 664,513.3137 " fill="none" id="RoomNoteRepository-backto-TemplateDao" style="stroke:#181818;stroke-width:1.0;"/><polygon fill="none" points="664,624.9537,668,618.9537,664,612.9537,660,618.9537,664,624.9537" style="stroke:#181818;stroke-width:1.0;"/></g><!--reverse link RoomTemplateRepository to TemplateDao--><g id="link_RoomTemplateRepository_TemplateDao"><path codeLine="88" d="M335.22,656.8437 C401.12,656.8437 460,656.8437 460,656.8437 C460,656.8437 460,577.4137 460,513.1937 " fill="none" id="RoomTemplateRepository-backto-TemplateDao" style="stroke:#181818;stroke-width:1.0;"/><polygon fill="none" points="323.22,656.8437,329.22,660.8437,335.22,656.8437,329.22,652.8437,323.22,656.8437" style="stroke:#181818;stroke-width:1.0;"/></g><!--link DataNote to NoteDao--><g id="link_DataNote_NoteDao"><path codeLine="89" d="M733.66,174.0137 C831.59,174.0137 953,174.0137 953,174.0137 C953,174.0137 953,283.3937 953,359.9637 " fill="none" id="DataNote-to-NoteDao" style="stroke:#181818;stroke-width:1.0;"/><polygon fill="none" points="953,371.9637,957,365.9637,953,359.9637,949,365.9637,953,371.9637" style="stroke:#181818;stroke-width:1.0;"/></g><!--link DataTemplate to TemplateDao--><g id="link_DataTemplate_TemplateDao"><path codeLine="90" d="M351,260.2537 C351,335.6037 351,433.0137 351,433.0137 C351,433.0137 378.63,433.0137 427,433.0137 " fill="none" id="DataTemplate-to-TemplateDao" style="stroke:#181818;stroke-width:1.0;"/><polygon fill="none" points="439,433.0137,433,429.0137,427,433.0137,433,437.0137,439,433.0137" style="stroke:#181818;stroke-width:1.0;"/></g><!--SRC=[hLRVQzim47xtNo6wXoQKfEjUHaSQS7v1nrP2cZsDKHJxwcYrTKPI1wNaVzyfYHmfLaePoqiYtNTttzrzFgU4HyCCCYMAjM6vK90PWJBHJqBMNF6AbKA2UQc1eJ9hJ3oB4QQ44QeSr0AVPJv69K6nguznp78jiYS9MhDFSS0OIrHiLVBioKypfpClO4HVXThbiRWFqtIMpguyu8AuSrcKRUXiCXrDV5hZaclTXbrFFr_FaYIfTobPpWrdhqd2wADST5PX3YLTi_td8hFHs8J0TsY03GPSyX8BXe_CNWo77dZh87BsXNr3MOJNabT0XdkZnB4fup8NH0UqzHJQ37QeOGXJKDEOuZ7w_H1hgVKDEjgTBhcvGuWSSGtlGc-IM5EMKDKbFsgCk_mlpL72W1ByhTOSL-_oxsjonwOkTz7knBzv-XRo3BnQ7fl4w-P1U7QwMXXKBstrBH0h5sTnm0q6WkwW0caqQzjRtU-PFMR2qMD6fpU6R7DR7PpA6zhQEIMwV7SOvdetfMY_SdBm6YKagUIHP-3Ij9GdDIYpbRUJTZUgnG9CMfRMhhS3tAhEkHmzahGhm40hwAqqCTmXRBJVXnAyDiJBQ1JcAozUJkYWEqqvpKFQ56cTXx5c7Bo3XZGHOiMUfDXg3kLmzj7BRTwnD2mmz8pb-26VDUGUkxXeBlXA6yKpmtQIJklQXbxHyqvQjW9tnq2-bjXUJDkwZ_Nh4tUOc81lRfgVhzfm8x8DI-VpXqcwJ4Vf_VJXBlq-PJVihEBY8L-T1THtZCSe_z0KGMcVdzwkGZkE9NxLA3l-Wkosz-d5Rm8jqQ9sbixkgnlRhPk4A5oUqukNwg5_3UpyCd6FLk_dMkGvo5_FlQ3YvYtf0uAr6TacFZQ-w99WOFr-wVKZiNkWrrFeJpMM1WdKZF2KtI_cnD8bt8cQUzZ43zwCrk1x_0K0]--></g></svg>