<?xml version="1.0" encoding="us-ascii" standalone="no"?><svg xmlns="http://www.w3.org/2000/svg" xmlns:xlink="http://www.w3.org/1999/xlink" contentStyleType="text/css" height="1353px" preserveAspectRatio="none" style="width:814px;height:1353px;background:#FFFFFF;" version="1.1" viewBox="0 0 814 1353" width="814px" zoomAndPan="magnify"><defs/><g><!--cluster domain--><g id="cluster_domain"><path d="M8.5,6.0137 L60.5,6.0137 A3.75,3.75 0 0 1 63,8.5137 L70,30.6348 L804.5,30.6348 A2.5,2.5 0 0 1 807,33.1348 L807,1343.5137 A2.5,2.5 0 0 1 804.5,1346.0137 L8.5,1346.0137 A2.5,2.5 0 0 1 6,1343.5137 L6,8.5137 A2.5,2.5 0 0 1 8.5,6.0137 " fill="#EAFAF1" style="stroke:#000000;stroke-width:1.5;"/><line style="stroke:#000000;stroke-width:1.5;" x1="6" x2="70" y1="30.6348" y2="30.6348"/><text fill="#000000" font-family="sans-serif" font-size="14" font-weight="bold" lengthAdjust="spacing" textLength="51" x="10" y="23.1211">domain</text></g><!--cluster use_case--><g id="cluster_use_case"><rect fill="#FDEBD0" height="543" rx="2.5" ry="2.5" style="stroke:#181818;stroke-width:1.0;" width="737" x="38" y="59.0137"/><text fill="#000000" font-family="sans-serif" font-size="14" font-weight="bold" lengthAdjust="spacing" textLength="67" x="373" y="76.1211">use_case</text></g><!--cluster Use Cases for Notes--><g id="cluster_Use Cases for Notes"><rect fill="#FDEBD0" height="434" rx="2.5" ry="2.5" style="stroke:#181818;stroke-width:1.0;stroke-dasharray:7.0,7.0;" width="279" x="78" y="120.0137"/><text fill="#000000" font-family="sans-serif" font-size="14" font-weight="bold" lengthAdjust="spacing" textLength="143" x="146" y="137.1211">Use Cases for Notes</text></g><!--cluster Use Cases for Templates--><g id="cluster_Use Cases for Templates"><rect fill="#FDEBD0" height="434" rx="2.5" ry="2.5" style="stroke:#181818;stroke-width:1.0;stroke-dasharray:7.0,7.0;" width="338" x="397" y="120.0137"/><text fill="#000000" font-family="sans-serif" font-size="14" font-weight="bold" lengthAdjust="spacing" textLength="174" x="479" y="137.1211">Use Cases for Templates</text></g><!--cluster model--><g id="cluster_model"><rect fill="#FDEBD0" height="422" rx="2.5" ry="2.5" style="stroke:#181818;stroke-width:1.0;" width="647.5" x="60.5" y="642.0137"/><text fill="#000000" font-family="sans-serif" font-size="14" font-weight="bold" lengthAdjust="spacing" textLength="43" x="362.75" y="659.1211">model</text></g><!--cluster Notes--><g id="cluster_Notes"><rect fill="#FDEBD0" height="313" rx="2.5" ry="2.5" style="stroke:#181818;stroke-width:1.0;stroke-dasharray:7.0,7.0;" width="234" x="100.5" y="703.0137"/><text fill="#000000" font-family="sans-serif" font-size="14" font-weight="bold" lengthAdjust="spacing" textLength="41" x="197" y="720.1211">Notes</text></g><!--cluster Templates--><g id="cluster_Templates"><rect fill="#FDEBD0" height="276" rx="2.5" ry="2.5" style="stroke:#181818;stroke-width:1.0;stroke-dasharray:7.0,7.0;" width="204" x="464" y="740.0137"/><text fill="#000000" font-family="sans-serif" font-size="14" font-weight="bold" lengthAdjust="spacing" textLength="72" x="530" y="757.1211">Templates</text></g><!--cluster repository--><g id="cluster_repository"><rect fill="#FDEBD0" height="210" rx="2.5" ry="2.5" style="stroke:#181818;stroke-width:1.0;" width="656.5" x="78.5" y="1104.0137"/><text fill="#000000" font-family="sans-serif" font-size="14" font-weight="bold" lengthAdjust="spacing" textLength="72" x="370.75" y="1121.1211">repository</text></g><!--class NotesCreator--><g id="elem_NotesCreator"><rect codeLine="18" fill="#F9E79F" height="85.2422" id="NotesCreator" rx="2.5" ry="2.5" style="stroke:#181818;stroke-width:0.5;" width="231" x="102" y="165.5137"/><ellipse cx="165.75" cy="181.5137" fill="#ADD1B2" rx="11" ry="11" style="stroke:#181818;stroke-width:1.0;"/><path d="M168.5156,177.3887 Q168.6719,177.1699 168.8594,177.0605 Q169.0469,176.9512 169.2656,176.9512 Q169.6406,176.9512 169.875,177.2168 Q170.1094,177.4668 170.1094,178.0762 L170.1094,179.5293 Q170.1094,180.1387 169.875,180.4043 Q169.6406,180.6699 169.2656,180.6699 Q168.9219,180.6699 168.7188,180.4668 Q168.5156,180.2793 168.4063,179.7637 Q168.3594,179.4043 168.1719,179.2168 Q167.8438,178.8418 167.2344,178.623 Q166.625,178.4043 166,178.4043 Q165.2344,178.4043 164.5938,178.7324 Q163.9688,179.0605 163.4688,179.8105 Q162.9844,180.5605 162.9844,181.5918 L162.9844,182.6855 Q162.9844,183.9199 163.875,184.748 Q164.7656,185.5605 166.3594,185.5605 Q167.2969,185.5605 167.9531,185.3105 Q168.3438,185.1543 168.7656,184.7168 Q169.0313,184.4512 169.1719,184.373 Q169.3281,184.2949 169.5313,184.2949 Q169.8594,184.2949 170.1094,184.5605 Q170.375,184.8105 170.375,185.1543 Q170.375,185.498 170.0313,185.9043 Q169.5313,186.4824 168.7344,186.8105 Q167.6563,187.2637 166.3594,187.2637 Q164.8438,187.2637 163.6406,186.6387 Q162.6563,186.1387 161.9688,185.0762 Q161.2813,183.998 161.2813,182.7168 L161.2813,181.5605 Q161.2813,180.2324 161.8906,179.0918 Q162.5156,177.9355 163.6094,177.3262 Q164.7031,176.7012 165.9375,176.7012 Q166.6719,176.7012 167.3125,176.873 Q167.9688,177.0293 168.5156,177.3887 Z " fill="#000000"/><ellipse cx="191.25" cy="181.0137" fill="#84BE84" rx="3" ry="3" style="stroke:#038048;stroke-width:1.0;"/><text fill="#000000" font-family="sans-serif" font-size="14" lengthAdjust="spacing" textLength="84" x="197.25" y="187.3105">NotesCreator</text><line style="stroke:#181818;stroke-width:0.5;" x1="103" x2="332" y1="197.5137" y2="197.5137"/><rect fill="none" height="6" style="stroke:#C82930;stroke-width:1.0;" width="6" x="110" y="209.3242"/><text fill="#000000" font-family="sans-serif" font-size="14" lengthAdjust="spacing" textLength="205" x="122" y="216.6211">noteRepository : NoteRepository</text><line style="stroke:#181818;stroke-width:1.0;" x1="103" x2="332" y1="224.1348" y2="224.1348"/><line style="stroke:#181818;stroke-width:1.0;" x1="103" x2="332" y1="226.1348" y2="226.1348"/><ellipse cx="113" cy="238.9453" fill="#84BE84" rx="3" ry="3" style="stroke:#038048;stroke-width:1.0;"/><text fill="#000000" font-family="sans-serif" font-size="14" lengthAdjust="spacing" textLength="204" x="122" y="243.2422">createNote(BaseNote) : Boolean</text></g><!--class NotesDeleter--><g id="elem_NotesDeleter"><rect codeLine="24" fill="#F9E79F" height="103.8633" id="NotesDeleter" rx="2.5" ry="2.5" style="stroke:#181818;stroke-width:0.5;" width="231" x="102" y="286.0137"/><ellipse cx="166.75" cy="302.0137" fill="#ADD1B2" rx="11" ry="11" style="stroke:#181818;stroke-width:1.0;"/><path d="M169.5156,297.8887 Q169.6719,297.6699 169.8594,297.5605 Q170.0469,297.4512 170.2656,297.4512 Q170.6406,297.4512 170.875,297.7168 Q171.1094,297.9668 171.1094,298.5762 L171.1094,300.0293 Q171.1094,300.6387 170.875,300.9043 Q170.6406,301.1699 170.2656,301.1699 Q169.9219,301.1699 169.7188,300.9668 Q169.5156,300.7793 169.4063,300.2637 Q169.3594,299.9043 169.1719,299.7168 Q168.8438,299.3418 168.2344,299.123 Q167.625,298.9043 167,298.9043 Q166.2344,298.9043 165.5938,299.2324 Q164.9688,299.5605 164.4688,300.3105 Q163.9844,301.0605 163.9844,302.0918 L163.9844,303.1855 Q163.9844,304.4199 164.875,305.248 Q165.7656,306.0605 167.3594,306.0605 Q168.2969,306.0605 168.9531,305.8105 Q169.3438,305.6543 169.7656,305.2168 Q170.0313,304.9512 170.1719,304.873 Q170.3281,304.7949 170.5313,304.7949 Q170.8594,304.7949 171.1094,305.0605 Q171.375,305.3105 171.375,305.6543 Q171.375,305.998 171.0313,306.4043 Q170.5313,306.9824 169.7344,307.3105 Q168.6563,307.7637 167.3594,307.7637 Q165.8438,307.7637 164.6406,307.1387 Q163.6563,306.6387 162.9688,305.5762 Q162.2813,304.498 162.2813,303.2168 L162.2813,302.0605 Q162.2813,300.7324 162.8906,299.5918 Q163.5156,298.4355 164.6094,297.8262 Q165.7031,297.2012 166.9375,297.2012 Q167.6719,297.2012 168.3125,297.373 Q168.9688,297.5293 169.5156,297.8887 Z " fill="#000000"/><ellipse cx="192.25" cy="301.5137" fill="#84BE84" rx="3" ry="3" style="stroke:#038048;stroke-width:1.0;"/><text fill="#000000" font-family="sans-serif" font-size="14" lengthAdjust="spacing" textLength="82" x="198.25" y="307.8105">NotesDeleter</text><line style="stroke:#181818;stroke-width:0.5;" x1="103" x2="332" y1="318.0137" y2="318.0137"/><rect fill="none" height="6" style="stroke:#C82930;stroke-width:1.0;" width="6" x="110" y="329.8242"/><text fill="#000000" font-family="sans-serif" font-size="14" lengthAdjust="spacing" textLength="205" x="122" y="337.1211">noteRepository : NoteRepository</text><line style="stroke:#181818;stroke-width:1.0;" x1="103" x2="332" y1="344.6348" y2="344.6348"/><line style="stroke:#181818;stroke-width:1.0;" x1="103" x2="332" y1="346.6348" y2="346.6348"/><ellipse cx="113" cy="359.4453" fill="#84BE84" rx="3" ry="3" style="stroke:#038048;stroke-width:1.0;"/><text fill="#000000" font-family="sans-serif" font-size="14" lengthAdjust="spacing" textLength="171" x="122" y="363.7422">deleteNote(Note) : Boolean</text><ellipse cx="113" cy="378.0664" fill="#84BE84" rx="3" ry="3" style="stroke:#038048;stroke-width:1.0;"/><text fill="#000000" font-family="sans-serif" font-size="14" lengthAdjust="spacing" textLength="100" x="122" y="382.3633">deleteAllNotes()</text></g><!--class NotesLoader--><g id="elem_NotesLoader"><rect codeLine="31" fill="#F9E79F" height="85.2422" id="NotesLoader" rx="2.5" ry="2.5" style="stroke:#181818;stroke-width:0.5;" width="231" x="102" y="425.5137"/><ellipse cx="167.25" cy="441.5137" fill="#ADD1B2" rx="11" ry="11" style="stroke:#181818;stroke-width:1.0;"/><path d="M170.0156,437.3887 Q170.1719,437.1699 170.3594,437.0605 Q170.5469,436.9512 170.7656,436.9512 Q171.1406,436.9512 171.375,437.2168 Q171.6094,437.4668 171.6094,438.0762 L171.6094,439.5293 Q171.6094,440.1387 171.375,440.4043 Q171.1406,440.6699 170.7656,440.6699 Q170.4219,440.6699 170.2188,440.4668 Q170.0156,440.2793 169.9063,439.7637 Q169.8594,439.4043 169.6719,439.2168 Q169.3438,438.8418 168.7344,438.623 Q168.125,438.4043 167.5,438.4043 Q166.7344,438.4043 166.0938,438.7324 Q165.4688,439.0605 164.9688,439.8105 Q164.4844,440.5605 164.4844,441.5918 L164.4844,442.6855 Q164.4844,443.9199 165.375,444.748 Q166.2656,445.5605 167.8594,445.5605 Q168.7969,445.5605 169.4531,445.3105 Q169.8438,445.1543 170.2656,444.7168 Q170.5313,444.4512 170.6719,444.373 Q170.8281,444.2949 171.0313,444.2949 Q171.3594,444.2949 171.6094,444.5605 Q171.875,444.8105 171.875,445.1543 Q171.875,445.498 171.5313,445.9043 Q171.0313,446.4824 170.2344,446.8105 Q169.1563,447.2637 167.8594,447.2637 Q166.3438,447.2637 165.1406,446.6387 Q164.1563,446.1387 163.4688,445.0762 Q162.7813,443.998 162.7813,442.7168 L162.7813,441.5605 Q162.7813,440.2324 163.3906,439.0918 Q164.0156,437.9355 165.1094,437.3262 Q166.2031,436.7012 167.4375,436.7012 Q168.1719,436.7012 168.8125,436.873 Q169.4688,437.0293 170.0156,437.3887 Z " fill="#000000"/><ellipse cx="192.75" cy="441.0137" fill="#84BE84" rx="3" ry="3" style="stroke:#038048;stroke-width:1.0;"/><text fill="#000000" font-family="sans-serif" font-size="14" lengthAdjust="spacing" textLength="81" x="198.75" y="447.3105">NotesLoader</text><line style="stroke:#181818;stroke-width:0.5;" x1="103" x2="332" y1="457.5137" y2="457.5137"/><rect fill="none" height="6" style="stroke:#C82930;stroke-width:1.0;" width="6" x="110" y="469.3242"/><text fill="#000000" font-family="sans-serif" font-size="14" lengthAdjust="spacing" textLength="205" x="122" y="476.6211">noteRepository : NoteRepository</text><line style="stroke:#181818;stroke-width:1.0;" x1="103" x2="332" y1="484.1348" y2="484.1348"/><line style="stroke:#181818;stroke-width:1.0;" x1="103" x2="332" y1="486.1348" y2="486.1348"/><ellipse cx="113" cy="498.9453" fill="#84BE84" rx="3" ry="3" style="stroke:#038048;stroke-width:1.0;"/><text fill="#000000" font-family="sans-serif" font-size="14" lengthAdjust="spacing" textLength="145" x="122" y="503.2422">getNotes() : List&lt;Note&gt;</text></g><!--class TemplatesCreator--><g id="elem_TemplatesCreator"><rect codeLine="40" fill="#F9E79F" height="85.2422" id="TemplatesCreator" rx="2.5" ry="2.5" style="stroke:#181818;stroke-width:0.5;" width="290" x="421" y="165.5137"/><ellipse cx="499.25" cy="181.5137" fill="#ADD1B2" rx="11" ry="11" style="stroke:#181818;stroke-width:1.0;"/><path d="M502.0156,177.3887 Q502.1719,177.1699 502.3594,177.0605 Q502.5469,176.9512 502.7656,176.9512 Q503.1406,176.9512 503.375,177.2168 Q503.6094,177.4668 503.6094,178.0762 L503.6094,179.5293 Q503.6094,180.1387 503.375,180.4043 Q503.1406,180.6699 502.7656,180.6699 Q502.4219,180.6699 502.2188,180.4668 Q502.0156,180.2793 501.9063,179.7637 Q501.8594,179.4043 501.6719,179.2168 Q501.3438,178.8418 500.7344,178.623 Q500.125,178.4043 499.5,178.4043 Q498.7344,178.4043 498.0938,178.7324 Q497.4688,179.0605 496.9688,179.8105 Q496.4844,180.5605 496.4844,181.5918 L496.4844,182.6855 Q496.4844,183.9199 497.375,184.748 Q498.2656,185.5605 499.8594,185.5605 Q500.7969,185.5605 501.4531,185.3105 Q501.8438,185.1543 502.2656,184.7168 Q502.5313,184.4512 502.6719,184.373 Q502.8281,184.2949 503.0313,184.2949 Q503.3594,184.2949 503.6094,184.5605 Q503.875,184.8105 503.875,185.1543 Q503.875,185.498 503.5313,185.9043 Q503.0313,186.4824 502.2344,186.8105 Q501.1563,187.2637 499.8594,187.2637 Q498.3438,187.2637 497.1406,186.6387 Q496.1563,186.1387 495.4688,185.0762 Q494.7813,183.998 494.7813,182.7168 L494.7813,181.5605 Q494.7813,180.2324 495.3906,179.0918 Q496.0156,177.9355 497.1094,177.3262 Q498.2031,176.7012 499.4375,176.7012 Q500.1719,176.7012 500.8125,176.873 Q501.4688,177.0293 502.0156,177.3887 Z " fill="#000000"/><ellipse cx="524.75" cy="181.0137" fill="#84BE84" rx="3" ry="3" style="stroke:#038048;stroke-width:1.0;"/><text fill="#000000" font-family="sans-serif" font-size="14" lengthAdjust="spacing" textLength="114" x="530.75" y="187.3105">TemplatesCreator</text><line style="stroke:#181818;stroke-width:0.5;" x1="422" x2="710" y1="197.5137" y2="197.5137"/><rect fill="none" height="6" style="stroke:#C82930;stroke-width:1.0;" width="6" x="429" y="209.3242"/><text fill="#000000" font-family="sans-serif" font-size="14" lengthAdjust="spacing" textLength="261" x="441" y="216.6211">templateRepository : TemplateRepository</text><line style="stroke:#181818;stroke-width:1.0;" x1="422" x2="710" y1="224.1348" y2="224.1348"/><line style="stroke:#181818;stroke-width:1.0;" x1="422" x2="710" y1="226.1348" y2="226.1348"/><ellipse cx="432" cy="238.9453" fill="#84BE84" rx="3" ry="3" style="stroke:#038048;stroke-width:1.0;"/><text fill="#000000" font-family="sans-serif" font-size="14" lengthAdjust="spacing" textLength="264" x="441" y="243.2422">createTemplate(BaseTemplate) : Boolean</text></g><!--class TemplatesDeleter--><g id="elem_TemplatesDeleter"><rect codeLine="46" fill="#F9E79F" height="103.8633" id="TemplatesDeleter" rx="2.5" ry="2.5" style="stroke:#181818;stroke-width:0.5;" width="287" x="422.5" y="286.0137"/><ellipse cx="500.25" cy="302.0137" fill="#ADD1B2" rx="11" ry="11" style="stroke:#181818;stroke-width:1.0;"/><path d="M503.0156,297.8887 Q503.1719,297.6699 503.3594,297.5605 Q503.5469,297.4512 503.7656,297.4512 Q504.1406,297.4512 504.375,297.7168 Q504.6094,297.9668 504.6094,298.5762 L504.6094,300.0293 Q504.6094,300.6387 504.375,300.9043 Q504.1406,301.1699 503.7656,301.1699 Q503.4219,301.1699 503.2188,300.9668 Q503.0156,300.7793 502.9063,300.2637 Q502.8594,299.9043 502.6719,299.7168 Q502.3438,299.3418 501.7344,299.123 Q501.125,298.9043 500.5,298.9043 Q499.7344,298.9043 499.0938,299.2324 Q498.4688,299.5605 497.9688,300.3105 Q497.4844,301.0605 497.4844,302.0918 L497.4844,303.1855 Q497.4844,304.4199 498.375,305.248 Q499.2656,306.0605 500.8594,306.0605 Q501.7969,306.0605 502.4531,305.8105 Q502.8438,305.6543 503.2656,305.2168 Q503.5313,304.9512 503.6719,304.873 Q503.8281,304.7949 504.0313,304.7949 Q504.3594,304.7949 504.6094,305.0605 Q504.875,305.3105 504.875,305.6543 Q504.875,305.998 504.5313,306.4043 Q504.0313,306.9824 503.2344,307.3105 Q502.1563,307.7637 500.8594,307.7637 Q499.3438,307.7637 498.1406,307.1387 Q497.1563,306.6387 496.4688,305.5762 Q495.7813,304.498 495.7813,303.2168 L495.7813,302.0605 Q495.7813,300.7324 496.3906,299.5918 Q497.0156,298.4355 498.1094,297.8262 Q499.2031,297.2012 500.4375,297.2012 Q501.1719,297.2012 501.8125,297.373 Q502.4688,297.5293 503.0156,297.8887 Z " fill="#000000"/><ellipse cx="525.75" cy="301.5137" fill="#84BE84" rx="3" ry="3" style="stroke:#038048;stroke-width:1.0;"/><text fill="#000000" font-family="sans-serif" font-size="14" lengthAdjust="spacing" textLength="112" x="531.75" y="307.8105">TemplatesDeleter</text><line style="stroke:#181818;stroke-width:0.5;" x1="423.5" x2="708.5" y1="318.0137" y2="318.0137"/><rect fill="none" height="6" style="stroke:#C82930;stroke-width:1.0;" width="6" x="430.5" y="329.8242"/><text fill="#000000" font-family="sans-serif" font-size="14" lengthAdjust="spacing" textLength="261" x="442.5" y="337.1211">templateRepository : TemplateRepository</text><line style="stroke:#181818;stroke-width:1.0;" x1="423.5" x2="708.5" y1="344.6348" y2="344.6348"/><line style="stroke:#181818;stroke-width:1.0;" x1="423.5" x2="708.5" y1="346.6348" y2="346.6348"/><ellipse cx="433.5" cy="359.4453" fill="#84BE84" rx="3" ry="3" style="stroke:#038048;stroke-width:1.0;"/><text fill="#000000" font-family="sans-serif" font-size="14" lengthAdjust="spacing" textLength="231" x="442.5" y="363.7422">deleteTemplate(Template) : Boolean</text><ellipse cx="433.5" cy="378.0664" fill="#84BE84" rx="3" ry="3" style="stroke:#038048;stroke-width:1.0;"/><text fill="#000000" font-family="sans-serif" font-size="14" lengthAdjust="spacing" textLength="163" x="442.5" y="382.3633">deleteUnusedTemplates()</text></g><!--class TemplatesLoader--><g id="elem_TemplatesLoader"><rect codeLine="53" fill="#F9E79F" height="85.2422" id="TemplatesLoader" rx="2.5" ry="2.5" style="stroke:#181818;stroke-width:0.5;" width="287" x="422.5" y="425.5137"/><ellipse cx="500.75" cy="441.5137" fill="#ADD1B2" rx="11" ry="11" style="stroke:#181818;stroke-width:1.0;"/><path d="M503.5156,437.3887 Q503.6719,437.1699 503.8594,437.0605 Q504.0469,436.9512 504.2656,436.9512 Q504.6406,436.9512 504.875,437.2168 Q505.1094,437.4668 505.1094,438.0762 L505.1094,439.5293 Q505.1094,440.1387 504.875,440.4043 Q504.6406,440.6699 504.2656,440.6699 Q503.9219,440.6699 503.7188,440.4668 Q503.5156,440.2793 503.4063,439.7637 Q503.3594,439.4043 503.1719,439.2168 Q502.8438,438.8418 502.2344,438.623 Q501.625,438.4043 501,438.4043 Q500.2344,438.4043 499.5938,438.7324 Q498.9688,439.0605 498.4688,439.8105 Q497.9844,440.5605 497.9844,441.5918 L497.9844,442.6855 Q497.9844,443.9199 498.875,444.748 Q499.7656,445.5605 501.3594,445.5605 Q502.2969,445.5605 502.9531,445.3105 Q503.3438,445.1543 503.7656,444.7168 Q504.0313,444.4512 504.1719,444.373 Q504.3281,444.2949 504.5313,444.2949 Q504.8594,444.2949 505.1094,444.5605 Q505.375,444.8105 505.375,445.1543 Q505.375,445.498 505.0313,445.9043 Q504.5313,446.4824 503.7344,446.8105 Q502.6563,447.2637 501.3594,447.2637 Q499.8438,447.2637 498.6406,446.6387 Q497.6563,446.1387 496.9688,445.0762 Q496.2813,443.998 496.2813,442.7168 L496.2813,441.5605 Q496.2813,440.2324 496.8906,439.0918 Q497.5156,437.9355 498.6094,437.3262 Q499.7031,436.7012 500.9375,436.7012 Q501.6719,436.7012 502.3125,436.873 Q502.9688,437.0293 503.5156,437.3887 Z " fill="#000000"/><ellipse cx="526.25" cy="441.0137" fill="#84BE84" rx="3" ry="3" style="stroke:#038048;stroke-width:1.0;"/><text fill="#000000" font-family="sans-serif" font-size="14" lengthAdjust="spacing" textLength="111" x="532.25" y="447.3105">TemplatesLoader</text><line style="stroke:#181818;stroke-width:0.5;" x1="423.5" x2="708.5" y1="457.5137" y2="457.5137"/><rect fill="none" height="6" style="stroke:#C82930;stroke-width:1.0;" width="6" x="430.5" y="469.3242"/><text fill="#000000" font-family="sans-serif" font-size="14" lengthAdjust="spacing" textLength="261" x="442.5" y="476.6211">templateRepository : TemplateRepository</text><line style="stroke:#181818;stroke-width:1.0;" x1="423.5" x2="708.5" y1="484.1348" y2="484.1348"/><line style="stroke:#181818;stroke-width:1.0;" x1="423.5" x2="708.5" y1="486.1348" y2="486.1348"/><ellipse cx="433.5" cy="498.9453" fill="#84BE84" rx="3" ry="3" style="stroke:#038048;stroke-width:1.0;"/><text fill="#000000" font-family="sans-serif" font-size="14" lengthAdjust="spacing" textLength="205" x="442.5" y="503.2422">getTemplates() : List&lt;Template&gt;</text></g><!--class BaseNote--><g id="elem_BaseNote"><rect codeLine="64" fill="#F9E79F" height="122.4844" id="BaseNote" rx="2.5" ry="2.5" style="stroke:#181818;stroke-width:0.5;" width="186" x="124.5" y="748.0137"/><ellipse cx="177.25" cy="764.0137" fill="#ADD1B2" rx="11" ry="11" style="stroke:#181818;stroke-width:1.0;"/><path d="M180.0156,759.8887 Q180.1719,759.6699 180.3594,759.5605 Q180.5469,759.4512 180.7656,759.4512 Q181.1406,759.4512 181.375,759.7168 Q181.6094,759.9668 181.6094,760.5762 L181.6094,762.0293 Q181.6094,762.6387 181.375,762.9043 Q181.1406,763.1699 180.7656,763.1699 Q180.4219,763.1699 180.2188,762.9668 Q180.0156,762.7793 179.9063,762.2637 Q179.8594,761.9043 179.6719,761.7168 Q179.3438,761.3418 178.7344,761.123 Q178.125,760.9043 177.5,760.9043 Q176.7344,760.9043 176.0938,761.2324 Q175.4688,761.5605 174.9688,762.3105 Q174.4844,763.0605 174.4844,764.0918 L174.4844,765.1855 Q174.4844,766.4199 175.375,767.248 Q176.2656,768.0605 177.8594,768.0605 Q178.7969,768.0605 179.4531,767.8105 Q179.8438,767.6543 180.2656,767.2168 Q180.5313,766.9512 180.6719,766.873 Q180.8281,766.7949 181.0313,766.7949 Q181.3594,766.7949 181.6094,767.0605 Q181.875,767.3105 181.875,767.6543 Q181.875,767.998 181.5313,768.4043 Q181.0313,768.9824 180.2344,769.3105 Q179.1563,769.7637 177.8594,769.7637 Q176.3438,769.7637 175.1406,769.1387 Q174.1563,768.6387 173.4688,767.5762 Q172.7813,766.498 172.7813,765.2168 L172.7813,764.0605 Q172.7813,762.7324 173.3906,761.5918 Q174.0156,760.4355 175.1094,759.8262 Q176.2031,759.2012 177.4375,759.2012 Q178.1719,759.2012 178.8125,759.373 Q179.4688,759.5293 180.0156,759.8887 Z " fill="#000000"/><ellipse cx="202.75" cy="763.5137" fill="#84BE84" rx="3" ry="3" style="stroke:#038048;stroke-width:1.0;"/><text fill="#000000" font-family="sans-serif" font-size="14" lengthAdjust="spacing" textLength="61" x="208.75" y="769.8105">BaseNote</text><line style="stroke:#181818;stroke-width:0.5;" x1="125.5" x2="309.5" y1="780.0137" y2="780.0137"/><ellipse cx="135.5" cy="794.8242" fill="none" rx="3" ry="3" style="stroke:#038048;stroke-width:1.0;"/><text fill="#000000" font-family="sans-serif" font-size="14" lengthAdjust="spacing" textLength="84" x="144.5" y="799.1211">name : String</text><ellipse cx="135.5" cy="813.4453" fill="none" rx="3" ry="3" style="stroke:#038048;stroke-width:1.0;"/><text fill="#000000" font-family="sans-serif" font-size="14" lengthAdjust="spacing" textLength="125" x="144.5" y="817.7422">template : Template</text><ellipse cx="135.5" cy="832.0664" fill="none" rx="3" ry="3" style="stroke:#038048;stroke-width:1.0;"/><text fill="#000000" font-family="sans-serif" font-size="14" lengthAdjust="spacing" textLength="160" x="144.5" y="836.3633">alternatives : List&lt;String&gt;</text><ellipse cx="135.5" cy="850.6875" fill="none" rx="3" ry="3" style="stroke:#038048;stroke-width:1.0;"/><text fill="#000000" font-family="sans-serif" font-size="14" lengthAdjust="spacing" textLength="87" x="144.5" y="854.9844">report : String</text><line style="stroke:#181818;stroke-width:0.5;" x1="125.5" x2="309.5" y1="862.498" y2="862.498"/></g><!--class Note--><g id="elem_Note"><rect codeLine="71" fill="#F9E79F" height="66.6211" id="Note" rx="2.5" ry="2.5" style="stroke:#181818;stroke-width:0.5;" width="81" x="177" y="905.5137"/><ellipse cx="196.05" cy="921.5137" fill="#ADD1B2" rx="11" ry="11" style="stroke:#181818;stroke-width:1.0;"/><path d="M198.8156,917.3887 Q198.9719,917.1699 199.1594,917.0605 Q199.3469,916.9512 199.5656,916.9512 Q199.9406,916.9512 200.175,917.2168 Q200.4094,917.4668 200.4094,918.0762 L200.4094,919.5293 Q200.4094,920.1387 200.175,920.4043 Q199.9406,920.6699 199.5656,920.6699 Q199.2219,920.6699 199.0188,920.4668 Q198.8156,920.2793 198.7063,919.7637 Q198.6594,919.4043 198.4719,919.2168 Q198.1438,918.8418 197.5344,918.623 Q196.925,918.4043 196.3,918.4043 Q195.5344,918.4043 194.8938,918.7324 Q194.2688,919.0605 193.7688,919.8105 Q193.2844,920.5605 193.2844,921.5918 L193.2844,922.6855 Q193.2844,923.9199 194.175,924.748 Q195.0656,925.5605 196.6594,925.5605 Q197.5969,925.5605 198.2531,925.3105 Q198.6438,925.1543 199.0656,924.7168 Q199.3313,924.4512 199.4719,924.373 Q199.6281,924.2949 199.8313,924.2949 Q200.1594,924.2949 200.4094,924.5605 Q200.675,924.8105 200.675,925.1543 Q200.675,925.498 200.3313,925.9043 Q199.8313,926.4824 199.0344,926.8105 Q197.9563,927.2637 196.6594,927.2637 Q195.1438,927.2637 193.9406,926.6387 Q192.9563,926.1387 192.2688,925.0762 Q191.5813,923.998 191.5813,922.7168 L191.5813,921.5605 Q191.5813,920.2324 192.1906,919.0918 Q192.8156,917.9355 193.9094,917.3262 Q195.0031,916.7012 196.2375,916.7012 Q196.9719,916.7012 197.6125,916.873 Q198.2688,917.0293 198.8156,917.3887 Z " fill="#000000"/><ellipse cx="215.95" cy="921.0137" fill="#84BE84" rx="3" ry="3" style="stroke:#038048;stroke-width:1.0;"/><text fill="#000000" font-family="sans-serif" font-size="14" lengthAdjust="spacing" textLength="29" x="221.95" y="927.3105">Note</text><line style="stroke:#181818;stroke-width:0.5;" x1="178" x2="257" y1="937.5137" y2="937.5137"/><ellipse cx="188" cy="952.3242" fill="none" rx="3" ry="3" style="stroke:#038048;stroke-width:1.0;"/><text fill="#000000" font-family="sans-serif" font-size="14" lengthAdjust="spacing" textLength="55" x="197" y="956.6211">id : Long</text><line style="stroke:#181818;stroke-width:0.5;" x1="178" x2="257" y1="964.1348" y2="964.1348"/></g><!--class Template--><g id="elem_Template"><rect codeLine="78" fill="#F9E79F" height="66.6211" id="Template" rx="2.5" ry="2.5" style="stroke:#181818;stroke-width:0.5;" width="102" x="515" y="905.5137"/><ellipse cx="530" cy="921.5137" fill="#ADD1B2" rx="11" ry="11" style="stroke:#181818;stroke-width:1.0;"/><path d="M532.7656,917.3887 Q532.9219,917.1699 533.1094,917.0605 Q533.2969,916.9512 533.5156,916.9512 Q533.8906,916.9512 534.125,917.2168 Q534.3594,917.4668 534.3594,918.0762 L534.3594,919.5293 Q534.3594,920.1387 534.125,920.4043 Q533.8906,920.6699 533.5156,920.6699 Q533.1719,920.6699 532.9688,920.4668 Q532.7656,920.2793 532.6563,919.7637 Q532.6094,919.4043 532.4219,919.2168 Q532.0938,918.8418 531.4844,918.623 Q530.875,918.4043 530.25,918.4043 Q529.4844,918.4043 528.8438,918.7324 Q528.2188,919.0605 527.7188,919.8105 Q527.2344,920.5605 527.2344,921.5918 L527.2344,922.6855 Q527.2344,923.9199 528.125,924.748 Q529.0156,925.5605 530.6094,925.5605 Q531.5469,925.5605 532.2031,925.3105 Q532.5938,925.1543 533.0156,924.7168 Q533.2813,924.4512 533.4219,924.373 Q533.5781,924.2949 533.7813,924.2949 Q534.1094,924.2949 534.3594,924.5605 Q534.625,924.8105 534.625,925.1543 Q534.625,925.498 534.2813,925.9043 Q533.7813,926.4824 532.9844,926.8105 Q531.9063,927.2637 530.6094,927.2637 Q529.0938,927.2637 527.8906,926.6387 Q526.9063,926.1387 526.2188,925.0762 Q525.5313,923.998 525.5313,922.7168 L525.5313,921.5605 Q525.5313,920.2324 526.1406,919.0918 Q526.7656,917.9355 527.8594,917.3262 Q528.9531,916.7012 530.1875,916.7012 Q530.9219,916.7012 531.5625,916.873 Q532.2188,917.0293 532.7656,917.3887 Z " fill="#000000"/><ellipse cx="549" cy="921.0137" fill="#84BE84" rx="3" ry="3" style="stroke:#038048;stroke-width:1.0;"/><text fill="#000000" font-family="sans-serif" font-size="14" lengthAdjust="spacing" textLength="59" x="555" y="927.3105">Template</text><line style="stroke:#181818;stroke-width:0.5;" x1="516" x2="616" y1="937.5137" y2="937.5137"/><ellipse cx="526" cy="952.3242" fill="none" rx="3" ry="3" style="stroke:#038048;stroke-width:1.0;"/><text fill="#000000" font-family="sans-serif" font-size="14" lengthAdjust="spacing" textLength="55" x="535" y="956.6211">id : Long</text><line style="stroke:#181818;stroke-width:0.5;" x1="516" x2="616" y1="964.1348" y2="964.1348"/></g><!--class BaseTemplate--><g id="elem_BaseTemplate"><rect codeLine="82" fill="#F9E79F" height="85.2422" id="BaseTemplate" rx="2.5" ry="2.5" style="stroke:#181818;stroke-width:0.5;" width="156" x="488" y="785.5137"/><ellipse cx="512.9" cy="801.5137" fill="#ADD1B2" rx="11" ry="11" style="stroke:#181818;stroke-width:1.0;"/><path d="M515.6656,797.3887 Q515.8219,797.1699 516.0094,797.0605 Q516.1969,796.9512 516.4156,796.9512 Q516.7906,796.9512 517.025,797.2168 Q517.2594,797.4668 517.2594,798.0762 L517.2594,799.5293 Q517.2594,800.1387 517.025,800.4043 Q516.7906,800.6699 516.4156,800.6699 Q516.0719,800.6699 515.8688,800.4668 Q515.6656,800.2793 515.5563,799.7637 Q515.5094,799.4043 515.3219,799.2168 Q514.9938,798.8418 514.3844,798.623 Q513.775,798.4043 513.15,798.4043 Q512.3844,798.4043 511.7438,798.7324 Q511.1188,799.0605 510.6188,799.8105 Q510.1344,800.5605 510.1344,801.5918 L510.1344,802.6855 Q510.1344,803.9199 511.025,804.748 Q511.9156,805.5605 513.5094,805.5605 Q514.4469,805.5605 515.1031,805.3105 Q515.4938,805.1543 515.9156,804.7168 Q516.1813,804.4512 516.3219,804.373 Q516.4781,804.2949 516.6813,804.2949 Q517.0094,804.2949 517.2594,804.5605 Q517.525,804.8105 517.525,805.1543 Q517.525,805.498 517.1813,805.9043 Q516.6813,806.4824 515.8844,806.8105 Q514.8063,807.2637 513.5094,807.2637 Q511.9938,807.2637 510.7906,806.6387 Q509.8063,806.1387 509.1188,805.0762 Q508.4313,803.998 508.4313,802.7168 L508.4313,801.5605 Q508.4313,800.2324 509.0406,799.0918 Q509.6656,797.9355 510.7594,797.3262 Q511.8531,796.7012 513.0875,796.7012 Q513.8219,796.7012 514.4625,796.873 Q515.1188,797.0293 515.6656,797.3887 Z " fill="#000000"/><ellipse cx="534.1" cy="801.0137" fill="#84BE84" rx="3" ry="3" style="stroke:#038048;stroke-width:1.0;"/><text fill="#000000" font-family="sans-serif" font-size="14" lengthAdjust="spacing" textLength="91" x="540.1" y="807.3105">BaseTemplate</text><line style="stroke:#181818;stroke-width:0.5;" x1="489" x2="643" y1="817.5137" y2="817.5137"/><ellipse cx="499" cy="832.3242" fill="none" rx="3" ry="3" style="stroke:#038048;stroke-width:1.0;"/><text fill="#000000" font-family="sans-serif" font-size="14" lengthAdjust="spacing" textLength="84" x="508" y="836.6211">name : String</text><ellipse cx="499" cy="850.9453" fill="none" rx="3" ry="3" style="stroke:#038048;stroke-width:1.0;"/><text fill="#000000" font-family="sans-serif" font-size="14" lengthAdjust="spacing" textLength="130" x="508" y="855.2422">criteria : List&lt;String&gt;</text><line style="stroke:#181818;stroke-width:0.5;" x1="489" x2="643" y1="862.7559" y2="862.7559"/></g><!--class NoteRepository--><g id="elem_NoteRepository"><rect codeLine="91" fill="#F9E79F" height="122.4844" id="NoteRepository" rx="2.5" ry="2.5" style="stroke:#181818;stroke-width:0.5;" width="230" x="102.5" y="1149.0137"/><ellipse cx="158.75" cy="1165.0137" fill="#B4A7E5" rx="11" ry="11" style="stroke:#181818;stroke-width:1.0;"/><path d="M159.7031,1161.6543 L159.7031,1168.3105 L161.4219,1168.3105 Q162.0313,1168.3105 162.2969,1168.5449 Q162.5625,1168.7793 162.5625,1169.1699 Q162.5625,1169.5449 162.2969,1169.7793 Q162.0313,1170.0137 161.4219,1170.0137 L156.2813,1170.0137 Q155.6719,1170.0137 155.4063,1169.7793 Q155.1406,1169.5449 155.1406,1169.1543 Q155.1406,1168.7793 155.4063,1168.5449 Q155.6719,1168.3105 156.2813,1168.3105 L158,1168.3105 L158,1161.6543 L156.2813,1161.6543 Q155.6719,1161.6543 155.4063,1161.4199 Q155.1406,1161.1855 155.1406,1160.7949 Q155.1406,1160.4199 155.4063,1160.1855 Q155.6719,1159.9512 156.2813,1159.9512 L161.4219,1159.9512 Q162.0313,1159.9512 162.2969,1160.1855 Q162.5625,1160.4199 162.5625,1160.7949 Q162.5625,1161.1855 162.2969,1161.4199 Q162.0313,1161.6543 161.4219,1161.6543 L159.7031,1161.6543 Z " fill="#000000"/><ellipse cx="184.25" cy="1164.5137" fill="#84BE84" rx="3" ry="3" style="stroke:#038048;stroke-width:1.0;"/><text fill="#000000" font-family="sans-serif" font-size="14" font-style="italic" lengthAdjust="spacing" textLength="98" x="190.25" y="1170.8105">NoteRepository</text><line style="stroke:#181818;stroke-width:0.5;" x1="103.5" x2="331.5" y1="1181.0137" y2="1181.0137"/><line style="stroke:#181818;stroke-width:0.5;" x1="103.5" x2="331.5" y1="1189.0137" y2="1189.0137"/><ellipse cx="113.5" cy="1203.8242" fill="#84BE84" rx="3" ry="3" style="stroke:#038048;stroke-width:1.0;"/><text fill="#000000" font-family="sans-serif" font-size="14" lengthAdjust="spacing" textLength="171" x="122.5" y="1208.1211">deleteNote(Note) : Boolean</text><ellipse cx="113.5" cy="1222.4453" fill="#84BE84" rx="3" ry="3" style="stroke:#038048;stroke-width:1.0;"/><text fill="#000000" font-family="sans-serif" font-size="14" lengthAdjust="spacing" textLength="204" x="122.5" y="1226.7422">createNote(BaseNote) : Boolean</text><ellipse cx="113.5" cy="1241.0664" fill="#84BE84" rx="3" ry="3" style="stroke:#038048;stroke-width:1.0;"/><text fill="#000000" font-family="sans-serif" font-size="14" lengthAdjust="spacing" textLength="145" x="122.5" y="1245.3633">getNotes() : List&lt;Note&gt;</text><ellipse cx="113.5" cy="1259.6875" fill="#84BE84" rx="3" ry="3" style="stroke:#038048;stroke-width:1.0;"/><text fill="#000000" font-family="sans-serif" font-size="14" lengthAdjust="spacing" textLength="100" x="122.5" y="1263.9844">deleteAllNotes()</text></g><!--class TemplateRepository--><g id="elem_TemplateRepository"><rect codeLine="98" fill="#F9E79F" height="122.4844" id="TemplateRepository" rx="2.5" ry="2.5" style="stroke:#181818;stroke-width:0.5;" width="290" x="421" y="1149.0137"/><ellipse cx="492.75" cy="1165.0137" fill="#B4A7E5" rx="11" ry="11" style="stroke:#181818;stroke-width:1.0;"/><path d="M493.7031,1161.6543 L493.7031,1168.3105 L495.4219,1168.3105 Q496.0313,1168.3105 496.2969,1168.5449 Q496.5625,1168.7793 496.5625,1169.1699 Q496.5625,1169.5449 496.2969,1169.7793 Q496.0313,1170.0137 495.4219,1170.0137 L490.2813,1170.0137 Q489.6719,1170.0137 489.4063,1169.7793 Q489.1406,1169.5449 489.1406,1169.1543 Q489.1406,1168.7793 489.4063,1168.5449 Q489.6719,1168.3105 490.2813,1168.3105 L492,1168.3105 L492,1161.6543 L490.2813,1161.6543 Q489.6719,1161.6543 489.4063,1161.4199 Q489.1406,1161.1855 489.1406,1160.7949 Q489.1406,1160.4199 489.4063,1160.1855 Q489.6719,1159.9512 490.2813,1159.9512 L495.4219,1159.9512 Q496.0313,1159.9512 496.2969,1160.1855 Q496.5625,1160.4199 496.5625,1160.7949 Q496.5625,1161.1855 496.2969,1161.4199 Q496.0313,1161.6543 495.4219,1161.6543 L493.7031,1161.6543 Z " fill="#000000"/><ellipse cx="518.25" cy="1164.5137" fill="#84BE84" rx="3" ry="3" style="stroke:#038048;stroke-width:1.0;"/><text fill="#000000" font-family="sans-serif" font-size="14" font-style="italic" lengthAdjust="spacing" textLength="127" x="524.25" y="1170.8105">TemplateRepository</text><line style="stroke:#181818;stroke-width:0.5;" x1="422" x2="710" y1="1181.0137" y2="1181.0137"/><line style="stroke:#181818;stroke-width:0.5;" x1="422" x2="710" y1="1189.0137" y2="1189.0137"/><ellipse cx="432" cy="1203.8242" fill="#84BE84" rx="3" ry="3" style="stroke:#038048;stroke-width:1.0;"/><text fill="#000000" font-family="sans-serif" font-size="14" lengthAdjust="spacing" textLength="231" x="441" y="1208.1211">deleteTemplate(Template) : Boolean</text><ellipse cx="432" cy="1222.4453" fill="#84BE84" rx="3" ry="3" style="stroke:#038048;stroke-width:1.0;"/><text fill="#000000" font-family="sans-serif" font-size="14" lengthAdjust="spacing" textLength="264" x="441" y="1226.7422">createTemplate(BaseTemplate) : Boolean</text><ellipse cx="432" cy="1241.0664" fill="#84BE84" rx="3" ry="3" style="stroke:#038048;stroke-width:1.0;"/><text fill="#000000" font-family="sans-serif" font-size="14" lengthAdjust="spacing" textLength="205" x="441" y="1245.3633">getTemplates() : List&lt;Template&gt;</text><ellipse cx="432" cy="1259.6875" fill="#84BE84" rx="3" ry="3" style="stroke:#038048;stroke-width:1.0;"/><text fill="#000000" font-family="sans-serif" font-size="14" lengthAdjust="spacing" textLength="163" x="441" y="1263.9844">deleteUnusedTemplates()</text></g><!--link NotesLoader to NotesDeleter--><!--link NotesDeleter to NotesCreator--><!--link TemplatesLoader to TemplatesDeleter--><!--link TemplatesDeleter to TemplatesCreator--><!--link NotesDeleter to TemplatesDeleter--><!--link BaseNote to Note--><!--link Note to BaseNote--><g id="link_Note_BaseNote"><path codeLine="127" d="M231,905.1937 C231,894.4437 231,900.1837 231,888.1137 " fill="none" id="Note-to-BaseNote" style="stroke:#181818;stroke-width:1.0;"/><polygon fill="none" points="231,870.1137,225,888.1137,237,888.1137,231,870.1137" style="stroke:#181818;stroke-width:1.0;"/></g><!--link Template to BaseTemplate--><!--link Template to BaseTemplate--><g id="link_Template_BaseTemplate"><path codeLine="128" d="M583,905.4137 C583,894.4337 583,900.0937 583,888.5537 " fill="none" id="Template-to-BaseTemplate" style="stroke:#181818;stroke-width:1.0;"/><polygon fill="none" points="583,870.5537,577,888.5537,589,888.5537,583,870.5537" style="stroke:#181818;stroke-width:1.0;"/></g><!--link Note to Template--><!--link NoteRepository to TemplateRepository--><!--link use_case to model--><!--link model to repository--><!--link Templates to TemplateRepository--><g id="link_Templates_TemplateRepository"><path codeLine="129" d="M566,1016.1499 C566,1016.3522 566,1016.558 566,1016.7672 C566,1017.6037 566,1018.4942 566,1019.4357 C566,1021.3187 566,1023.4061 566,1025.6763 C566,1034.7571 566,1046.7618 566,1060.3024 C566,1087.3837 566,1108.6087 566,1136.8737 " fill="none" id="Templates-to-TemplateRepository" style="stroke:#181818;stroke-width:1.0;"/><polygon fill="none" points="566,1148.8737,570,1142.8737,566,1136.8737,562,1142.8737,566,1148.8737" style="stroke:#181818;stroke-width:1.0;"/></g><!--link Notes to NoteRepository--><g id="link_Notes_NoteRepository"><path codeLine="130" d="M239,1016.2346 C239,1016.3416 239,1016.4494 239,1016.5582 C239,1016.7758 239,1016.9971 239,1017.2222 C239,1017.6722 239,1018.137 239,1018.6161 C239,1019.5743 239,1020.59 239,1021.6599 C239,1030.2193 239,1042.2512 239,1056.1412 C239,1083.9212 239,1107.1337 239,1136.8637 " fill="none" id="Notes-to-NoteRepository" style="stroke:#181818;stroke-width:1.0;"/><polygon fill="none" points="239,1148.8637,243,1142.8637,239,1136.8637,235,1142.8637,239,1148.8637" style="stroke:#181818;stroke-width:1.0;"/></g><!--reverse link Use Cases for Notes to NoteRepository--><g id="link_Use Cases for Notes_NoteRepository"><path codeLine="132" d="M326,566.0266 C326,568.3982 326,562.4152 326,565.4904 C326,577.7914 326,595.5477 326,617.3685 C326,661.0102 326,720.9105 326,785.9449 C326,916.0137 326,1066.6187 326,1148.7637 " fill="none" id="Use Cases for Notes-backto-NoteRepository" style="stroke:#181818;stroke-width:1.0;"/><polygon fill="none" points="326,554.0266,322,560.0266,326,566.0266,330,560.0266,326,554.0266" style="stroke:#181818;stroke-width:1.0;"/></g><!--reverse link Use Cases for Templates to TemplateRepository--><g id="link_Use Cases for Templates_TemplateRepository"><path codeLine="133" d="M456,566.1536 C456,566.7021 456,556.0788 456,556.673 C456,559.0497 456,561.7898 456,564.8716 C456,577.1987 456,594.9922 456,616.8576 C456,660.5884 456,720.6068 456,785.7574 C456,916.0587 456,1066.8887 456,1149.0037 " fill="none" id="Use Cases for Templates-backto-TemplateRepository" style="stroke:#181818;stroke-width:1.0;"/><polygon fill="none" points="456,554.1536,452,560.1536,456,566.1536,460,560.1536,456,554.1536" style="stroke:#181818;stroke-width:1.0;"/></g><!--reverse link Use Cases for Notes to Notes--><g id="link_Use Cases for Notes_Notes"><path codeLine="134" d="M114,566.0325 C114,568.4858 114,562.707 114,565.8652 C114,578.498 114,596.5449 114,618.2012 C114,639.8574 114,665.123 114,692.1934 C114,695.5771 114,698.9891 114,702.4258 " fill="none" id="Use Cases for Notes-backto-Notes" style="stroke:#181818;stroke-width:1.0;"/><polygon fill="none" points="114,554.0325,110,560.0325,114,566.0325,118,560.0325,114,554.0325" style="stroke:#181818;stroke-width:1.0;"/></g><!--SRC=[jLPHJzim47xFhx3W0L2LCP2cYMaWjOK-eMqgy3HDaucFrgjhLxQPn3R-E-UaIPpOQTC9yWBrVNVtdVtvV08UBB6AQ3wRMyAuXino9HEpu795DLqImINOfnKGfUrSUGRBhO2HqWpqL3rADbPQWYOdx-EOspdF5XAC8QTnm5W9fSczeDcY3PWeQM_u7o2d7nBFzWsXT0OZ_3FJ1GKNOlzgE1bEJZpW5AkYSYP2wEJoQdJfCnuBQam8ExlwU3P9akJuW7oz_uNXoC5niYho4wQMb4loDo7uwJ8NUJJmCwC6reQcSUyE3MEq6lA06Rue2sQFxBlTViUecGFptDmto1op0ZZMG2rwDH7kIoNQfx1IXYFWYNpA7Ug5mE7yF5WQP2uyECV34J9q_nnXf95I0gXiu9-JJfAN8C32cv5aUVYSv2Q27dOeH4xiyAXl2TUAihUhO0PspGVzhxcndztFYnOvZ-Ps6Tt2SYLeJobLu0roicjCezRRO747MPNEkRJA7xl9goA-GMAlIRoGJqLy6sdFvqvY4s0LtrxAgz3TwdlDub257hzIYULIjnfzJTPwN2eiFDhmSgdtK6NPSI9r3oHT0ZAyiPhBMMWkjyNRZ1141If6Kij_8vrrjKN0Yn2iSI-rZQVixXinwfovP2g8iVbwLoUpmtNU9NlN0MoAjUKGCirnWpdTjBVRTQHhPTSK1bnYw0UQGQlTjZUavzkmoqFNgrjtFpJULdjLX5SsNadlrlC_FNQd3h2rhvK7-fpFIjK8bDU7WwKRc_odDVq-vuo1_A7JnjIGD4Q80BL-iP9sh_I1xLSY2PwDA3e87Q0VMrHTeKNVQrTP-uYqQcnLv4P-_wGYY7NEF9TtDze9FI5LhYoDFGqkK3c_-b6g4_F9vTKbHOt-kcx6cm8cmJYchZ_zTn4hl5mEAZPeqof6k7W_ScjhrWegJuMApzT9vCB5qFKOLQNj3Fa2]--></g></svg>