<?xml version="1.0" encoding="us-ascii" standalone="no"?><svg xmlns="http://www.w3.org/2000/svg" xmlns:xlink="http://www.w3.org/1999/xlink" contentStyleType="text/css" height="566px" preserveAspectRatio="none" style="width:834px;height:566px;background:#FFFFFF;" version="1.1" viewBox="0 0 834 566" width="834px" zoomAndPan="magnify"><defs/><g><rect fill="none" height="43.252" id="_title" rx="5" ry="5" style="stroke:#000000;stroke-width:2.0;" width="509" x="155.5" y="5"/><text fill="#000000" font-family="sans-serif" font-size="25" font-weight="bold" lengthAdjust="spacing" textLength="499" x="160.5" y="36.9775">&#1044;&#1080;&#1072;&#1075;&#1088;&#1072;&#1084;&#1084;&#1072; &#1082;&#1083;&#1072;&#1089;&#1089;&#1086;&#1074; &#1084;&#1086;&#1076;&#1091;&#1083;&#1103; &#1084;&#1072;&#1090;&#1077;&#1084;&#1072;&#1090;&#1080;&#1082;&#1080;</text><!--cluster mai--><g id="cluster_mai"><path d="M8.5,60.2656 L33.5,60.2656 A3.75,3.75 0 0 1 36,62.7656 L43,84.8867 L824.5,84.8867 A2.5,2.5 0 0 1 827,87.3867 L827,556.7656 A2.5,2.5 0 0 1 824.5,559.2656 L8.5,559.2656 A2.5,2.5 0 0 1 6,556.7656 L6,62.7656 A2.5,2.5 0 0 1 8.5,60.2656 " fill="#EAFAF1" style="stroke:#000000;stroke-width:1.5;"/><line style="stroke:#000000;stroke-width:1.5;" x1="6" x2="43" y1="84.8867" y2="84.8867"/><text fill="#000000" font-family="sans-serif" font-size="14" font-weight="bold" lengthAdjust="spacing" textLength="24" x="10" y="77.373">mai</text></g><!--cluster mai--><g id="cluster_mai"><rect fill="#FDEBD0" height="332" rx="2.5" ry="2.5" style="stroke:#181818;stroke-width:1.0;" width="338" x="30" y="203.2656"/><text fill="#000000" font-family="sans-serif" font-size="14" font-weight="bold" lengthAdjust="spacing" textLength="24" x="187" y="220.373">mai</text></g><!--cluster matrix_extensions--><g id="cluster_matrix_extensions"><rect fill="#FDEBD0" height="430" rx="2.5" ry="2.5" style="stroke:#181818;stroke-width:1.0;" width="407" x="396" y="105.2656"/><text fill="#000000" font-family="sans-serif" font-size="14" font-weight="bold" lengthAdjust="spacing" textLength="129" x="535" y="122.373">matrix_extensions</text></g><!--class FinalWeights--><g id="elem_FinalWeights"><rect codeLine="18" fill="#F9E79F" height="122.4844" id="FinalWeights" rx="2.5" ry="2.5" style="stroke:#181818;stroke-width:0.5;" width="284" x="57" y="397.2656"/><ellipse cx="148.25" cy="413.2656" fill="#ADD1B2" rx="11" ry="11" style="stroke:#181818;stroke-width:1.0;"/><path d="M151.0156,409.1406 Q151.1719,408.9219 151.3594,408.8125 Q151.5469,408.7031 151.7656,408.7031 Q152.1406,408.7031 152.375,408.9688 Q152.6094,409.2188 152.6094,409.8281 L152.6094,411.2813 Q152.6094,411.8906 152.375,412.1563 Q152.1406,412.4219 151.7656,412.4219 Q151.4219,412.4219 151.2188,412.2188 Q151.0156,412.0313 150.9063,411.5156 Q150.8594,411.1563 150.6719,410.9688 Q150.3438,410.5938 149.7344,410.375 Q149.125,410.1563 148.5,410.1563 Q147.7344,410.1563 147.0938,410.4844 Q146.4688,410.8125 145.9688,411.5625 Q145.4844,412.3125 145.4844,413.3438 L145.4844,414.4375 Q145.4844,415.6719 146.375,416.5 Q147.2656,417.3125 148.8594,417.3125 Q149.7969,417.3125 150.4531,417.0625 Q150.8438,416.9063 151.2656,416.4688 Q151.5313,416.2031 151.6719,416.125 Q151.8281,416.0469 152.0313,416.0469 Q152.3594,416.0469 152.6094,416.3125 Q152.875,416.5625 152.875,416.9063 Q152.875,417.25 152.5313,417.6563 Q152.0313,418.2344 151.2344,418.5625 Q150.1563,419.0156 148.8594,419.0156 Q147.3438,419.0156 146.1406,418.3906 Q145.1563,417.8906 144.4688,416.8281 Q143.7813,415.75 143.7813,414.4688 L143.7813,413.3125 Q143.7813,411.9844 144.3906,410.8438 Q145.0156,409.6875 146.1094,409.0781 Q147.2031,408.4531 148.4375,408.4531 Q149.1719,408.4531 149.8125,408.625 Q150.4688,408.7813 151.0156,409.1406 Z " fill="#000000"/><ellipse cx="173.75" cy="412.7656" fill="#84BE84" rx="3" ry="3" style="stroke:#038048;stroke-width:1.0;"/><text fill="#000000" font-family="sans-serif" font-size="14" lengthAdjust="spacing" textLength="82" x="179.75" y="419.0625">FinalWeights</text><line style="stroke:#181818;stroke-width:0.5;" x1="58" x2="340" y1="429.2656" y2="429.2656"/><ellipse cx="68" cy="444.0762" fill="none" rx="3" ry="3" style="stroke:#038048;stroke-width:1.0;"/><text fill="#000000" font-family="sans-serif" font-size="14" lengthAdjust="spacing" textLength="230" x="77" y="448.373">relativeWeights : List&lt;List&lt;Double&gt;&gt;</text><ellipse cx="68" cy="462.6973" fill="none" rx="3" ry="3" style="stroke:#038048;stroke-width:1.0;"/><text fill="#000000" font-family="sans-serif" font-size="14" lengthAdjust="spacing" textLength="223" x="77" y="466.9941">finalRelativeWeights : List&lt;Double&gt;</text><line style="stroke:#181818;stroke-width:1.0;" x1="58" x2="340" y1="474.5078" y2="474.5078"/><line style="stroke:#181818;stroke-width:1.0;" x1="58" x2="340" y1="476.5078" y2="476.5078"/><ellipse cx="68" cy="489.3184" fill="#84BE84" rx="3" ry="3" style="stroke:#038048;stroke-width:1.0;"/><text fill="#000000" font-family="sans-serif" font-size="14" lengthAdjust="spacing" textLength="160" x="77" y="493.6152">encodeToString() : String</text><ellipse cx="68" cy="507.9395" fill="#84BE84" rx="3" ry="3" style="stroke:#038048;stroke-width:1.0;"/><text fill="#000000" font-family="sans-serif" font-size="14" lengthAdjust="spacing" text-decoration="underline" textLength="258" x="77" y="512.2363">decodeFromString(String) : FinalWeights</text></g><!--class InputParameters--><g id="elem_InputParameters"><rect codeLine="26" fill="#F9E79F" height="122.4844" id="InputParameters" rx="2.5" ry="2.5" style="stroke:#181818;stroke-width:0.5;" width="306" x="46" y="240.2656"/><ellipse cx="137.25" cy="256.2656" fill="#ADD1B2" rx="11" ry="11" style="stroke:#181818;stroke-width:1.0;"/><path d="M140.0156,252.1406 Q140.1719,251.9219 140.3594,251.8125 Q140.5469,251.7031 140.7656,251.7031 Q141.1406,251.7031 141.375,251.9688 Q141.6094,252.2188 141.6094,252.8281 L141.6094,254.2813 Q141.6094,254.8906 141.375,255.1563 Q141.1406,255.4219 140.7656,255.4219 Q140.4219,255.4219 140.2188,255.2188 Q140.0156,255.0313 139.9063,254.5156 Q139.8594,254.1563 139.6719,253.9688 Q139.3438,253.5938 138.7344,253.375 Q138.125,253.1563 137.5,253.1563 Q136.7344,253.1563 136.0938,253.4844 Q135.4688,253.8125 134.9688,254.5625 Q134.4844,255.3125 134.4844,256.3438 L134.4844,257.4375 Q134.4844,258.6719 135.375,259.5 Q136.2656,260.3125 137.8594,260.3125 Q138.7969,260.3125 139.4531,260.0625 Q139.8438,259.9063 140.2656,259.4688 Q140.5313,259.2031 140.6719,259.125 Q140.8281,259.0469 141.0313,259.0469 Q141.3594,259.0469 141.6094,259.3125 Q141.875,259.5625 141.875,259.9063 Q141.875,260.25 141.5313,260.6563 Q141.0313,261.2344 140.2344,261.5625 Q139.1563,262.0156 137.8594,262.0156 Q136.3438,262.0156 135.1406,261.3906 Q134.1563,260.8906 133.4688,259.8281 Q132.7813,258.75 132.7813,257.4688 L132.7813,256.3125 Q132.7813,254.9844 133.3906,253.8438 Q134.0156,252.6875 135.1094,252.0781 Q136.2031,251.4531 137.4375,251.4531 Q138.1719,251.4531 138.8125,251.625 Q139.4688,251.7813 140.0156,252.1406 Z " fill="#000000"/><ellipse cx="162.75" cy="255.7656" fill="#84BE84" rx="3" ry="3" style="stroke:#038048;stroke-width:1.0;"/><text fill="#000000" font-family="sans-serif" font-size="14" lengthAdjust="spacing" textLength="104" x="168.75" y="262.0625">InputParameters</text><line style="stroke:#181818;stroke-width:0.5;" x1="47" x2="351" y1="272.2656" y2="272.2656"/><ellipse cx="57" cy="287.0762" fill="none" rx="3" ry="3" style="stroke:#038048;stroke-width:1.0;"/><text fill="#000000" font-family="sans-serif" font-size="14" lengthAdjust="spacing" textLength="138" x="66" y="291.373">criteriaMatrix : KMatrix</text><ellipse cx="57" cy="305.6973" fill="none" rx="3" ry="3" style="stroke:#038048;stroke-width:1.0;"/><text fill="#000000" font-family="sans-serif" font-size="14" lengthAdjust="spacing" textLength="218" x="66" y="309.9941">candidatesMatrices : List&lt;KMatrix&gt;</text><line style="stroke:#181818;stroke-width:1.0;" x1="47" x2="351" y1="317.5078" y2="317.5078"/><line style="stroke:#181818;stroke-width:1.0;" x1="47" x2="351" y1="319.5078" y2="319.5078"/><ellipse cx="57" cy="332.3184" fill="#84BE84" rx="3" ry="3" style="stroke:#038048;stroke-width:1.0;"/><text fill="#000000" font-family="sans-serif" font-size="14" lengthAdjust="spacing" textLength="160" x="66" y="336.6152">encodeToString() : String</text><ellipse cx="57" cy="350.9395" fill="#84BE84" rx="3" ry="3" style="stroke:#038048;stroke-width:1.0;"/><text fill="#000000" font-family="sans-serif" font-size="14" lengthAdjust="spacing" text-decoration="underline" textLength="280" x="66" y="355.2363">decodeFromString(String) : InputParameters</text></g><!--class KMatrix--><g id="elem_KMatrix"><rect codeLine="36" fill="#F9E79F" height="66.6211" id="KMatrix" rx="2.5" ry="2.5" style="stroke:#181818;stroke-width:0.5;" width="109" x="545" y="281.7656"/><ellipse cx="569" cy="297.7656" fill="#ADD1B2" rx="11" ry="11" style="stroke:#181818;stroke-width:1.0;"/><path d="M571.7656,293.6406 Q571.9219,293.4219 572.1094,293.3125 Q572.2969,293.2031 572.5156,293.2031 Q572.8906,293.2031 573.125,293.4688 Q573.3594,293.7188 573.3594,294.3281 L573.3594,295.7813 Q573.3594,296.3906 573.125,296.6563 Q572.8906,296.9219 572.5156,296.9219 Q572.1719,296.9219 571.9688,296.7188 Q571.7656,296.5313 571.6563,296.0156 Q571.6094,295.6563 571.4219,295.4688 Q571.0938,295.0938 570.4844,294.875 Q569.875,294.6563 569.25,294.6563 Q568.4844,294.6563 567.8438,294.9844 Q567.2188,295.3125 566.7188,296.0625 Q566.2344,296.8125 566.2344,297.8438 L566.2344,298.9375 Q566.2344,300.1719 567.125,301 Q568.0156,301.8125 569.6094,301.8125 Q570.5469,301.8125 571.2031,301.5625 Q571.5938,301.4063 572.0156,300.9688 Q572.2813,300.7031 572.4219,300.625 Q572.5781,300.5469 572.7813,300.5469 Q573.1094,300.5469 573.3594,300.8125 Q573.625,301.0625 573.625,301.4063 Q573.625,301.75 573.2813,302.1563 Q572.7813,302.7344 571.9844,303.0625 Q570.9063,303.5156 569.6094,303.5156 Q568.0938,303.5156 566.8906,302.8906 Q565.9063,302.3906 565.2188,301.3281 Q564.5313,300.25 564.5313,298.9688 L564.5313,297.8125 Q564.5313,296.4844 565.1406,295.3438 Q565.7656,294.1875 566.8594,293.5781 Q567.9531,292.9531 569.1875,292.9531 Q569.9219,292.9531 570.5625,293.125 Q571.2188,293.2813 571.7656,293.6406 Z " fill="#000000"/><ellipse cx="590" cy="297.2656" fill="#84BE84" rx="3" ry="3" style="stroke:#038048;stroke-width:1.0;"/><text fill="#000000" font-family="sans-serif" font-size="14" lengthAdjust="spacing" textLength="46" x="596" y="303.5625">KMatrix</text><line style="stroke:#181818;stroke-width:0.5;" x1="546" x2="653" y1="313.7656" y2="313.7656"/><ellipse cx="556" cy="328.5762" fill="none" rx="3" ry="3" style="stroke:#038048;stroke-width:1.0;"/><text fill="#000000" font-family="sans-serif" font-size="14" lengthAdjust="spacing" textLength="83" x="565" y="332.873">value : Matrix</text><line style="stroke:#181818;stroke-width:0.5;" x1="546" x2="653" y1="340.3867" y2="340.3867"/></g><!--class MatrixSerializer--><g id="elem_MatrixSerializer"><rect codeLine="40" fill="#F9E79F" height="135.0664" id="MatrixSerializer" rx="2.5" ry="2.5" style="stroke:#181818;stroke-width:0.5;" width="375" x="412" y="383.7656"/><ellipse cx="536.75" cy="406.0566" fill="#ADD1B2" rx="11" ry="11" style="stroke:#181818;stroke-width:1.0;"/><path d="M539.5156,401.9316 Q539.6719,401.7129 539.8594,401.6035 Q540.0469,401.4941 540.2656,401.4941 Q540.6406,401.4941 540.875,401.7598 Q541.1094,402.0098 541.1094,402.6191 L541.1094,404.0723 Q541.1094,404.6816 540.875,404.9473 Q540.6406,405.2129 540.2656,405.2129 Q539.9219,405.2129 539.7188,405.0098 Q539.5156,404.8223 539.4063,404.3066 Q539.3594,403.9473 539.1719,403.7598 Q538.8438,403.3848 538.2344,403.166 Q537.625,402.9473 537,402.9473 Q536.2344,402.9473 535.5938,403.2754 Q534.9688,403.6035 534.4688,404.3535 Q533.9844,405.1035 533.9844,406.1348 L533.9844,407.2285 Q533.9844,408.4629 534.875,409.291 Q535.7656,410.1035 537.3594,410.1035 Q538.2969,410.1035 538.9531,409.8535 Q539.3438,409.6973 539.7656,409.2598 Q540.0313,408.9941 540.1719,408.916 Q540.3281,408.8379 540.5313,408.8379 Q540.8594,408.8379 541.1094,409.1035 Q541.375,409.3535 541.375,409.6973 Q541.375,410.041 541.0313,410.4473 Q540.5313,411.0254 539.7344,411.3535 Q538.6563,411.8066 537.3594,411.8066 Q535.8438,411.8066 534.6406,411.1816 Q533.6563,410.6816 532.9688,409.6191 Q532.2813,408.541 532.2813,407.2598 L532.2813,406.1035 Q532.2813,404.7754 532.8906,403.6348 Q533.5156,402.4785 534.6094,401.8691 Q535.7031,401.2441 536.9375,401.2441 Q537.6719,401.2441 538.3125,401.416 Q538.9688,401.5723 539.5156,401.9316 Z " fill="#000000"/><text fill="#000000" font-family="sans-serif" font-size="12" font-style="italic" lengthAdjust="spacing" textLength="121" x="555.25" y="401.7148">&#171;KSerializer&lt;Matrix&gt;&#187;</text><ellipse cx="567.75" cy="413.5371" fill="#84BE84" rx="3" ry="3" style="stroke:#038048;stroke-width:1.0;"/><text fill="#000000" font-family="sans-serif" font-size="14" lengthAdjust="spacing" textLength="95" x="573.75" y="419.834">MatrixSerializer</text><line style="stroke:#181818;stroke-width:0.5;" x1="413" x2="786" y1="428.3477" y2="428.3477"/><rect fill="none" height="6" style="stroke:#C82930;stroke-width:1.0;" width="6" x="420" y="440.1582"/><text fill="#000000" font-family="sans-serif" font-size="14" lengthAdjust="spacing" textLength="349" x="432" y="447.4551">delegatedSerializer :  KSerializer&lt;Array&lt;DoubleArray&gt;&gt;</text><ellipse cx="423" cy="461.7793" fill="none" rx="3" ry="3" style="stroke:#038048;stroke-width:1.0;"/><text fill="#000000" font-family="sans-serif" font-size="14" lengthAdjust="spacing" textLength="176" x="432" y="466.0762">descriptor : SerialDescriptor</text><line style="stroke:#181818;stroke-width:1.0;" x1="413" x2="786" y1="473.5898" y2="473.5898"/><line style="stroke:#181818;stroke-width:1.0;" x1="413" x2="786" y1="475.5898" y2="475.5898"/><ellipse cx="423" cy="488.4004" fill="#84BE84" rx="3" ry="3" style="stroke:#038048;stroke-width:1.0;"/><text fill="#000000" font-family="sans-serif" font-size="14" lengthAdjust="spacing" textLength="180" x="432" y="492.6973">deserialize(Decoder) : Matrix</text><ellipse cx="423" cy="507.0215" fill="#84BE84" rx="3" ry="3" style="stroke:#038048;stroke-width:1.0;"/><text fill="#000000" font-family="sans-serif" font-size="14" lengthAdjust="spacing" textLength="159" x="432" y="511.3184">serialize(Encoder, Matrix)</text></g><!--class MaiCoefficients--><g id="elem_MaiCoefficients"><rect codeLine="48" fill="#F9E79F" height="103.8633" id="MaiCoefficients" rx="2.5" ry="2.5" style="stroke:#181818;stroke-width:0.5;" width="159" x="520" y="142.2656"/><ellipse cx="544" cy="158.2656" fill="#ADD1B2" rx="11" ry="11" style="stroke:#181818;stroke-width:1.0;"/><path d="M546.7656,154.1406 Q546.9219,153.9219 547.1094,153.8125 Q547.2969,153.7031 547.5156,153.7031 Q547.8906,153.7031 548.125,153.9688 Q548.3594,154.2188 548.3594,154.8281 L548.3594,156.2813 Q548.3594,156.8906 548.125,157.1563 Q547.8906,157.4219 547.5156,157.4219 Q547.1719,157.4219 546.9688,157.2188 Q546.7656,157.0313 546.6563,156.5156 Q546.6094,156.1563 546.4219,155.9688 Q546.0938,155.5938 545.4844,155.375 Q544.875,155.1563 544.25,155.1563 Q543.4844,155.1563 542.8438,155.4844 Q542.2188,155.8125 541.7188,156.5625 Q541.2344,157.3125 541.2344,158.3438 L541.2344,159.4375 Q541.2344,160.6719 542.125,161.5 Q543.0156,162.3125 544.6094,162.3125 Q545.5469,162.3125 546.2031,162.0625 Q546.5938,161.9063 547.0156,161.4688 Q547.2813,161.2031 547.4219,161.125 Q547.5781,161.0469 547.7813,161.0469 Q548.1094,161.0469 548.3594,161.3125 Q548.625,161.5625 548.625,161.9063 Q548.625,162.25 548.2813,162.6563 Q547.7813,163.2344 546.9844,163.5625 Q545.9063,164.0156 544.6094,164.0156 Q543.0938,164.0156 541.8906,163.3906 Q540.9063,162.8906 540.2188,161.8281 Q539.5313,160.75 539.5313,159.4688 L539.5313,158.3125 Q539.5313,156.9844 540.1406,155.8438 Q540.7656,154.6875 541.8594,154.0781 Q542.9531,153.4531 544.1875,153.4531 Q544.9219,153.4531 545.5625,153.625 Q546.2188,153.7813 546.7656,154.1406 Z " fill="#000000"/><ellipse cx="565" cy="157.7656" fill="#84BE84" rx="3" ry="3" style="stroke:#038048;stroke-width:1.0;"/><text fill="#000000" font-family="sans-serif" font-size="14" lengthAdjust="spacing" textLength="96" x="571" y="164.0625">MaiCoefficients</text><line style="stroke:#181818;stroke-width:0.5;" x1="521" x2="678" y1="174.2656" y2="174.2656"/><line style="stroke:#181818;stroke-width:0.5;" x1="521" x2="678" y1="182.2656" y2="182.2656"/><ellipse cx="531" cy="197.0762" fill="#84BE84" rx="3" ry="3" style="stroke:#038048;stroke-width:1.0;"/><text fill="#000000" font-family="sans-serif" font-size="14" lengthAdjust="spacing" text-decoration="underline" textLength="126" x="540" y="201.373">RI(KMatrix) : Double</text><ellipse cx="531" cy="215.6973" fill="#84BE84" rx="3" ry="3" style="stroke:#038048;stroke-width:1.0;"/><text fill="#000000" font-family="sans-serif" font-size="14" lengthAdjust="spacing" text-decoration="underline" textLength="126" x="540" y="219.9941">CI(KMatrix) : Double</text><ellipse cx="531" cy="234.3184" fill="#84BE84" rx="3" ry="3" style="stroke:#038048;stroke-width:1.0;"/><text fill="#000000" font-family="sans-serif" font-size="14" lengthAdjust="spacing" text-decoration="underline" textLength="133" x="540" y="238.6152">CR(KMatrix) : Double</text></g><!--reverse link MatrixSerializer to KMatrix--><g id="link_MatrixSerializer_KMatrix"><path codeLine="57" d="M600,377.6656 C600,365.6656 600,359.6456 600,349.1056 " fill="none" id="MatrixSerializer-backto-KMatrix" style="stroke:#181818;stroke-width:1.0;stroke-dasharray:7.0,7.0;"/><polygon fill="#181818" points="600,383.6656,604,374.6656,600,378.6656,596,374.6656,600,383.6656" style="stroke:#181818;stroke-width:1.0;"/></g><!--link KMatrix to MaiCoefficients--><g id="link_KMatrix_MaiCoefficients"><path codeLine="58" d="M600,281.5556 C600,270.6556 600,270.2856 600,258.3656 " fill="none" id="KMatrix-to-MaiCoefficients" style="stroke:#181818;stroke-width:1.0;"/><polygon fill="none" points="600,246.3656,596,252.3656,600,258.3656,604,252.3656,600,246.3656" style="stroke:#181818;stroke-width:1.0;"/></g><!--reverse link InputParameters to KMatrix--><g id="link_InputParameters_KMatrix"><path codeLine="59" d="M364.13,315.2656 C431.92,315.2656 495.35,315.2656 544.89,315.2656 " fill="none" id="InputParameters-backto-KMatrix" style="stroke:#181818;stroke-width:1.0;"/><polygon fill="none" points="352.13,315.2656,358.13,319.2656,364.13,315.2656,358.13,311.2656,352.13,315.2656" style="stroke:#181818;stroke-width:1.0;"/></g><!--SRC=[lLJRQjim6BxtKmXsqOGkxLeOeoKDv6GetLX92hiSYlt7qQ98GL9Akn9ejmVOpHuax01X7Nq6-Oqc-P0eTXROpMomPFtV9_tVVn25eKAA8q6YaK8X4H0emfadnuHDiS0JH0a3TJi5n8KQSSUWYABGuY84qUCp5hQvO23GqOljcAiH2SOCf4J7sm5jJhb00ug3SH7WSwRwv2EWuvUUOxiqK1n1omoHI5smMpphDlscV-G0UqOLPX4jG_rEjzLnFMvJB6KPTj9zTU9xNk8Dqb_rKY_qz_ZUV7-RTu7qB_se5_53_A2Vz3TarfxqZ_YpVeo_s9z5_4d_pCQbmIuzxt0FlHryC8wXlKDlcYf14qpGdOVC8tANdJNxx0VMGUGJXkaxi5cJZZL12A1OaMl8pQVeDP6gddmwV3QWq6XiCePsjzvsMiRO89oTRVA11Jo4AzvNWh2eKZNSTBe1kvFA713CqNu85kyBFiaOwM1vhh0LU-uLzP-pwKnTseo10b4AGI28MIRu3JORtvXjBz9P0OLPI4AiG2RM05QYC_X_KrsGumXtvBibORrx3pSAc3JjAii5aYae1kOQqncO0mlXA0Su1VHj4AdfF87gzOlrNpsBJwDHEA0M0eN8X3HqgAS8kToc4FWsgwjaNYp74AH9u5HnIqs9dTNIpfGOPdvEfPE4MrJBQXFe6jXDyYYUPx3gpgYGDeVXa0G4MAdprgdkdLUo1DZZKwb_WRR_0ThR0SrBPPvSBMapSsOlbt8g3mx4gYFoGgdL12_gSumpNYhIFm00]--></g></svg>