<?xml version="1.0" encoding="us-ascii" standalone="no"?><svg xmlns="http://www.w3.org/2000/svg" xmlns:xlink="http://www.w3.org/1999/xlink" contentStyleType="text/css" height="1211px" preserveAspectRatio="none" style="width:681px;height:1211px;background:#FFFFFF;" version="1.1" viewBox="0 0 681 1211" width="681px" zoomAndPan="magnify"><defs/><g><!--cluster ???? ??????--><g id="cluster_&#1041;&#1072;&#1079;&#1072; &#1044;&#1072;&#1085;&#1085;&#1099;&#1093;"><path d="M6,16 C6,6 335,6 335,6 C335,6 664,6 664,16 L664,1106 C664,1116 335,1116 335,1116 C335,1116 6,1116 6,1106 L6,16 " fill="#EAFAF1" style="stroke:#181818;stroke-width:1.0;"/><path d="M6,16 C6,26 335,26 335,26 C335,26 664,26 664,16 " fill="none" style="stroke:#181818;stroke-width:1.0;"/><text fill="#000000" font-family="sans-serif" font-size="14" font-weight="bold" lengthAdjust="spacing" textLength="91" x="289.5" y="43.1074">&#1041;&#1072;&#1079;&#1072; &#1044;&#1072;&#1085;&#1085;&#1099;&#1093;</text></g><!--cluster tables--><g id="cluster_tables"><rect fill="#FDEBD0" height="427" rx="2.5" ry="2.5" style="stroke:#181818;stroke-width:1.0;" width="594" x="38" y="74"/><text fill="#000000" font-family="sans-serif" font-size="14" font-weight="bold" lengthAdjust="spacing" textLength="64" x="303" y="91.1074">&#1058;&#1072;&#1073;&#1083;&#1080;&#1094;&#1099;</text></g><!--cluster indeces--><g id="cluster_indeces"><rect fill="#FDEBD0" height="543" rx="2.5" ry="2.5" style="stroke:#181818;stroke-width:1.0;" width="453" x="108.5" y="541"/><text fill="#000000" font-family="sans-serif" font-size="14" font-weight="bold" lengthAdjust="spacing" textLength="63" x="303.5" y="558.1074">&#1048;&#1085;&#1076;&#1077;&#1082;&#1089;&#1099;</text></g><!--cluster i_templates--><g id="cluster_i_templates"><rect fill="#F5B7B1" height="185" rx="2.5" ry="2.5" style="stroke:#181818;stroke-width:1.0;stroke-dasharray:7.0,7.0;" width="389" x="140.5" y="594"/><text fill="#000000" font-family="sans-serif" font-size="14" font-weight="bold" lengthAdjust="spacing" textLength="69" x="300.5" y="611.1074">templates</text></g><!--cluster i_notes--><g id="cluster_i_notes"><rect fill="#F5B7B1" height="241" rx="2.5" ry="2.5" style="stroke:#181818;stroke-width:1.0;stroke-dasharray:7.0,7.0;" width="360" x="155" y="803"/><text fill="#000000" font-family="sans-serif" font-size="14" font-weight="bold" lengthAdjust="spacing" textLength="40" x="315" y="820.1074">notes</text></g><!--class templates--><g id="elem_templates"><rect codeLine="23" fill="#F9E79F" height="111.8633" id="templates" rx="2.5" ry="2.5" style="stroke:#181818;stroke-width:0.5;" width="393" x="138.5" y="346"/><ellipse cx="300.25" cy="362" fill="#ADD1B2" rx="11" ry="11" style="stroke:#181818;stroke-width:1.0;"/><path d="M299.1094,362.7969 L299.1094,365.2969 L303.4375,365.2969 L303.4375,364.375 Q303.4375,363.7656 303.6719,363.5 Q303.9219,363.2344 304.2969,363.2344 Q304.6719,363.2344 304.9063,363.5 Q305.1406,363.7656 305.1406,364.375 L305.1406,367 L297.1406,367 Q296.5156,367 296.25,366.7656 Q296,366.5313 296,366.1406 Q296,365.7656 296.2656,365.5313 Q296.5313,365.2969 297.1406,365.2969 L297.4063,365.2969 L297.4063,358.6406 L297.1406,358.6406 Q296.5156,358.6406 296.25,358.4063 Q296,358.1719 296,357.7813 Q296,357.4063 296.25,357.1719 Q296.5156,356.9375 297.1406,356.9375 L304.7656,356.9375 L304.7656,359.5313 Q304.7656,360.1406 304.5313,360.4063 Q304.3125,360.6563 303.9219,360.6563 Q303.5469,360.6563 303.3125,360.4063 Q303.0781,360.1406 303.0781,359.5313 L303.0781,358.6406 L299.1094,358.6406 L299.1094,361.0938 L300.5938,361.0938 Q300.5938,360.4375 300.7188,360.25 Q300.9844,359.8438 301.4531,359.8438 Q301.8281,359.8438 302.0625,360.1094 Q302.2969,360.3594 302.2969,360.9688 L302.2969,362.9375 Q302.2969,363.4844 302.1719,363.6719 Q301.9063,364.0625 301.4531,364.0625 Q300.9844,364.0625 300.7188,363.6563 Q300.5938,363.4688 300.5938,362.7969 L299.1094,362.7969 Z " fill="#000000"/><text fill="#000000" font-family="sans-serif" font-size="14" lengthAdjust="spacing" textLength="61" x="320.75" y="367.7969">templates</text><line style="stroke:#181818;stroke-width:0.5;" x1="139.5" x2="530.5" y1="378" y2="378"/><text fill="#000000" font-family="sans-serif" font-size="14" font-weight="bold" lengthAdjust="spacing" textLength="50" x="144.5" y="397.1074">criteria</text><text fill="#000000" font-family="sans-serif" font-size="14" lengthAdjust="spacing" textLength="114" x="198.5" y="397.1074">: TEXT NOT NULL</text><line style="stroke:#181818;stroke-width:1.0;stroke-dasharray:1.0,2.0;" x1="139.5" x2="530.5" y1="404.6211" y2="404.6211"/><text fill="#000000" font-family="sans-serif" font-size="14" font-weight="bold" lengthAdjust="spacing" textLength="46" x="144.5" y="423.7285">_name</text><text fill="#000000" font-family="sans-serif" font-size="14" lengthAdjust="spacing" textLength="114" x="194.5" y="423.7285">: TEXT NOT NULL</text><line style="stroke:#181818;stroke-width:1.0;stroke-dasharray:1.0,2.0;" x1="139.5" x2="530.5" y1="431.2422" y2="431.2422"/><text fill="#000000" font-family="sans-serif" font-size="14" font-weight="bold" lengthAdjust="spacing" textLength="21" x="144.5" y="450.3496">_id</text><text fill="#000000" font-family="sans-serif" font-size="14" lengthAdjust="spacing" textLength="356" x="169.5" y="450.3496">: INTEGER NOT NULL PRIMARY KEY AUTOINCREMENT</text></g><!--class notes--><g id="elem_notes"><rect codeLine="31" fill="#F9E79F" height="191.7266" id="notes" rx="2.5" ry="2.5" style="stroke:#181818;stroke-width:0.5;" width="546" x="62" y="119"/><ellipse cx="313.25" cy="135" fill="#ADD1B2" rx="11" ry="11" style="stroke:#181818;stroke-width:1.0;"/><path d="M312.1094,135.7969 L312.1094,138.2969 L316.4375,138.2969 L316.4375,137.375 Q316.4375,136.7656 316.6719,136.5 Q316.9219,136.2344 317.2969,136.2344 Q317.6719,136.2344 317.9063,136.5 Q318.1406,136.7656 318.1406,137.375 L318.1406,140 L310.1406,140 Q309.5156,140 309.25,139.7656 Q309,139.5313 309,139.1406 Q309,138.7656 309.2656,138.5313 Q309.5313,138.2969 310.1406,138.2969 L310.4063,138.2969 L310.4063,131.6406 L310.1406,131.6406 Q309.5156,131.6406 309.25,131.4063 Q309,131.1719 309,130.7813 Q309,130.4063 309.25,130.1719 Q309.5156,129.9375 310.1406,129.9375 L317.7656,129.9375 L317.7656,132.5313 Q317.7656,133.1406 317.5313,133.4063 Q317.3125,133.6563 316.9219,133.6563 Q316.5469,133.6563 316.3125,133.4063 Q316.0781,133.1406 316.0781,132.5313 L316.0781,131.6406 L312.1094,131.6406 L312.1094,134.0938 L313.5938,134.0938 Q313.5938,133.4375 313.7188,133.25 Q313.9844,132.8438 314.4531,132.8438 Q314.8281,132.8438 315.0625,133.1094 Q315.2969,133.3594 315.2969,133.9688 L315.2969,135.9375 Q315.2969,136.4844 315.1719,136.6719 Q314.9063,137.0625 314.4531,137.0625 Q313.9844,137.0625 313.7188,136.6563 Q313.5938,136.4688 313.5938,135.7969 L312.1094,135.7969 Z " fill="#000000"/><text fill="#000000" font-family="sans-serif" font-size="14" lengthAdjust="spacing" textLength="35" x="333.75" y="140.7969">notes</text><line style="stroke:#181818;stroke-width:0.5;" x1="63" x2="607" y1="151" y2="151"/><text fill="#000000" font-family="sans-serif" font-size="14" font-weight="bold" lengthAdjust="spacing" textLength="77" x="68" y="170.1074">candidates</text><text fill="#000000" font-family="sans-serif" font-size="14" lengthAdjust="spacing" textLength="114" x="149" y="170.1074">: TEXT NOT NULL</text><line style="stroke:#181818;stroke-width:1.0;stroke-dasharray:1.0,2.0;" x1="63" x2="607" y1="177.6211" y2="177.6211"/><text fill="#000000" font-family="sans-serif" font-size="14" font-weight="bold" lengthAdjust="spacing" textLength="82" x="68" y="196.7285">template_id</text><text fill="#000000" font-family="sans-serif" font-size="14" lengthAdjust="spacing" textLength="139" x="154" y="196.7285">: INTEGER NOT NULL</text><line style="stroke:#181818;stroke-width:1.0;stroke-dasharray:1.0,2.0;" x1="63" x2="607" y1="204.2422" y2="204.2422"/><text fill="#000000" font-family="sans-serif" font-size="14" font-weight="bold" lengthAdjust="spacing" textLength="44" x="68" y="223.3496">report</text><text fill="#000000" font-family="sans-serif" font-size="14" lengthAdjust="spacing" textLength="114" x="116" y="223.3496">: TEXT NOT NULL</text><line style="stroke:#181818;stroke-width:1.0;stroke-dasharray:1.0,2.0;" x1="63" x2="607" y1="230.8633" y2="230.8633"/><text fill="#000000" font-family="sans-serif" font-size="14" font-weight="bold" lengthAdjust="spacing" textLength="46" x="68" y="249.9707">_name</text><text fill="#000000" font-family="sans-serif" font-size="14" lengthAdjust="spacing" textLength="114" x="118" y="249.9707">: TEXT NOT NULL</text><line style="stroke:#181818;stroke-width:1.0;stroke-dasharray:1.0,2.0;" x1="63" x2="607" y1="257.4844" y2="257.4844"/><text fill="#000000" font-family="sans-serif" font-size="14" font-weight="bold" lengthAdjust="spacing" textLength="21" x="68" y="276.5918">_id</text><text fill="#000000" font-family="sans-serif" font-size="14" lengthAdjust="spacing" textLength="356" x="93" y="276.5918">: INTEGER NOT NULL PRIMARY KEY AUTOINCREMENT</text><line style="stroke:#181818;stroke-width:1.0;" x1="63" x2="607" y1="284.1055" y2="284.1055"/><text fill="#000000" font-family="sans-serif" font-size="14" lengthAdjust="spacing" textLength="102" x="68" y="303.2129">FOREIGN KEY (</text><text fill="#000000" font-family="sans-serif" font-size="14" font-weight="bold" lengthAdjust="spacing" textLength="82" x="170" y="303.2129">template_id</text><text fill="#000000" font-family="sans-serif" font-size="14" lengthAdjust="spacing" textLength="172" x="252" y="303.2129">) REFERENCES templates(</text><text fill="#000000" font-family="sans-serif" font-size="14" font-weight="bold" lengthAdjust="spacing" textLength="21" x="424" y="303.2129">_id</text><text fill="#000000" font-family="sans-serif" font-size="14" lengthAdjust="spacing" textLength="157" x="445" y="303.2129">) ON DELETE CASCADE</text></g><!--entity template_id_index--><g id="elem_template_id_index"><rect fill="#F9E79F" height="38.6211" rx="5" ry="5" style="stroke:#000000;stroke-width:2.0;" width="307" x="181.5" y="723.5"/><text fill="#000000" font-family="sans-serif" font-size="14" lengthAdjust="spacing" text-decoration="underline" textLength="50" x="191.5" y="748.6074">UNIQUE</text><text fill="#000000" font-family="sans-serif" font-size="14" lengthAdjust="spacing" textLength="4" x="241.5" y="748.6074">&#160;</text><text fill="#000000" font-family="sans-serif" font-size="14" font-weight="bold" lengthAdjust="spacing" textLength="129" x="245.5" y="748.6074">template_id_index</text><text fill="#000000" font-family="sans-serif" font-size="14" lengthAdjust="spacing" textLength="74" x="378.5" y="748.6074">: templates(</text><text fill="#000000" font-family="sans-serif" font-size="14" font-weight="bold" lengthAdjust="spacing" textLength="21" x="452.5" y="748.6074">_id</text><text fill="#000000" font-family="sans-serif" font-size="14" lengthAdjust="spacing" textLength="5" x="473.5" y="748.6074">)</text></g><!--entity template_name_index--><g id="elem_template_name_index"><rect fill="#F9E79F" height="38.6211" rx="5" ry="5" style="stroke:#000000;stroke-width:2.0;" width="357" x="156.5" y="649.5"/><text fill="#000000" font-family="sans-serif" font-size="14" lengthAdjust="spacing" text-decoration="underline" textLength="50" x="166.5" y="674.6074">UNIQUE</text><text fill="#000000" font-family="sans-serif" font-size="14" lengthAdjust="spacing" textLength="4" x="216.5" y="674.6074">&#160;</text><text fill="#000000" font-family="sans-serif" font-size="14" font-weight="bold" lengthAdjust="spacing" textLength="154" x="220.5" y="674.6074">template_name_index</text><text fill="#000000" font-family="sans-serif" font-size="14" lengthAdjust="spacing" textLength="74" x="378.5" y="674.6074">: templates(</text><text fill="#000000" font-family="sans-serif" font-size="14" font-weight="bold" lengthAdjust="spacing" textLength="46" x="452.5" y="674.6074">_name</text><text fill="#000000" font-family="sans-serif" font-size="14" lengthAdjust="spacing" textLength="5" x="498.5" y="674.6074">)</text></g><!--entity note_id_index--><g id="elem_note_id_index"><rect fill="#F9E79F" height="38.6211" rx="5" ry="5" style="stroke:#000000;stroke-width:2.0;" width="252" x="209" y="988.5"/><text fill="#000000" font-family="sans-serif" font-size="14" lengthAdjust="spacing" text-decoration="underline" textLength="50" x="219" y="1013.6074">UNIQUE</text><text fill="#000000" font-family="sans-serif" font-size="14" lengthAdjust="spacing" textLength="4" x="269" y="1013.6074">&#160;</text><text fill="#000000" font-family="sans-serif" font-size="14" font-weight="bold" lengthAdjust="spacing" textLength="100" x="273" y="1013.6074">note_id_index</text><text fill="#000000" font-family="sans-serif" font-size="14" lengthAdjust="spacing" textLength="48" x="377" y="1013.6074">: notes(</text><text fill="#000000" font-family="sans-serif" font-size="14" font-weight="bold" lengthAdjust="spacing" textLength="21" x="425" y="1013.6074">_id</text><text fill="#000000" font-family="sans-serif" font-size="14" lengthAdjust="spacing" textLength="5" x="446" y="1013.6074">)</text></g><!--entity note_name_index--><g id="elem_note_name_index"><rect fill="#F9E79F" height="38.6211" rx="5" ry="5" style="stroke:#000000;stroke-width:2.0;" width="302" x="184" y="914.5"/><text fill="#000000" font-family="sans-serif" font-size="14" lengthAdjust="spacing" text-decoration="underline" textLength="50" x="194" y="939.6074">UNIQUE</text><text fill="#000000" font-family="sans-serif" font-size="14" lengthAdjust="spacing" textLength="4" x="244" y="939.6074">&#160;</text><text fill="#000000" font-family="sans-serif" font-size="14" font-weight="bold" lengthAdjust="spacing" textLength="125" x="248" y="939.6074">note_name_index</text><text fill="#000000" font-family="sans-serif" font-size="14" lengthAdjust="spacing" textLength="48" x="377" y="939.6074">: notes(</text><text fill="#000000" font-family="sans-serif" font-size="14" font-weight="bold" lengthAdjust="spacing" textLength="46" x="425" y="939.6074">_name</text><text fill="#000000" font-family="sans-serif" font-size="14" lengthAdjust="spacing" textLength="5" x="471" y="939.6074">)</text></g><!--entity note_template_id_index--><g id="elem_note_template_id_index"><rect fill="#F9E79F" height="38.6211" rx="5" ry="5" style="stroke:#000000;stroke-width:2.0;" width="328" x="171" y="840.5"/><text fill="#000000" font-family="sans-serif" font-size="14" font-weight="bold" lengthAdjust="spacing" textLength="169" x="181" y="865.6074">note_template_id_index</text><text fill="#000000" font-family="sans-serif" font-size="14" lengthAdjust="spacing" textLength="48" x="354" y="865.6074">: notes(</text><text fill="#000000" font-family="sans-serif" font-size="14" font-weight="bold" lengthAdjust="spacing" textLength="82" x="402" y="865.6074">template_id</text><text fill="#000000" font-family="sans-serif" font-size="14" lengthAdjust="spacing" textLength="5" x="484" y="865.6074">)</text></g><!--reverse link templates to notes--><g id="link_templates_notes"><path codeLine="60" d="M335,339.89 C335,328.92 335,323.12 335,311.27 " fill="none" id="templates-backto-notes" style="stroke:#181818;stroke-width:1.0;stroke-dasharray:7.0,7.0;"/><polygon fill="#181818" points="335,345.89,339,336.89,335,340.89,331,336.89,335,345.89" style="stroke:#181818;stroke-width:1.0;"/></g><!--link indeces to tables--><!--link template_id_index to template_name_index--><!--link template_name_index to template_name_index--><!--link note_id_index to note_name_index--><!--link note_name_index to note_template_id_index--><rect fill="#DDDDDD" height="47.2422" id="_legend" rx="7.5" ry="7.5" style="stroke:#000000;stroke-width:1.0;" width="550" x="105" y="1144"/><text fill="#000000" font-family="sans-serif" font-size="14" lengthAdjust="spacing" textLength="5" x="110" y="1164.1074">(</text><text fill="#000000" font-family="sans-serif" font-size="14" lengthAdjust="spacing" text-decoration="underline" textLength="50" x="115" y="1164.1074">UNIQUE</text><text fill="#000000" font-family="sans-serif" font-size="14" lengthAdjust="spacing" textLength="5" x="165" y="1164.1074">)</text><text fill="#000000" font-family="sans-serif" font-size="14" font-weight="bold" lengthAdjust="spacing" textLength="50" x="174" y="1164.1074">&#1080;&#1085;&#1076;&#1077;&#1082;&#1089;</text><text fill="#000000" font-family="sans-serif" font-size="14" lengthAdjust="spacing" textLength="69" x="228" y="1164.1074">: &#1090;&#1072;&#1073;&#1083;&#1080;&#1094;&#1072;(</text><text fill="#000000" font-family="sans-serif" font-size="14" font-weight="bold" lengthAdjust="spacing" textLength="101" x="297" y="1164.1074">&#1087;&#1086;&#1083;&#1077; &#1090;&#1072;&#1073;&#1083;&#1080;&#1094;&#1099;</text><text fill="#000000" font-family="sans-serif" font-size="14" lengthAdjust="spacing" textLength="33" x="398" y="1164.1074">) &lt;=&gt;</text><text fill="#000000" font-family="sans-serif" font-size="14" lengthAdjust="spacing" textLength="291" x="110" y="1182.7285">&lt;=&gt; CREATE (UNIQUE) INDEX IF NOT EXISTS</text><text fill="#000000" font-family="sans-serif" font-size="14" font-weight="bold" lengthAdjust="spacing" textLength="50" x="405" y="1182.7285">&#1080;&#1085;&#1076;&#1077;&#1082;&#1089;</text><text fill="#000000" font-family="sans-serif" font-size="14" lengthAdjust="spacing" textLength="85" x="459" y="1182.7285">ON &#1090;&#1072;&#1073;&#1083;&#1080;&#1094;&#1072;(</text><text fill="#000000" font-family="sans-serif" font-size="14" font-weight="bold" lengthAdjust="spacing" textLength="101" x="544" y="1182.7285">&#1087;&#1086;&#1083;&#1077; &#1090;&#1072;&#1073;&#1083;&#1080;&#1094;&#1099;</text><text fill="#000000" font-family="sans-serif" font-size="14" lengthAdjust="spacing" textLength="5" x="645" y="1182.7285">)</text><!--SRC=[fLHDRzD043tNlsAKNf93KbgfgWeXKZxMbKNh5CUHMY5KRU8bMTLPHsjNRK4SG89BJqWSEFCBYaH51IhyXSq_OjTEug-KqDONszetxysycLcNl0eWy83JmJ00XtBI3wZ7DEowtkc8db4sq3Jt5f1_JDaOSpm2bp8Id8y9U3mOUec3W0OkQNZS8TpoJfZJz3WZ7DOVBSROGze_PiJtOMCneEcv7eUUY_l7MO3kiQ13NnFOsDGIP_iIYWUa8Ly37gMWA5PHNQ_hwmcW9Ql2RE3ceNeBDLh9Z9ikzlqyR1jjRUkQycj0c1FPfO5yYjMJMjSqddTHTUsaLe9ghoQknOtuBgx4pycxwbgl1ezXybvSYc_YbxYUV1INHGNw8txB_wlKqUH2uIN9qrf8Bj_Gj53THb2CH4fWc2rq08OEPji6T61qxCv2qRPvHrLD5HRLfpaum3ti4oY8JnBuGro2-2m_RiJDv6BoeG1lmlpup5SGNvDyW7sG12xnfq3r42PxUGu16OrT7AIEmbfxjJwd0U4KJqspqO4TLcbsTtTJs4eb6th4y8ZS9uuwqoZ3jD4EikQ1i6yPUtNh49wXGwXtxRPXobRi8TEUSxpLiiKnBr_OYgeCCuSwgkgbEQvaabJXCyzkptOf1ITZkS3tKly_RnT6FiJTaAHSJl_hRGiPEsOOLimxKm8BwSX2PXDruaahngcKr5wqq2wIAzMiTvhr5agqCz7Kn6X_YJSh6ctA7D9FzJb6n-EjW4Vnxwg-sTXgh3zHzsd5mVwGE9b1YKaAgKi5qdKUAVcpgQyBQoo4-vUDcDzYTzPK_V-7wcmyChfnL4uviJXn0j7kXAv5dmzpJ75atGfvSqwba7TsAOpEEHGhfTt9e9UgJVblQ_zS9hi7iTZoEPZDlUnAP7p5hTJY7ckpSI-_65B78UmbBqzlTorFdWBbHq5RD1xBOj8DIg8pTcfPUtFONCBQNm00]--></g></svg>